{
copyright = "Copyright (c) 2013 by Alessio Laiso (alessio.laiso@gmail.com). Licensed under the SIL Open Font License, Version 1.2.2";
customParameters = (
{
name = license;

glyphs = (
{
glyphname = .notdef;
layers = (
{
layerId = "18B4A443-2C69-4DCB-9619-77A7DD6AC8EC";
name = Light;
paths = (
{
closed = 1;
nodes = (
"221 546 LINE SMOOTH",
"223 542 OFFCURVE",
"225 541 OFFCURVE",
"230 541 CURVE SMOOTH",
"232 541 OFFCURVE",
"236 543 OFFCURVE",
"241 547 CURVE SMOOTH",
"246 551 OFFCURVE",
"253 555 OFFCURVE",
"261 560 CURVE SMOOTH",
"269 565 OFFCURVE",
"280 569 OFFCURVE",
"291 573 CURVE SMOOTH",
"302 577 OFFCURVE",
"316 578 OFFCURVE",
"331 578 CURVE SMOOTH",
"343 578 OFFCURVE",
"354 577 OFFCURVE",
"364 573 CURVE SMOOTH",
"374 569 OFFCURVE",
"382 564 OFFCURVE",
"389 558 CURVE SMOOTH",
"396 552 OFFCURVE",
"401 543 OFFCURVE",
"405 534 CURVE SMOOTH",
"409 525 OFFCURVE",
"409 514 OFFCURVE",
"408 502 CURVE",
"406 486 OFFCURVE",
"402 473 OFFCURVE",
"395 462 CURVE SMOOTH",
"388 451 OFFCURVE",
"379 441 OFFCURVE",
"370 432 CURVE SMOOTH",
"361 423 OFFCURVE",
"351 416 OFFCURVE",
"340 409 CURVE SMOOTH",
"329 402 OFFCURVE",
"319 395 OFFCURVE",
"310 388 CURVE SMOOTH",
"301 381 OFFCURVE",
"293 373 OFFCURVE",
"287 365 CURVE SMOOTH",
"281 357 OFFCURVE",
"278 348 OFFCURVE",
"277 338 CURVE SMOOTH",
"273 277 LINE",
"305 277 LINE",
"317 334 LINE",
"319 342 OFFCURVE",
"323 350 OFFCURVE",
"330 356 CURVE SMOOTH",
"337 362 OFFCURVE",
"345 369 OFFCURVE",
"354 376 CURVE SMOOTH",
"363 383 OFFCURVE",
"373 389 OFFCURVE",
"384 397 CURVE SMOOTH",
"395 405 OFFCURVE",
"405 413 OFFCURVE",
"414 423 CURVE SMOOTH",
"423 433 OFFCURVE",
"432 445 OFFCURVE",
"439 458 CURVE SMOOTH",
"446 471 OFFCURVE",
"451 487 OFFCURVE",
"453 505 CURVE SMOOTH",
"455 522 OFFCURVE",
"454 538 OFFCURVE",
"449 552 CURVE SMOOTH",
"444 566 OFFCURVE",
"436 577 OFFCURVE",
"426 587 CURVE SMOOTH",
"416 597 OFFCURVE",
"404 605 OFFCURVE",
"389 610 CURVE SMOOTH",
"374 615 OFFCURVE",
"357 618 OFFCURVE",
"339 618 CURVE SMOOTH",
"325 618 OFFCURVE",
"312 616 OFFCURVE",
"300 613 CURVE SMOOTH",
"288 610 OFFCURVE",
"277 607 OFFCURVE",
"266 602 CURVE SMOOTH",
"255 597 OFFCURVE",
"245 592 OFFCURVE",
"236 586 CURVE SMOOTH",
"227 580 OFFCURVE",
"219 574 OFFCURVE",
"211 567 CURVE"
);
},
{
closed = 1;
nodes = (
"230 122 OFFCURVE",
"233 113 OFFCURVE",
"239 105 CURVE SMOOTH",
"245 97 OFFCURVE",
"254 94 OFFCURVE",
"265 94 CURVE SMOOTH",
"276 94 OFFCURVE",
"285 97 OFFCURVE",
"293 105 CURVE SMOOTH",
"301 113 OFFCURVE",
"307 122 OFFCURVE",
"308 133 CURVE SMOOTH",
"309 144 OFFCURVE",
"306 152 OFFCURVE",
"300 160 CURVE SMOOTH",
"294 168 OFFCURVE",
"286 172 OFFCURVE",
"275 172 CURVE SMOOTH",
"264 172 OFFCURVE",
"254 168 OFFCURVE",
"246 160 CURVE SMOOTH",
"238 152 OFFCURVE",
"232 144 OFFCURVE",
"231 133 CURVE SMOOTH"
);
},
{
closed = 1;
nodes = (
"120 708 LINE",
"34 0 LINE",
"499 0 LINE",
"586 708 LINE"
);
},
{
closed = 1;
nodes = (
"53 18 LINE",
"136 690 LINE",
"565 690 LINE",
"483 18 LINE"
);
}
);
width = 622;
}
);
note = .notdef;
},
{
glyphname = exclam;
layers = (
{
layerId = "18B4A443-2C69-4DCB-9619-77A7DD6AC8EC";
name = Light;
paths = (
{
closed = 1;
nodes = (
"180 708 LINE",
"133 708 LINE",
"98 422 LINE SMOOTH",
"96 407 OFFCURVE",
"94 392 OFFCURVE",
"93 379 CURVE SMOOTH",
"92 366 OFFCURVE",
"90 352 OFFCURVE",
"89 338 CURVE SMOOTH",
"88 324 OFFCURVE",
"87 309 OFFCURVE",
"86 294 CURVE SMOOTH",
"85 279 OFFCURVE",
"84 263 OFFCURVE",
"83 244 CURVE",
"116 244 LINE",
"119 263 OFFCURVE",
"122 279 OFFCURVE",
"125 294 CURVE SMOOTH",
"128 309 OFFCURVE",
"130 324 OFFCURVE",
"132 338 CURVE SMOOTH",
"134 352 OFFCURVE",
"137 366 OFFCURVE",
"139 379 CURVE SMOOTH",
"141 392 OFFCURVE",
"142 407 OFFCURVE",
"144 422 CURVE SMOOTH"
);
},
{
closed = 1;
nodes = (
"24 26 OFFCURVE",
"28 15 OFFCURVE",
"36 6 CURVE SMOOTH",
"44 -3 OFFCURVE",
"54 -7 OFFCURVE",
"67 -7 CURVE SMOOTH",
"73 -7 OFFCURVE",
"79 -6 OFFCURVE",
"85 -4 CURVE SMOOTH",
"91 -2 OFFCURVE",
"96 2 OFFCURVE",
"101 6 CURVE SMOOTH",
"106 10 OFFCURVE",
"110 14 OFFCURVE",
"113 20 CURVE SMOOTH",
"116 26 OFFCURVE",
"118 32 OFFCURVE",
"119 39 CURVE SMOOTH",
"120 45 OFFCURVE",
"119 51 OFFCURVE",
"117 57 CURVE SMOOTH",
"115 63 OFFCURVE",
"113 67 OFFCURVE",
"109 71 CURVE SMOOTH",
"105 75 OFFCURVE",
"101 79 OFFCURVE",
"96 81 CURVE SMOOTH",
"91 83 OFFCURVE",
"84 85 OFFCURVE",
"78 85 CURVE SMOOTH",
"71 85 OFFCURVE",
"65 83 OFFCURVE",
"59 81 CURVE SMOOTH",
"53 79 OFFCURVE",
"49 75 OFFCURVE",
"44 71 CURVE SMOOTH",
"39 67 OFFCURVE",
"35 63 OFFCURVE",
"32 57 CURVE SMOOTH",
"29 51 OFFCURVE",
"27 45 OFFCURVE",
"26 39 CURVE SMOOTH"
);
}
);
width = 216;
}
);
note = exclam;
unicode = 0021;
},
{
glyphname = quotedbl;
layers = (
{
layerId = "18B4A443-2C69-4DCB-9619-77A7DD6AC8EC";
name = Light;
paths = (
{
closed = 1;
nodes = (
"130 708 LINE",
"89 708 LINE",
"71 562 LINE",
"66 485 LINE",
"66 479 OFFCURVE",
"67 475 OFFCURVE",
"69 472 CURVE SMOOTH",
"71 469 OFFCURVE",
"75 467 OFFCURVE",
"80 467 CURVE SMOOTH",
"86 467 OFFCURVE",
"89 469 OFFCURVE",
"92 472 CURVE SMOOTH",
"95 475 OFFCURVE",
"98 479 OFFCURVE",
"99 485 CURVE SMOOTH",
"112 562 LINE"
);
},
{
closed = 1;
nodes = (
"275 708 LINE",
"234 708 LINE",
"216 562 LINE",
"211 485 LINE",
"211 479 OFFCURVE",
"212 475 OFFCURVE",
"214 472 CURVE SMOOTH",
"216 469 OFFCURVE",
"220 467 OFFCURVE",
"225 467 CURVE SMOOTH",
"231 467 OFFCURVE",
"234 469 OFFCURVE",
"237 472 CURVE SMOOTH",
"240 475 OFFCURVE",
"243 479 OFFCURVE",
"244 485 CURVE SMOOTH",
"257 562 LINE"
);
}
);
width = 323;
}
);
note = quotedbl;
unicode = 0022;
},
{
glyphname = numbersign;
layers = (
{
layerId = "18B4A443-2C69-4DCB-9619-77A7DD6AC8EC";
name = Light;
paths = (
{
closed = 1;
nodes = (
"358 222 LINE",
"488 222 LINE",
"493 244 LINE",
"494 253 OFFCURVE",
"490 256 OFFCURVE",
"480 256 CURVE SMOOTH",
"367 256 LINE",
"432 451 LINE",
"524 451 LINE SMOOTH",
"537 451 OFFCURVE",
"546 457 OFFCURVE",
"549 468 CURVE SMOOTH",
"554 486 LINE",
"441 486 LINE",
"509 686 LINE",
"509 687 OFFCURVE",
"511 689 OFFCURVE",
"511 692 CURVE",
"512 702 OFFCURVE",
"507 708 OFFCURVE",
"497 708 CURVE SMOOTH",
"476 708 LINE",
"401 486 LINE",
"252 486 LINE",
"327 708 LINE",
"306 708 LINE SMOOTH",
"300 708 OFFCURVE",
"296 706 OFFCURVE",
"291 703 CURVE SMOOTH",
"286 700 OFFCURVE",
"283 694 OFFCURVE",
"281 688 CURVE SMOOTH",
"212 486 LINE",
"106 486 LINE SMOOTH",
"93 486 OFFCURVE",
"85 481 OFFCURVE",
"82 470 CURVE SMOOTH",
"77 451 LINE",
"203 451 LINE",
"138 256 LINE",
"29 256 LINE",
"27 248 LINE",
"26 245 OFFCURVE",
"25 243 OFFCURVE",
"25 241 CURVE",
"24 236 LINE SMOOTH",
"23 230 OFFCURVE",
"25 227 OFFCURVE",
"27 225 CURVE SMOOTH",
"29 223 OFFCURVE",
"32 222 OFFCURVE",
"37 222 CURVE SMOOTH",
"129 222 LINE",
"55 0 LINE",
"76 0 LINE SMOOTH",
"82 0 OFFCURVE",
"87 1 OFFCURVE",
"91 4 CURVE SMOOTH",
"95 7 OFFCURVE",
"98 13 OFFCURVE",
"101 20 CURVE",
"169 222 LINE",
"318 222 LINE",
"250 22 LINE",
"250 21 OFFCURVE",
"249 18 OFFCURVE",
"249 16 CURVE",
"248 11 OFFCURVE",
"249 7 OFFCURVE",
"252 4 CURVE SMOOTH",
"255 1 OFFCURVE",
"258 0 OFFCURVE",
"263 0 CURVE SMOOTH",
"284 0 LINE"
);
},
{
closed = 1;
nodes = (
"178 256 LINE",
"243 451 LINE",
"392 451 LINE",
"327 256 LINE"
);
}
);
width = 577;
}
);
note = numbersign;
unicode = 0023;
},
{
glyphname = dollar;
layers = (
{
layerId = "18B4A443-2C69-4DCB-9619-77A7DD6AC8EC";
name = Light;
paths = (
{
closed = 1;
nodes = (
"176 -128 LINE",
"194 -128 LINE SMOOTH",
"198 -128 OFFCURVE",
"202 -127 OFFCURVE",
"205 -124 CURVE SMOOTH",
"208 -121 OFFCURVE",
"209 -117 OFFCURVE",
"210 -113 CURVE",
"229 -8 LINE",
"263 -6 OFFCURVE",
"294 0 OFFCURVE",
"322 12 CURVE SMOOTH",
"350 24 OFFCURVE",
"374 40 OFFCURVE",
"395 59 CURVE SMOOTH",
"416 78 OFFCURVE",
"432 100 OFFCURVE",
"445 125 CURVE SMOOTH",
"458 150 OFFCURVE",
"465 177 OFFCURVE",
"469 206 CURVE",
"471 226 OFFCURVE",
"471 244 OFFCURVE",
"468 259 CURVE SMOOTH",
"465 274 OFFCURVE",
"459 288 OFFCURVE",
"451 300 CURVE SMOOTH",
"443 312 OFFCURVE",
"434 321 OFFCURVE",
"423 330 CURVE SMOOTH",
"412 339 OFFCURVE",
"399 346 OFFCURVE",
"385 353 CURVE SMOOTH",
"371 360 OFFCURVE",
"357 366 OFFCURVE",
"342 371 CURVE SMOOTH",
"327 376 OFFCURVE",
"312 382 OFFCURVE",
"297 387 CURVE",
"346 673 LINE",
"367 671 OFFCURVE",
"386 667 OFFCURVE",
"401 661 CURVE SMOOTH",
"416 655 OFFCURVE",
"427 649 OFFCURVE",
"437 642 CURVE SMOOTH",
"447 635 OFFCURVE",
"454 630 OFFCURVE",
"460 624 CURVE SMOOTH",
"466 618 OFFCURVE",
"471 615 OFFCURVE",
"475 615 CURVE SMOOTH",
"480 615 OFFCURVE",
"485 618 OFFCURVE",
"489 624 CURVE",
"502 641 LINE",
"484 662 OFFCURVE",
"463 679 OFFCURVE",
"439 691 CURVE SMOOTH",
"415 703 OFFCURVE",
"386 711 OFFCURVE",
"353 713 CURVE",
"371 814 LINE",
"353 814 LINE SMOOTH",
"348 814 OFFCURVE",
"345 812 OFFCURVE",
"342 809 CURVE SMOOTH",
"339 806 OFFCURVE",
"337 803 OFFCURVE",
"336 798 CURVE SMOOTH",
"321 714 LINE",
"289 713 OFFCURVE",
"261 707 OFFCURVE",
"235 697 CURVE SMOOTH",
"209 687 OFFCURVE",
"186 673 OFFCURVE",
"167 656 CURVE SMOOTH",
"148 639 OFFCURVE",
"133 621 OFFCURVE",
"122 599 CURVE SMOOTH",
"111 577 OFFCURVE",
"104 555 OFFCURVE",
"101 532 CURVE SMOOTH",
"97 502 OFFCURVE",
"99 477 OFFCURVE",
"107 457 CURVE SMOOTH",
"115 437 OFFCURVE",
"127 421 OFFCURVE",
"142 407 CURVE SMOOTH",
"157 393 OFFCURVE",
"175 383 OFFCURVE",
"195 374 CURVE SMOOTH",
"215 365 OFFCURVE",
"237 357 OFFCURVE",
"259 350 CURVE",
"204 32 LINE",
"185 33 OFFCURVE",
"169 36 OFFCURVE",
"155 40 CURVE SMOOTH",
"141 44 OFFCURVE",
"128 50 OFFCURVE",
"117 56 CURVE SMOOTH",
"106 62 OFFCURVE",
"97 68 OFFCURVE",
"89 74 CURVE SMOOTH",
"81 80 OFFCURVE",
"75 86 OFFCURVE",
"69 92 CURVE SMOOTH",
"63 98 OFFCURVE",
"58 102 OFFCURVE",
"54 106 CURVE SMOOTH",
"50 110 OFFCURVE",
"47 112 OFFCURVE",
"44 112 CURVE SMOOTH",
"39 112 OFFCURVE",
"34 109 OFFCURVE",
"29 104 CURVE",
"13 84 LINE",
"34 57 OFFCURVE",
"59 36 OFFCURVE",
"89 20 CURVE SMOOTH",
"119 4 OFFCURVE",
"155 -6 OFFCURVE",
"197 -8 CURVE"
);
},
{
closed = 1;
nodes = (
"420 177 OFFCURVE",
"414 156 OFFCURVE",
"404 136 CURVE SMOOTH",
"394 116 OFFCURVE",
"382 100 OFFCURVE",
"366 85 CURVE SMOOTH",
"350 70 OFFCURVE",
"331 58 OFFCURVE",
"309 49 CURVE SMOOTH",
"287 40 OFFCURVE",
"263 34 OFFCURVE",
"236 32 CURVE",
"289 341 LINE",
"308 335 OFFCURVE",
"327 328 OFFCURVE",
"344 321 CURVE SMOOTH",
"361 314 OFFCURVE",
"376 305 OFFCURVE",
"389 294 CURVE SMOOTH",
"402 283 OFFCURVE",
"411 270 OFFCURVE",
"417 255 CURVE SMOOTH",
"423 240 OFFCURVE",
"426 221 OFFCURVE",
"423 199 CURVE SMOOTH"
);
},
{
closed = 1;
nodes = (
"148 553 OFFCURVE",
"154 570 OFFCURVE",
"162 586 CURVE SMOOTH",
"170 602 OFFCURVE",
"181 617 OFFCURVE",
"195 629 CURVE SMOOTH",
"209 641 OFFCURVE",
"226 652 OFFCURVE",
"246 660 CURVE SMOOTH",
"266 668 OFFCURVE",
"289 673 OFFCURVE",
"314 674 CURVE",
"266 398 LINE",
"248 404 OFFCURVE",
"232 410 OFFCURVE",
"216 418 CURVE SMOOTH",
"200 426 OFFCURVE",
"187 435 OFFCURVE",
"176 445 CURVE SMOOTH",
"165 455 OFFCURVE",
"156 468 OFFCURVE",
"150 483 CURVE SMOOTH",
"144 498 OFFCURVE",
"143 515 OFFCURVE",
"146 536 CURVE SMOOTH"
);
}
);
width = 525;
}
);
note = dollar;
unicode = 0024;
},
{
glyphname = percent;
layers = (
{
layerId = "18B4A443-2C69-4DCB-9619-77A7DD6AC8EC";
name = Light;
paths = (
{
closed = 1;
nodes = (
"352 567 OFFCURVE",
"351 593 OFFCURVE",
"346 615 CURVE SMOOTH",
"341 637 OFFCURVE",
"333 656 OFFCURVE",
"321 671 CURVE SMOOTH",
"309 686 OFFCURVE",
"295 696 OFFCURVE",
"278 704 CURVE SMOOTH",
"261 712 OFFCURVE",
"242 716 OFFCURVE",
"221 716 CURVE SMOOTH",
"200 716 OFFCURVE",
"181 712 OFFCURVE",
"162 704 CURVE SMOOTH",
"143 696 OFFCURVE",
"125 686 OFFCURVE",
"110 671 CURVE SMOOTH",
"95 656 OFFCURVE",
"82 637 OFFCURVE",
"72 615 CURVE SMOOTH",
"62 593 OFFCURVE",
"55 567 OFFCURVE",
"51 538 CURVE SMOOTH",
"47 509 OFFCURVE",
"48 483 OFFCURVE",
"53 461 CURVE SMOOTH",
"58 439 OFFCURVE",
"66 421 OFFCURVE",
"78 406 CURVE SMOOTH",
"90 391 OFFCURVE",
"104 380 OFFCURVE",
"121 372 CURVE SMOOTH",
"138 364 OFFCURVE",
"157 361 OFFCURVE",
"178 361 CURVE SMOOTH",
"198 361 OFFCURVE",
"217 364 OFFCURVE",
"236 372 CURVE SMOOTH",
"255 380 OFFCURVE",
"273 391 OFFCURVE",
"288 406 CURVE SMOOTH",
"303 421 OFFCURVE",
"316 439 OFFCURVE",
"327 461 CURVE SMOOTH",
"338 483 OFFCURVE",
"344 509 OFFCURVE",
"348 538 CURVE SMOOTH"
);
},
{
closed = 1;
nodes = (
"307 512 OFFCURVE",
"302 490 OFFCURVE",
"294 472 CURVE SMOOTH",
"286 454 OFFCURVE",
"276 439 OFFCURVE",
"264 427 CURVE SMOOTH",
"252 415 OFFCURVE",
"240 407 OFFCURVE",
"226 401 CURVE SMOOTH",
"212 395 OFFCURVE",
"197 393 OFFCURVE",
"182 393 CURVE SMOOTH",
"167 393 OFFCURVE",
"153 395 OFFCURVE",
"140 401 CURVE",
"127 406 OFFCURVE",
"117 415 OFFCURVE",
"108 427 CURVE SMOOTH",
"99 439 OFFCURVE",
"94 454 OFFCURVE",
"90 472 CURVE SMOOTH",
"86 490 OFFCURVE",
"86 512 OFFCURVE",
"89 538 CURVE SMOOTH",
"92 564 OFFCURVE",
"98 586 OFFCURVE",
"106 604 CURVE SMOOTH",
"114 622 OFFCURVE",
"125 637 OFFCURVE",
"136 649 CURVE SMOOTH",
"147 661 OFFCURVE",
"160 669 OFFCURVE",
"174 675 CURVE SMOOTH",
"188 681 OFFCURVE",
"202 683 OFFCURVE",
"217 683 CURVE SMOOTH",
"232 683 OFFCURVE",
"246 681 OFFCURVE",
"259 675 CURVE SMOOTH",
"272 669 OFFCURVE",
"282 661 OFFCURVE",
"291 649 CURVE SMOOTH",
"300 637 OFFCURVE",
"306 622 OFFCURVE",
"310 604 CURVE SMOOTH",
"314 586 OFFCURVE",
"313 564 OFFCURVE",
"310 538 CURVE SMOOTH"
);
},
{
closed = 1;
nodes = (
"44 0 LINE",
"78 0 LINE SMOOTH",
"85 0 OFFCURVE",
"91 3 OFFCURVE",
"96 9 CURVE SMOOTH",
"690 708 LINE",
"656 708 LINE SMOOTH",
"651 708 OFFCURVE",
"648 707 OFFCURVE",
"645 705 CURVE SMOOTH",
"642 703 OFFCURVE",
"639 701 OFFCURVE",
"637 698 CURVE"
);
},
{
closed = 1;
nodes = (
"689 197 OFFCURVE",
"688 224 OFFCURVE",
"683 246 CURVE SMOOTH",
"678 268 OFFCURVE",
"670 286 OFFCURVE",
"658 301 CURVE SMOOTH",
"646 316 OFFCURVE",
"632 327 OFFCURVE",
"615 335 CURVE SMOOTH",
"598 343 OFFCURVE",
"579 346 OFFCURVE",
"558 346 CURVE SMOOTH",
"537 346 OFFCURVE",
"518 343 OFFCURVE",
"499 335 CURVE SMOOTH",
"480 327 OFFCURVE",
"462 316 OFFCURVE",
"447 301 CURVE SMOOTH",
"432 286 OFFCURVE",
"419 268 OFFCURVE",
"409 246 CURVE SMOOTH",
"399 224 OFFCURVE",
"392 197 OFFCURVE",
"388 168 CURVE SMOOTH",
"384 139 OFFCURVE",
"385 113 OFFCURVE",
"390 91 CURVE SMOOTH",
"395 69 OFFCURVE",
"403 51 OFFCURVE",
"415 36 CURVE SMOOTH",
"427 21 OFFCURVE",
"441 11 OFFCURVE",
"458 3 CURVE SMOOTH",
"475 -5 OFFCURVE",
"494 -8 OFFCURVE",
"515 -8 CURVE SMOOTH",
"535 -8 OFFCURVE",
"554 -5 OFFCURVE",
"573 3 CURVE SMOOTH",
"592 11 OFFCURVE",
"610 21 OFFCURVE",
"625 36 CURVE SMOOTH",
"640 51 OFFCURVE",
"653 69 OFFCURVE",
"664 91 CURVE SMOOTH",
"675 113 OFFCURVE",
"681 139 OFFCURVE",
"685 168 CURVE SMOOTH"
);
},
{
closed = 1;
nodes = (
"644 142 OFFCURVE",
"638 120 OFFCURVE",
"630 102 CURVE SMOOTH",
"622 84 OFFCURVE",
"612 70 OFFCURVE",
"601 58 CURVE SMOOTH",
"590 46 OFFCURVE",
"577 37 OFFCURVE",
"563 32 CURVE SMOOTH",
"549 27 OFFCURVE",
"534 24 OFFCURVE",
"519 24 CURVE SMOOTH",
"504 24 OFFCURVE",
"490 27 OFFCURVE",
"477 32 CURVE SMOOTH",
"464 37 OFFCURVE",
"454 46 OFFCURVE",
"445 58 CURVE SMOOTH",
"436 70 OFFCURVE",
"431 84 OFFCURVE",
"427 102 CURVE SMOOTH",
"423 120 OFFCURVE",
"423 142 OFFCURVE",
"426 168 CURVE SMOOTH",
"429 194 OFFCURVE",
"435 216 OFFCURVE",
"443 234 CURVE SMOOTH",
"451 252 OFFCURVE",
"461 268 OFFCURVE",
"472 280 CURVE SMOOTH",
"483 292 OFFCURVE",
"497 300 OFFCURVE",
"511 306 CURVE SMOOTH",
"525 312 OFFCURVE",
"540 314 OFFCURVE",
"555 314 CURVE SMOOTH",
"570 314 OFFCURVE",
"583 312 OFFCURVE",
"596 306 CURVE SMOOTH",
"609 300 OFFCURVE",
"619 292 OFFCURVE",
"628 280 CURVE SMOOTH",
"637 268 OFFCURVE",
"643 252 OFFCURVE",
"647 234 CURVE SMOOTH",
"651 216 OFFCURVE",
"650 194 OFFCURVE",
"647 168 CURVE SMOOTH"
);
}
);
width = 730;
}
);
note = percent;
unicode = 0025;
},
{
glyphname = ampersand;
layers = (
{
layerId = "18B4A443-2C69-4DCB-9619-77A7DD6AC8EC";
name = Light;
paths = (
{
closed = 1;
nodes = (
"344 716 OFFCURVE",
"319 711 OFFCURVE",
"296 703 CURVE SMOOTH",
"273 695 OFFCURVE",
"253 683 OFFCURVE",
"236 668 CURVE SMOOTH",
"219 653 OFFCURVE",
"204 637 OFFCURVE",
"193 617 CURVE SMOOTH",
"182 597 OFFCURVE",
"176 575 OFFCURVE",
"173 552 CURVE SMOOTH",
"169 523 OFFCURVE",
"171 496 OFFCURVE",
"180 471 CURVE SMOOTH",
"189 446 OFFCURVE",
"204 421 OFFCURVE",
"224 394 CURVE",
"199 385 OFFCURVE",
"175 372 OFFCURVE",
"153 358 CURVE SMOOTH",
"131 344 OFFCURVE",
"110 328 OFFCURVE",
"93 310 CURVE SMOOTH",
"76 292 OFFCURVE",
"62 272 OFFCURVE",
"51 250 CURVE SMOOTH",
"40 228 OFFCURVE",
"32 205 OFFCURVE",
"29 181 CURVE SMOOTH",
"25 151 OFFCURVE",
"28 125 OFFCURVE",
"37 101 CURVE SMOOTH",
"46 77 OFFCURVE",
"59 57 OFFCURVE",
"76 41 CURVE SMOOTH",
"93 25 OFFCURVE",
"114 12 OFFCURVE",
"137 4 CURVE SMOOTH",
"160 -4 OFFCURVE",
"184 -8 OFFCURVE",
"209 -8 CURVE SMOOTH",
"235 -8 OFFCURVE",
"261 -5 OFFCURVE",
"286 1 CURVE SMOOTH",
"311 7 OFFCURVE",
"334 16 OFFCURVE",
"356 26 CURVE SMOOTH",
"378 36 OFFCURVE",
"399 49 OFFCURVE",
"419 64 CURVE SMOOTH",
"439 79 OFFCURVE",
"458 95 OFFCURVE",
"475 112 CURVE",
"565 11 LINE",
"569 6 OFFCURVE",
"573 3 OFFCURVE",
"577 2 CURVE SMOOTH",
"581 1 OFFCURVE",
"585 0 OFFCURVE",
"591 0 CURVE SMOOTH",
"636 0 LINE",
"505 146 LINE",
"529 176 OFFCURVE",
"549 208 OFFCURVE",
"564 241 CURVE SMOOTH",
"579 274 OFFCURVE",
"589 307 OFFCURVE",
"594 338 CURVE",
"566 338 LINE SMOOTH",
"562 338 OFFCURVE",
"559 336 OFFCURVE",
"557 334 CURVE SMOOTH",
"555 332 OFFCURVE",
"553 328 OFFCURVE",
"552 324 CURVE SMOOTH",
"546 300 OFFCURVE",
"537 275 OFFCURVE",
"525 249 CURVE SMOOTH",
"513 223 OFFCURVE",
"498 198 OFFCURVE",
"480 174 CURVE",
"284 394 LINE SMOOTH",
"258 423 OFFCURVE",
"240 449 OFFCURVE",
"229 474 CURVE SMOOTH",
"218 499 OFFCURVE",
"215 526 OFFCURVE",
"218 553 CURVE SMOOTH",
"220 571 OFFCURVE",
"226 588 OFFCURVE",
"234 603 CURVE SMOOTH",
"242 618 OFFCURVE",
"253 632 OFFCURVE",
"266 643 CURVE SMOOTH",
"279 654 OFFCURVE",
"294 663 OFFCURVE",
"311 669 CURVE SMOOTH",
"328 675 OFFCURVE",
"347 678 OFFCURVE",
"367 678 CURVE SMOOTH",
"387 678 OFFCURVE",
"403 675 OFFCURVE",
"417 668 CURVE SMOOTH",
"431 661 OFFCURVE",
"442 652 OFFCURVE",
"450 642 CURVE SMOOTH",
"458 632 OFFCURVE",
"465 621 OFFCURVE",
"469 610 CURVE SMOOTH",
"473 599 OFFCURVE",
"476 589 OFFCURVE",
"477 580 CURVE",
"478 576 OFFCURVE",
"479 574 OFFCURVE",
"481 572 CURVE SMOOTH",
"483 570 OFFCURVE",
"485 569 OFFCURVE",
"488 569 CURVE SMOOTH",
"492 569 OFFCURVE",
"498 569 OFFCURVE",
"506 571 CURVE SMOOTH",
"510 572 OFFCURVE",
"514 573 OFFCURVE",
"519 574 CURVE",
"521 593 OFFCURVE",
"519 611 OFFCURVE",
"512 628 CURVE SMOOTH",
"505 645 OFFCURVE",
"495 660 OFFCURVE",
"482 673 CURVE SMOOTH",
"469 686 OFFCURVE",
"452 696 OFFCURVE",
"433 704 CURVE SMOOTH",
"414 712 OFFCURVE",
"393 716 OFFCURVE",
"371 716 CURVE SMOOTH"
);
},
{
closed = 1;
nodes = (
"80 204 OFFCURVE",
"86 223 OFFCURVE",
"95 241 CURVE SMOOTH",
"104 259 OFFCURVE",
"116 276 OFFCURVE",
"130 292 CURVE SMOOTH",
"144 308 OFFCURVE",
"161 323 OFFCURVE",
"180 336 CURVE SMOOTH",
"199 349 OFFCURVE",
"221 360 OFFCURVE",
"244 369 CURVE",
"245 367 OFFCURVE",
"247 366 OFFCURVE",
"249 364 CURVE",
"451 138 LINE",
"436 122 OFFCURVE",
"421 108 OFFCURVE",
"404 95 CURVE SMOOTH",
"387 82 OFFCURVE",
"369 71 OFFCURVE",
"350 61 CURVE SMOOTH",
"331 51 OFFCURVE",
"309 44 OFFCURVE",
"288 39 CURVE SMOOTH",
"267 34 OFFCURVE",
"244 31 OFFCURVE",
"221 31 CURVE SMOOTH",
"202 31 OFFCURVE",
"184 35 OFFCURVE",
"166 41 CURVE SMOOTH",
"148 47 OFFCURVE",
"131 56 OFFCURVE",
"117 69 CURVE SMOOTH",
"103 82 OFFCURVE",
"93 98 OFFCURVE",
"85 117 CURVE SMOOTH",
"77 136 OFFCURVE",
"75 158 OFFCURVE",
"78 184 CURVE SMOOTH"
);
}
);
width = 662;
}
);
note = ampersand;
unicode = 0026;
},
{
glyphname = quotesingle;
layers = (
{
layerId = "18B4A443-2C69-4DCB-9619-77A7DD6AC8EC";
name = Light;
paths = (
{
closed = 1;
nodes = (
"130 708 LINE",
"89 708 LINE",
"71 562 LINE",
"66 485 LINE",
"66 479 OFFCURVE",
"67 475 OFFCURVE",
"69 472 CURVE SMOOTH",
"71 469 OFFCURVE",
"75 467 OFFCURVE",
"80 467 CURVE SMOOTH",
"86 467 OFFCURVE",
"89 469 OFFCURVE",
"92 472 CURVE SMOOTH",
"95 475 OFFCURVE",
"98 479 OFFCURVE",
"99 485 CURVE SMOOTH",
"112 562 LINE"
);
}
);
width = 178;
}
);
note = quotesingle;
unicode = 0027;
},
{
glyphname = parenleft;
layers = (
{
layerId = "18B4A443-2C69-4DCB-9619-77A7DD6AC8EC";
name = Light;
paths = (
{
closed = 1;
nodes = (
"98 390 OFFCURVE",
"116 462 OFFCURVE",
"145 530 CURVE SMOOTH",
"174 598 OFFCURVE",
"212 665 OFFCURVE",
"260 729 CURVE SMOOTH",
"263 733 OFFCURVE",
"264 737 OFFCURVE",
"264 740 CURVE",
"265 745 OFFCURVE",
"263 748 OFFCURVE",
"259 750 CURVE",
"240 763 LINE",
"210 724 OFFCURVE",
"183 686 OFFCURVE",
"161 649 CURVE SMOOTH",
"139 612 OFFCURVE",
"120 575 OFFCURVE",
"105 539 CURVE SMOOTH",
"90 503 OFFCURVE",
"77 466 OFFCURVE",
"68 429 CURVE SMOOTH",
"59 392 OFFCURVE",
"52 354 OFFCURVE",
"47 315 CURVE SMOOTH",
"42 276 OFFCURVE",
"41 239 OFFCURVE",
"41 202 CURVE SMOOTH",
"41 165 OFFCURVE",
"44 128 OFFCURVE",
"50 92 CURVE SMOOTH",
"56 56 OFFCURVE",
"66 19 OFFCURVE",
"79 -18 CURVE SMOOTH",
"92 -55 OFFCURVE",
"109 -94 OFFCURVE",
"130 -133 CURVE",
"152 -120 LINE",
"157 -118 OFFCURVE",
"160 -114 OFFCURVE",
"161 -109 CURVE",
"161 -106 OFFCURVE",
"161 -102 OFFCURVE",
"159 -98 CURVE SMOOTH",
"127 -34 OFFCURVE",
"105 32 OFFCURVE",
"93 100 CURVE SMOOTH",
"81 168 OFFCURVE",
"80 240 OFFCURVE",
"89 315 CURVE SMOOTH"
);
}
);
width = 282;
}
);
note = parenleft;
unicode = 0028;
},
{
glyphname = parenright;
layers = (
{
layerId = "18B4A443-2C69-4DCB-9619-77A7DD6AC8EC";
name = Light;
paths = (
{
closed = 1;
nodes = (
"185 240 OFFCURVE",
"166 168 OFFCURVE",
"137 100 CURVE SMOOTH",
"108 32 OFFCURVE",
"70 -34 OFFCURVE",
"22 -98 CURVE SMOOTH",
"19 -102 OFFCURVE",
"18 -105 OFFCURVE",
"18 -108 CURVE",
"17 -113 OFFCURVE",
"19 -118 OFFCURVE",
"23 -120 CURVE",
"43 -132 LINE",
"73 -93 OFFCURVE",
"99 -55 OFFCURVE",
"121 -18 CURVE SMOOTH",
"143 19 OFFCURVE",
"162 56 OFFCURVE",
"177 92 CURVE SMOOTH",
"192 128 OFFCURVE",
"205 165 OFFCURVE",
"214 202 CURVE SMOOTH",
"223 239 OFFCURVE",
"230 276 OFFCURVE",
"235 315 CURVE SMOOTH",
"240 354 OFFCURVE",
"242 392 OFFCURVE",
"242 429 CURVE SMOOTH",
"242 466 OFFCURVE",
"238 503 OFFCURVE",
"232 539 CURVE SMOOTH",
"226 575 OFFCURVE",
"216 612 OFFCURVE",
"203 649 CURVE SMOOTH",
"190 686 OFFCURVE",
"174 724 OFFCURVE",
"153 763 CURVE",
"130 750 LINE",
"125 748 OFFCURVE",
"123 745 OFFCURVE",
"122 740 CURVE",
"122 737 OFFCURVE",
"122 733 OFFCURVE",
"124 729 CURVE SMOOTH",
"156 665 OFFCURVE",
"178 598 OFFCURVE",
"190 530 CURVE SMOOTH",
"202 462 OFFCURVE",
"203 390 OFFCURVE",
"194 315 CURVE SMOOTH"
);
}
);
width = 288;
}
);
note = parenright;
unicode = 0029;
},
{
glyphname = asterisk;
layers = (
{
layerId = "18B4A443-2C69-4DCB-9619-77A7DD6AC8EC";
name = Light;
paths = (
{
closed = 1;
nodes = (
"159 448 LINE",
"185 448 LINE",
"198 556 LINE",
"199 562 OFFCURVE",
"199 566 OFFCURVE",
"198 570 CURVE SMOOTH",
"197 574 OFFCURVE",
"196 580 OFFCURVE",
"195 586 CURVE",
"199 580 OFFCURVE",
"202 577 OFFCURVE",
"205 574 CURVE SMOOTH",
"208 571 OFFCURVE",
"211 568 OFFCURVE",
"216 565 CURVE SMOOTH",
"305 510 LINE",
"320 532 LINE",
"232 588 LINE SMOOTH",
"227 591 OFFCURVE",
"223 593 OFFCURVE",
"219 594 CURVE SMOOTH",
"215 595 OFFCURVE",
"210 596 OFFCURVE",
"204 597 CURVE",
"210 598 OFFCURVE",
"215 598 OFFCURVE",
"220 600 CURVE SMOOTH",
"225 602 OFFCURVE",
"230 605 OFFCURVE",
"235 608 CURVE",
"335 662 LINE",
"325 684 LINE",
"224 630 LINE SMOOTH",
"218 627 OFFCURVE",
"214 624 OFFCURVE",
"210 621 CURVE SMOOTH",
"206 618 OFFCURVE",
"203 614 OFFCURVE",
"198 608 CURVE",
"201 614 OFFCURVE",
"204 619 OFFCURVE",
"205 624 CURVE SMOOTH",
"206 629 OFFCURVE",
"207 634 OFFCURVE",
"208 640 CURVE",
"221 746 LINE",
"195 746 LINE",
"182 639 LINE",
"181 633 OFFCURVE",
"181 629 OFFCURVE",
"182 624 CURVE SMOOTH",
"183 619 OFFCURVE",
"184 613 OFFCURVE",
"186 607 CURVE",
"182 613 OFFCURVE",
"179 617 OFFCURVE",
"176 620 CURVE SMOOTH",
"173 623 OFFCURVE",
"169 627 OFFCURVE",
"164 630 CURVE SMOOTH",
"76 685 LINE",
"60 662 LINE",
"149 607 LINE",
"153 604 OFFCURVE",
"157 603 OFFCURVE",
"161 601 CURVE SMOOTH",
"165 599 OFFCURVE",
"170 598 OFFCURVE",
"176 597 CURVE",
"170 596 OFFCURVE",
"164 594 OFFCURVE",
"160 593 CURVE SMOOTH",
"156 592 OFFCURVE",
"151 590 OFFCURVE",
"146 587 CURVE",
"46 532 LINE",
"55 510 LINE",
"156 565 LINE",
"161 568 OFFCURVE",
"166 570 OFFCURVE",
"170 573 CURVE SMOOTH",
"174 576 OFFCURVE",
"178 580 OFFCURVE",
"182 585 CURVE",
"179 579 OFFCURVE",
"176 574 OFFCURVE",
"175 570 CURVE SMOOTH",
"174 566 OFFCURVE",
"173 561 OFFCURVE",
"172 555 CURVE"
);
}
);
width = 372;
}
);
note = asterisk;
unicode = 002A;
},
{
glyphname = plus;
layers = (
{
layerId = "18B4A443-2C69-4DCB-9619-77A7DD6AC8EC";
name = Light;
paths = (
{
closed = 1;
nodes = (
"326 579 LINE",
"287 579 LINE",
"259 354 LINE",
"44 354 LINE",
"40 317 LINE",
"255 317 LINE",
"227 90 LINE",
"266 90 LINE",
"294 317 LINE",
"510 317 LINE",
"514 354 LINE",
"298 354 LINE"
);
}
);
width = 551;
}
);
note = plus;
unicode = 002B;
},
{
glyphname = comma;
layers = (
{
layerId = "18B4A443-2C69-4DCB-9619-77A7DD6AC8EC";
name = Light;
paths = (
{
closed = 1;
nodes = (
"68 29 OFFCURVE",
"71 18 OFFCURVE",
"78 10 CURVE SMOOTH",
"85 2 OFFCURVE",
"95 -2 OFFCURVE",
"107 -2 CURVE SMOOTH",
"115 -2 LINE SMOOTH",
"118 -2 OFFCURVE",
"120 -1 OFFCURVE",
"122 0 CURVE",
"119 -12 OFFCURVE",
"115 -23 OFFCURVE",
"110 -34 CURVE SMOOTH",
"105 -45 OFFCURVE",
"98 -54 OFFCURVE",
"92 -63 CURVE SMOOTH",
"86 -72 OFFCURVE",
"80 -80 OFFCURVE",
"74 -86 CURVE SMOOTH",
"68 -92 OFFCURVE",
"63 -98 OFFCURVE",
"59 -101 CURVE",
"58 -102 OFFCURVE",
"56 -104 OFFCURVE",
"55 -106 CURVE SMOOTH",
"54 -108 OFFCURVE",
"53 -108 OFFCURVE",
"53 -110 CURVE SMOOTH",
"53 -113 OFFCURVE",
"54 -116 OFFCURVE",
"56 -119 CURVE",
"63 -126 LINE",
"76 -115 OFFCURVE",
"87 -105 OFFCURVE",
"98 -92 CURVE SMOOTH",
"109 -79 OFFCURVE",
"119 -66 OFFCURVE",
"127 -52 CURVE SMOOTH",
"135 -38 OFFCURVE",
"142 -24 OFFCURVE",
"147 -10 CURVE SMOOTH",
"152 4 OFFCURVE",
"156 17 OFFCURVE",
"158 31 CURVE SMOOTH",
"160 47 OFFCURVE",
"158 60 OFFCURVE",
"151 70 CURVE SMOOTH",
"144 80 OFFCURVE",
"133 85 OFFCURVE",
"119 85 CURVE SMOOTH",
"106 85 OFFCURVE",
"95 80 OFFCURVE",
"86 72 CURVE SMOOTH",
"77 64 OFFCURVE",
"71 54 OFFCURVE",
"70 42 CURVE"
);
}
);
width = 226;
}
);
note = comma;
unicode = 002C;
},
{
glyphname = hyphen;
layers = (
{
layerId = "18B4A443-2C69-4DCB-9619-77A7DD6AC8EC";
name = Light;
paths = (
{
closed = 1;
nodes = (
"69 317 LINE",
"64 276 LINE",
"296 276 LINE",
"301 317 LINE"
);
}
);
width = 363;
}
);
note = hyphen;
unicode = 002D;
},
{
glyphname = period;
layers = (
{
layerId = "18B4A443-2C69-4DCB-9619-77A7DD6AC8EC";
name = Light;
paths = (
{
closed = 1;
nodes = (
"55 25 OFFCURVE",
"59 15 OFFCURVE",
"67 6 CURVE SMOOTH",
"75 -3 OFFCURVE",
"85 -8 OFFCURVE",
"98 -8 CURVE SMOOTH",
"104 -8 OFFCURVE",
"110 -6 OFFCURVE",
"116 -4 CURVE SMOOTH",
"122 -2 OFFCURVE",
"127 2 OFFCURVE",
"132 6 CURVE SMOOTH",
"137 10 OFFCURVE",
"141 14 OFFCURVE",
"144 20 CURVE SMOOTH",
"147 26 OFFCURVE",
"149 31 OFFCURVE",
"150 38 CURVE SMOOTH",
"151 44 OFFCURVE",
"150 50 OFFCURVE",
"148 56 CURVE SMOOTH",
"146 62 OFFCURVE",
"144 67 OFFCURVE",
"140 71 CURVE SMOOTH",
"136 75 OFFCURVE",
"132 79 OFFCURVE",
"127 81 CURVE SMOOTH",
"122 83 OFFCURVE",
"115 85 OFFCURVE",
"109 85 CURVE SMOOTH",
"102 85 OFFCURVE",
"96 83 OFFCURVE",
"90 81 CURVE SMOOTH",
"84 79 OFFCURVE",
"80 75 OFFCURVE",
"75 71 CURVE SMOOTH",
"70 67 OFFCURVE",
"66 62 OFFCURVE",
"63 56 CURVE SMOOTH",
"60 50 OFFCURVE",
"58 44 OFFCURVE",
"57 38 CURVE SMOOTH"
);
}
);
width = 220;
}
);
note = period;
unicode = 002E;
},
{
glyphname = slash;
layers = (
{
layerId = "18B4A443-2C69-4DCB-9619-77A7DD6AC8EC";
name = Light;
paths = (
{
closed = 1;
nodes = (
"472 728 LINE",
"452 728 LINE SMOOTH",
"439 728 OFFCURVE",
"430 721 OFFCURVE",
"423 709 CURVE",
"20 -42 LINE",
"39 -42 LINE SMOOTH",
"45 -42 OFFCURVE",
"50 -40 OFFCURVE",
"56 -37 CURVE SMOOTH",
"62 -34 OFFCURVE",
"67 -29 OFFCURVE",
"70 -22 CURVE"
);
}
);
width = 493;
}
);
note = slash;
unicode = 002F;
},
{
glyphname = zero;
layers = (
{
layerId = "18B4A443-2C69-4DCB-9619-77A7DD6AC8EC";
name = Light;
paths = (
{
closed = 1;
nodes = (
"564 416 OFFCURVE",
"564 470 OFFCURVE",
"556 515 CURVE SMOOTH",
"548 560 OFFCURVE",
"534 598 OFFCURVE",
"515 628 CURVE SMOOTH",
"496 658 OFFCURVE",
"472 680 OFFCURVE",
"443 694 CURVE SMOOTH",
"414 708 OFFCURVE",
"382 716 OFFCURVE",
"347 716 CURVE SMOOTH",
"312 716 OFFCURVE",
"277 708 OFFCURVE",
"245 694 CURVE SMOOTH",
"213 680 OFFCURVE",
"184 658 OFFCURVE",
"157 628 CURVE SMOOTH",
"130 598 OFFCURVE",
"108 560 OFFCURVE",
"89 515 CURVE SMOOTH",
"70 470 OFFCURVE",
"57 416 OFFCURVE",
"49 354 CURVE SMOOTH",
"41 292 OFFCURVE",
"41 238 OFFCURVE",
"49 193 CURVE SMOOTH",
"57 148 OFFCURVE",
"71 110 OFFCURVE",
"90 80 CURVE SMOOTH",
"109 50 OFFCURVE",
"133 28 OFFCURVE",
"162 14 CURVE SMOOTH",
"191 0 OFFCURVE",
"223 -8 OFFCURVE",
"258 -8 CURVE SMOOTH",
"293 -8 OFFCURVE",
"326 0 OFFCURVE",
"359 14 CURVE SMOOTH",
"392 28 OFFCURVE",
"421 50 OFFCURVE",
"448 80 CURVE SMOOTH",
"475 110 OFFCURVE",
"497 148 OFFCURVE",
"516 193 CURVE SMOOTH",
"535 238 OFFCURVE",
"548 292 OFFCURVE",
"556 354 CURVE SMOOTH"
);
},
{
closed = 1;
nodes = (
"499 296 OFFCURVE",
"488 247 OFFCURVE",
"472 207 CURVE SMOOTH",
"456 167 OFFCURVE",
"437 133 OFFCURVE",
"415 107 CURVE SMOOTH",
"393 81 OFFCURVE",
"369 63 OFFCURVE",
"343 51 CURVE SMOOTH",
"317 39 OFFCURVE",
"290 33 OFFCURVE",
"263 33 CURVE SMOOTH",
"236 33 OFFCURVE",
"210 39 OFFCURVE",
"187 51 CURVE SMOOTH",
"164 63 OFFCURVE",
"144 81 OFFCURVE",
"129 107 CURVE SMOOTH",
"114 133 OFFCURVE",
"103 167 OFFCURVE",
"97 207 CURVE SMOOTH",
"91 247 OFFCURVE",
"91 296 OFFCURVE",
"98 354 CURVE SMOOTH",
"105 411 OFFCURVE",
"117 460 OFFCURVE",
"133 501 CURVE SMOOTH",
"149 542 OFFCURVE",
"168 575 OFFCURVE",
"190 601 CURVE SMOOTH",
"212 627 OFFCURVE",
"235 646 OFFCURVE",
"261 658 CURVE SMOOTH",
"287 670 OFFCURVE",
"315 676 OFFCURVE",
"342 676 CURVE SMOOTH",
"369 676 OFFCURVE",
"395 670 OFFCURVE",
"418 658 CURVE SMOOTH",
"441 646 OFFCURVE",
"461 627 OFFCURVE",
"476 601 CURVE SMOOTH",
"491 575 OFFCURVE",
"502 542 OFFCURVE",
"508 501 CURVE SMOOTH",
"514 460 OFFCURVE",
"513 411 OFFCURVE",
"506 354 CURVE SMOOTH"
);
}
);
width = 606;
}
);
note = zero;
unicode = 0030;
},
{
glyphname = one;
layers = (
{
layerId = "18B4A443-2C69-4DCB-9619-77A7DD6AC8EC";
name = Light;
paths = (
{
closed = 1;
nodes = (
"387 0 LINE",
"389 16 LINE SMOOTH",
"390 25 OFFCURVE",
"385 30 OFFCURVE",
"374 31 CURVE",
"367 31 OFFCURVE",
"322 34 OFFCURVE",
"237 38 CURVE",
"319 710 LINE",
"282 710 LINE",
"56 530 LINE",
"68 510 LINE",
"71 506 OFFCURVE",
"74 504 OFFCURVE",
"80 504 CURVE SMOOTH",
"85 504 OFFCURVE",
"88 505 OFFCURVE",
"92 508 CURVE SMOOTH",
"265 647 LINE",
"262 634 OFFCURVE",
"261 622 OFFCURVE",
"260 611 CURVE SMOOTH",
"189 38 LINE",
"189 38 OFFCURVE",
"177 37 OFFCURVE",
"154 36 CURVE SMOOTH",
"131 35 OFFCURVE",
"107 34 OFFCURVE",
"83 33 CURVE SMOOTH",
"59 32 OFFCURVE",
"45 31 OFFCURVE",
"42 31 CURVE",
"31 30 OFFCURVE",
"25 25 OFFCURVE",
"24 16 CURVE SMOOTH",
"22 0 LINE"
);
}
);
width = 414;
}
);
note = one;
unicode = 0031;
},
{
glyphname = two;
layers = (
{
layerId = "18B4A443-2C69-4DCB-9619-77A7DD6AC8EC";
name = Light;
paths = (
{
closed = 1;
nodes = (
"471 134 LINE SMOOTH",
"457 134 OFFCURVE",
"449 126 OFFCURVE",
"446 110 CURVE",
"446 109 OFFCURVE",
"445 106 OFFCURVE",
"444 102 CURVE SMOOTH",
"443 98 OFFCURVE",
"442 91 OFFCURVE",
"440 81 CURVE SMOOTH",
"438 71 OFFCURVE",
"436 60 OFFCURVE",
"433 45 CURVE",
"161 45 LINE SMOOTH",
"149 45 OFFCURVE",
"138 44 OFFCURVE",
"126 43 CURVE SMOOTH",
"114 42 OFFCURVE",
"103 40 OFFCURVE",
"92 37 CURVE",
"341 263 LINE SMOOTH",
"364 284 OFFCURVE",
"386 304 OFFCURVE",
"407 324 CURVE SMOOTH",
"428 344 OFFCURVE",
"446 364 OFFCURVE",
"463 385 CURVE SMOOTH",
"480 406 OFFCURVE",
"494 428 OFFCURVE",
"505 451 CURVE SMOOTH",
"516 474 OFFCURVE",
"523 498 OFFCURVE",
"526 525 CURVE SMOOTH",
"530 557 OFFCURVE",
"528 585 OFFCURVE",
"520 609 CURVE SMOOTH",
"512 633 OFFCURVE",
"500 652 OFFCURVE",
"483 668 CURVE SMOOTH",
"466 684 OFFCURVE",
"446 696 OFFCURVE",
"422 704 CURVE SMOOTH",
"398 712 OFFCURVE",
"373 715 OFFCURVE",
"346 715 CURVE SMOOTH",
"317 715 OFFCURVE",
"290 712 OFFCURVE",
"264 703 CURVE SMOOTH",
"238 694 OFFCURVE",
"214 681 OFFCURVE",
"193 665 CURVE SMOOTH",
"172 649 OFFCURVE",
"154 629 OFFCURVE",
"139 605 CURVE SMOOTH",
"124 581 OFFCURVE",
"112 554 OFFCURVE",
"104 524 CURVE",
"127 520 LINE",
"130 520 LINE",
"132 520 LINE SMOOTH",
"142 520 OFFCURVE",
"150 525 OFFCURVE",
"155 537 CURVE",
"161 557 OFFCURVE",
"169 576 OFFCURVE",
"181 593 CURVE SMOOTH",
"193 610 OFFCURVE",
"206 624 OFFCURVE",
"222 636 CURVE SMOOTH",
"238 648 OFFCURVE",
"256 658 OFFCURVE",
"276 665 CURVE SMOOTH",
"296 672 OFFCURVE",
"317 675 OFFCURVE",
"339 675 CURVE SMOOTH",
"360 675 OFFCURVE",
"379 672 OFFCURVE",
"397 666 CURVE SMOOTH",
"415 660 OFFCURVE",
"431 650 OFFCURVE",
"444 638 CURVE SMOOTH",
"457 626 OFFCURVE",
"467 610 OFFCURVE",
"473 591 CURVE SMOOTH",
"479 572 OFFCURVE",
"480 549 OFFCURVE",
"477 523 CURVE SMOOTH",
"474 500 OFFCURVE",
"469 478 OFFCURVE",
"459 458 CURVE SMOOTH",
"449 438 OFFCURVE",
"437 418 OFFCURVE",
"422 399 CURVE SMOOTH",
"407 380 OFFCURVE",
"389 360 OFFCURVE",
"370 341 CURVE SMOOTH",
"351 322 OFFCURVE",
"330 302 OFFCURVE",
"308 282 CURVE SMOOTH",
"36 38 LINE",
"33 35 OFFCURVE",
"30 32 OFFCURVE",
"28 28 CURVE SMOOTH",
"26 24 OFFCURVE",
"24 21 OFFCURVE",
"24 17 CURVE",
"22 0 LINE",
"478 0 LINE",
"481 21 LINE",
"482 28 LINE",
"495 134 LINE",
"490 134 LINE"
);
}
);
width = 563;
}
);
note = two;
unicode = 0032;
},
{
glyphname = three;
layers = (
{
layerId = "18B4A443-2C69-4DCB-9619-77A7DD6AC8EC";
name = Light;
paths = (
{
closed = 1;
nodes = (
"301 716 OFFCURVE",
"274 711 OFFCURVE",
"248 703 CURVE SMOOTH",
"222 695 OFFCURVE",
"198 682 OFFCURVE",
"177 666 CURVE SMOOTH",
"156 650 OFFCURVE",
"138 630 OFFCURVE",
"123 606 CURVE SMOOTH",
"108 582 OFFCURVE",
"96 554 OFFCURVE",
"88 524 CURVE",
"112 520 LINE",
"117 520 LINE SMOOTH",
"127 520 OFFCURVE",
"134 526 OFFCURVE",
"138 538 CURVE SMOOTH",
"145 559 OFFCURVE",
"154 577 OFFCURVE",
"166 594 CURVE SMOOTH",
"178 611 OFFCURVE",
"191 625 OFFCURVE",
"207 637 CURVE SMOOTH",
"223 649 OFFCURVE",
"241 658 OFFCURVE",
"260 665 CURVE SMOOTH",
"279 672 OFFCURVE",
"301 675 OFFCURVE",
"323 675 CURVE SMOOTH",
"343 675 OFFCURVE",
"363 672 OFFCURVE",
"381 666 CURVE SMOOTH",
"399 660 OFFCURVE",
"413 652 OFFCURVE",
"426 640 CURVE SMOOTH",
"439 628 OFFCURVE",
"448 612 OFFCURVE",
"454 594 CURVE SMOOTH",
"460 576 OFFCURVE",
"462 554 OFFCURVE",
"459 529 CURVE SMOOTH",
"456 507 OFFCURVE",
"449 488 OFFCURVE",
"439 470 CURVE SMOOTH",
"429 452 OFFCURVE",
"415 436 OFFCURVE",
"398 423 CURVE SMOOTH",
"381 410 OFFCURVE",
"360 401 OFFCURVE",
"336 393 CURVE SMOOTH",
"312 385 OFFCURVE",
"284 381 OFFCURVE",
"253 380 CURVE",
"249 346 LINE",
"287 346 OFFCURVE",
"320 342 OFFCURVE",
"345 334 CURVE SMOOTH",
"370 326 OFFCURVE",
"390 316 OFFCURVE",
"404 302 CURVE SMOOTH",
"418 288 OFFCURVE",
"427 273 OFFCURVE",
"432 254 CURVE SMOOTH",
"437 235 OFFCURVE",
"438 215 OFFCURVE",
"435 193 CURVE SMOOTH",
"433 175 OFFCURVE",
"427 157 OFFCURVE",
"417 138 CURVE SMOOTH",
"407 119 OFFCURVE",
"394 102 OFFCURVE",
"377 86 CURVE SMOOTH",
"360 70 OFFCURVE",
"339 57 OFFCURVE",
"315 47 CURVE SMOOTH",
"291 37 OFFCURVE",
"265 32 OFFCURVE",
"235 32 CURVE SMOOTH",
"213 32 OFFCURVE",
"193 34 OFFCURVE",
"177 39 CURVE SMOOTH",
"161 44 OFFCURVE",
"148 50 OFFCURVE",
"136 58 CURVE SMOOTH",
"124 66 OFFCURVE",
"115 73 OFFCURVE",
"107 83 CURVE SMOOTH",
"99 93 OFFCURVE",
"94 102 OFFCURVE",
"89 112 CURVE SMOOTH",
"84 122 OFFCURVE",
"81 130 OFFCURVE",
"78 139 CURVE SMOOTH",
"75 148 OFFCURVE",
"73 155 OFFCURVE",
"72 161 CURVE SMOOTH",
"70 171 LINE SMOOTH",
"69 176 OFFCURVE",
"66 179 OFFCURVE",
"63 181 CURVE SMOOTH",
"60 183 OFFCURVE",
"57 183 OFFCURVE",
"53 183 CURVE SMOOTH",
"49 183 OFFCURVE",
"45 183 OFFCURVE",
"41 181 CURVE",
"22 173 LINE",
"25 152 OFFCURVE",
"30 131 OFFCURVE",
"37 109 CURVE SMOOTH",
"44 87 OFFCURVE",
"55 67 OFFCURVE",
"70 50 CURVE SMOOTH",
"85 33 OFFCURVE",
"106 19 OFFCURVE",
"132 8 CURVE SMOOTH",
"158 -3 OFFCURVE",
"190 -8 OFFCURVE",
"230 -8 CURVE SMOOTH",
"262 -8 OFFCURVE",
"293 -3 OFFCURVE",
"322 7 CURVE SMOOTH",
"351 17 OFFCURVE",
"376 31 OFFCURVE",
"399 49 CURVE SMOOTH",
"422 67 OFFCURVE",
"440 89 OFFCURVE",
"455 114 CURVE SMOOTH",
"470 139 OFFCURVE",
"479 165 OFFCURVE",
"483 194 CURVE SMOOTH",
"489 240 OFFCURVE",
"480 279 OFFCURVE",
"457 309 CURVE SMOOTH",
"434 339 OFFCURVE",
"397 359 OFFCURVE",
"346 369 CURVE",
"367 374 OFFCURVE",
"386 381 OFFCURVE",
"404 391 CURVE SMOOTH",
"422 401 OFFCURVE",
"439 412 OFFCURVE",
"453 426 CURVE SMOOTH",
"467 440 OFFCURVE",
"479 457 OFFCURVE",
"488 475 CURVE SMOOTH",
"497 493 OFFCURVE",
"504 514 OFFCURVE",
"507 537 CURVE SMOOTH",
"511 566 OFFCURVE",
"508 592 OFFCURVE",
"500 614 CURVE SMOOTH",
"492 636 OFFCURVE",
"480 655 OFFCURVE",
"464 670 CURVE SMOOTH",
"448 685 OFFCURVE",
"428 696 OFFCURVE",
"405 704 CURVE SMOOTH",
"382 712 OFFCURVE",
"357 716 OFFCURVE",
"330 716 CURVE SMOOTH"
);
}
);
width = 548;
}
);
note = three;
unicode = 0033;
},
{
glyphname = four;
layers = (
{
layerId = "18B4A443-2C69-4DCB-9619-77A7DD6AC8EC";
name = Light;
paths = (
{
closed = 1;
nodes = (
"424 241 LINE",
"481 708 LINE",
"439 708 LINE",
"26 238 LINE",
"27 215 LINE",
"28 211 OFFCURVE",
"30 208 OFFCURVE",
"32 206 CURVE SMOOTH",
"34 204 OFFCURVE",
"38 203 OFFCURVE",
"43 203 CURVE SMOOTH",
"376 203 LINE",
"351 0 LINE",
"394 0 LINE",
"419 203 LINE",
"535 203 LINE SMOOTH",
"540 203 OFFCURVE",
"544 204 OFFCURVE",
"546 206 CURVE SMOOTH",
"548 208 OFFCURVE",
"550 211 OFFCURVE",
"550 215 CURVE",
"553 241 LINE"
);
},
{
closed = 1;
nodes = (
"426 612 LINE",
"381 241 LINE",
"78 241 LINE",
"433 649 LINE",
"431 642 OFFCURVE",
"430 636 OFFCURVE",
"429 630 CURVE SMOOTH"
);
}
);
width = 579;
}
);
note = four;
unicode = 0034;
},
{
glyphname = five;
layers = (
{
layerId = "18B4A443-2C69-4DCB-9619-77A7DD6AC8EC";
name = Light;
paths = (
{
closed = 1;
nodes = (
"510 708 LINE",
"192 708 LINE",
"98 394 LINE",
"127 384 LINE",
"152 391 OFFCURVE",
"175 396 OFFCURVE",
"197 399 CURVE SMOOTH",
"219 402 OFFCURVE",
"239 404 OFFCURVE",
"258 404 CURVE SMOOTH",
"289 404 OFFCURVE",
"316 399 OFFCURVE",
"338 391 CURVE SMOOTH",
"360 383 OFFCURVE",
"379 370 OFFCURVE",
"392 355 CURVE SMOOTH",
"405 340 OFFCURVE",
"414 321 OFFCURVE",
"419 300 CURVE SMOOTH",
"424 279 OFFCURVE",
"425 255 OFFCURVE",
"422 230 CURVE SMOOTH",
"418 199 OFFCURVE",
"410 171 OFFCURVE",
"397 147 CURVE SMOOTH",
"384 123 OFFCURVE",
"368 103 OFFCURVE",
"348 86 CURVE SMOOTH",
"328 69 OFFCURVE",
"307 56 OFFCURVE",
"282 47 CURVE SMOOTH",
"257 38 OFFCURVE",
"230 34 OFFCURVE",
"203 34 CURVE SMOOTH",
"180 34 OFFCURVE",
"160 37 OFFCURVE",
"143 42 CURVE SMOOTH",
"126 47 OFFCURVE",
"112 52 OFFCURVE",
"100 58 CURVE SMOOTH",
"88 64 OFFCURVE",
"78 69 OFFCURVE",
"70 74 CURVE SMOOTH",
"62 79 OFFCURVE",
"56 82 OFFCURVE",
"52 82 CURVE SMOOTH",
"46 82 OFFCURVE",
"41 79 OFFCURVE",
"37 74 CURVE",
"20 55 LINE",
"29 47 OFFCURVE",
"40 40 OFFCURVE",
"52 32 CURVE SMOOTH",
"64 24 OFFCURVE",
"78 17 OFFCURVE",
"93 11 CURVE SMOOTH",
"108 5 OFFCURVE",
"124 1 OFFCURVE",
"141 -3 CURVE SMOOTH",
"158 -7 OFFCURVE",
"176 -8 OFFCURVE",
"196 -8 CURVE SMOOTH",
"229 -8 OFFCURVE",
"262 -3 OFFCURVE",
"293 8 CURVE SMOOTH",
"324 19 OFFCURVE",
"351 35 OFFCURVE",
"376 56 CURVE SMOOTH",
"401 77 OFFCURVE",
"421 101 OFFCURVE",
"438 131 CURVE SMOOTH",
"455 161 OFFCURVE",
"465 195 OFFCURVE",
"470 232 CURVE SMOOTH",
"474 263 OFFCURVE",
"472 290 OFFCURVE",
"466 316 CURVE SMOOTH",
"460 342 OFFCURVE",
"449 365 OFFCURVE",
"432 384 CURVE SMOOTH",
"415 403 OFFCURVE",
"394 418 OFFCURVE",
"367 428 CURVE SMOOTH",
"340 438 OFFCURVE",
"309 444 OFFCURVE",
"272 444 CURVE SMOOTH",
"254 444 OFFCURVE",
"234 442 OFFCURVE",
"214 440 CURVE SMOOTH",
"194 438 OFFCURVE",
"172 434 OFFCURVE",
"149 428 CURVE",
"220 664 LINE",
"476 664 LINE SMOOTH",
"486 664 OFFCURVE",
"493 666 OFFCURVE",
"498 670 CURVE SMOOTH",
"503 674 OFFCURVE",
"506 680 OFFCURVE",
"507 687 CURVE SMOOTH"
);
}
);
width = 538;
}
);
note = five;
unicode = 0035;
},
{
glyphname = six;
layers = (
{
layerId = "18B4A443-2C69-4DCB-9619-77A7DD6AC8EC";
name = Light;
paths = (
{
closed = 1;
nodes = (
"272 423 OFFCURVE",
"242 418 OFFCURVE",
"214 406 CURVE SMOOTH",
"186 394 OFFCURVE",
"160 378 OFFCURVE",
"138 358 CURVE",
"146 370 OFFCURVE",
"156 382 OFFCURVE",
"166 394 CURVE SMOOTH",
"176 406 OFFCURVE",
"187 418 OFFCURVE",
"199 432 CURVE SMOOTH",
"444 708 LINE",
"402 708 LINE SMOOTH",
"391 708 OFFCURVE",
"382 704 OFFCURVE",
"375 696 CURVE SMOOTH",
"150 436 LINE SMOOTH",
"113 393 OFFCURVE",
"85 354 OFFCURVE",
"67 319 CURVE SMOOTH",
"49 284 OFFCURVE",
"37 253 OFFCURVE",
"34 225 CURVE SMOOTH",
"30 189 OFFCURVE",
"31 156 OFFCURVE",
"38 127 CURVE SMOOTH",
"45 98 OFFCURVE",
"57 74 OFFCURVE",
"74 54 CURVE SMOOTH",
"91 34 OFFCURVE",
"113 19 OFFCURVE",
"139 8 CURVE SMOOTH",
"165 -3 OFFCURVE",
"194 -8 OFFCURVE",
"227 -8 CURVE SMOOTH",
"261 -8 OFFCURVE",
"294 -3 OFFCURVE",
"324 8 CURVE SMOOTH",
"354 19 OFFCURVE",
"380 34 OFFCURVE",
"403 54 CURVE SMOOTH",
"426 74 OFFCURVE",
"445 97 OFFCURVE",
"460 124 CURVE SMOOTH",
"475 151 OFFCURVE",
"484 181 OFFCURVE",
"488 213 CURVE SMOOTH",
"492 245 OFFCURVE",
"490 274 OFFCURVE",
"483 300 CURVE SMOOTH",
"476 326 OFFCURVE",
"464 348 OFFCURVE",
"448 366 CURVE SMOOTH",
"432 384 OFFCURVE",
"411 398 OFFCURVE",
"387 408 CURVE SMOOTH",
"363 418 OFFCURVE",
"334 423 OFFCURVE",
"304 423 CURVE SMOOTH"
);
},
{
closed = 1;
nodes = (
"82 235 OFFCURVE",
"88 255 OFFCURVE",
"99 276 CURVE SMOOTH",
"110 297 OFFCURVE",
"125 315 OFFCURVE",
"143 331 CURVE SMOOTH",
"161 347 OFFCURVE",
"182 361 OFFCURVE",
"206 371 CURVE SMOOTH",
"230 381 OFFCURVE",
"258 386 OFFCURVE",
"287 386 CURVE SMOOTH",
"313 386 OFFCURVE",
"336 382 OFFCURVE",
"356 374 CURVE SMOOTH",
"376 366 OFFCURVE",
"393 354 OFFCURVE",
"407 339 CURVE SMOOTH",
"421 324 OFFCURVE",
"430 305 OFFCURVE",
"436 283 CURVE SMOOTH",
"442 261 OFFCURVE",
"443 237 OFFCURVE",
"440 210 CURVE SMOOTH",
"437 184 OFFCURVE",
"429 161 OFFCURVE",
"418 139 CURVE SMOOTH",
"407 117 OFFCURVE",
"392 98 OFFCURVE",
"374 82 CURVE SMOOTH",
"356 66 OFFCURVE",
"335 54 OFFCURVE",
"311 45 CURVE SMOOTH",
"287 36 OFFCURVE",
"261 32 OFFCURVE",
"232 32 CURVE SMOOTH",
"205 32 OFFCURVE",
"181 36 OFFCURVE",
"160 45 CURVE SMOOTH",
"139 54 OFFCURVE",
"123 67 OFFCURVE",
"110 83 CURVE SMOOTH",
"97 99 OFFCURVE",
"87 118 OFFCURVE",
"82 140 CURVE SMOOTH",
"77 162 OFFCURVE",
"76 188 OFFCURVE",
"79 214 CURVE SMOOTH"
);
}
);
width = 527;
}
);
note = six;
unicode = 0036;
},
{
glyphname = seven;
layers = (
{
layerId = "18B4A443-2C69-4DCB-9619-77A7DD6AC8EC";
name = Light;
paths = (
{
closed = 1;
nodes = (
"112 707 LINE",
"61 707 LINE",
"57 677 LINE",
"44 573 LINE",
"68 573 LINE SMOOTH",
"82 573 OFFCURVE",
"90 581 OFFCURVE",
"93 597 CURVE SMOOTH",
"94 603 OFFCURVE",
"97 626 OFFCURVE",
"104 664 CURVE",
"476 664 LINE",
"469 657 OFFCURVE",
"463 649 OFFCURVE",
"458 640 CURVE",
"53 0 LINE",
"85 0 LINE SMOOTH",
"92 0 OFFCURVE",
"99 2 OFFCURVE",
"104 5 CURVE SMOOTH",
"109 8 OFFCURVE",
"113 13 OFFCURVE",
"116 18 CURVE SMOOTH",
"519 661 LINE SMOOTH",
"521 664 OFFCURVE",
"523 667 OFFCURVE",
"525 671 CURVE SMOOTH",
"527 675 OFFCURVE",
"527 680 OFFCURVE",
"528 686 CURVE SMOOTH",
"531 708 LINE"
);
}
);
width = 557;
}
);
note = seven;
unicode = 0037;
},
{
glyphname = eight;
layers = (
{
layerId = "18B4A443-2C69-4DCB-9619-77A7DD6AC8EC";
name = Light;
paths = (
{
closed = 1;
nodes = (
"270 -8 OFFCURVE",
"302 -3 OFFCURVE",
"331 6 CURVE SMOOTH",
"360 15 OFFCURVE",
"386 27 OFFCURVE",
"408 44 CURVE SMOOTH",
"430 61 OFFCURVE",
"449 82 OFFCURVE",
"463 106 CURVE SMOOTH",
"477 130 OFFCURVE",
"486 157 OFFCURVE",
"490 187 CURVE SMOOTH",
"493 213 OFFCURVE",
"492 236 OFFCURVE",
"487 256 CURVE SMOOTH",
"482 276 OFFCURVE",
"474 295 OFFCURVE",
"462 310 CURVE SMOOTH",
"450 325 OFFCURVE",
"436 337 OFFCURVE",
"418 347 CURVE SMOOTH",
"400 357 OFFCURVE",
"380 365 OFFCURVE",
"358 370 CURVE",
"379 376 OFFCURVE",
"399 384 OFFCURVE",
"416 394 CURVE SMOOTH",
"433 404 OFFCURVE",
"448 417 OFFCURVE",
"461 431 CURVE SMOOTH",
"474 445 OFFCURVE",
"484 461 OFFCURVE",
"492 479 CURVE SMOOTH",
"500 497 OFFCURVE",
"505 515 OFFCURVE",
"507 535 CURVE SMOOTH",
"510 560 OFFCURVE",
"509 584 OFFCURVE",
"502 606 CURVE SMOOTH",
"495 628 OFFCURVE",
"484 647 OFFCURVE",
"468 663 CURVE SMOOTH",
"452 679 OFFCURVE",
"432 693 OFFCURVE",
"408 702 CURVE SMOOTH",
"384 711 OFFCURVE",
"356 716 OFFCURVE",
"325 716 CURVE SMOOTH",
"293 716 OFFCURVE",
"264 711 OFFCURVE",
"238 702 CURVE SMOOTH",
"212 693 OFFCURVE",
"189 679 OFFCURVE",
"169 663 CURVE SMOOTH",
"149 647 OFFCURVE",
"133 628 OFFCURVE",
"121 606 CURVE SMOOTH",
"109 584 OFFCURVE",
"101 560 OFFCURVE",
"98 535 CURVE SMOOTH",
"96 515 OFFCURVE",
"96 497 OFFCURVE",
"100 479 CURVE SMOOTH",
"104 461 OFFCURVE",
"110 445 OFFCURVE",
"119 431 CURVE SMOOTH",
"128 417 OFFCURVE",
"140 404 OFFCURVE",
"155 394 CURVE SMOOTH",
"170 384 OFFCURVE",
"187 376 OFFCURVE",
"207 370 CURVE",
"184 365 OFFCURVE",
"162 357 OFFCURVE",
"142 347 CURVE SMOOTH",
"122 337 OFFCURVE",
"104 325 OFFCURVE",
"88 310 CURVE SMOOTH",
"72 295 OFFCURVE",
"60 276 OFFCURVE",
"50 256 CURVE SMOOTH",
"40 236 OFFCURVE",
"33 213 OFFCURVE",
"30 187 CURVE SMOOTH",
"26 157 OFFCURVE",
"29 130 OFFCURVE",
"37 106 CURVE SMOOTH",
"45 82 OFFCURVE",
"59 61 OFFCURVE",
"77 44 CURVE SMOOTH",
"95 27 OFFCURVE",
"118 15 OFFCURVE",
"145 6 CURVE SMOOTH",
"172 -3 OFFCURVE",
"202 -8 OFFCURVE",
"236 -8 CURVE SMOOTH"
);
},
{
closed = 1;
nodes = (
"214 30 OFFCURVE",
"189 33 OFFCURVE",
"168 41 CURVE SMOOTH",
"147 49 OFFCURVE",
"129 59 OFFCURVE",
"115 73 CURVE SMOOTH",
"101 87 OFFCURVE",
"90 104 OFFCURVE",
"84 123 CURVE SMOOTH",
"78 142 OFFCURVE",
"76 164 OFFCURVE",
"79 188 CURVE SMOOTH",
"83 219 OFFCURVE",
"92 244 OFFCURVE",
"106 265 CURVE SMOOTH",
"120 286 OFFCURVE",
"136 302 OFFCURVE",
"155 314 CURVE SMOOTH",
"174 326 OFFCURVE",
"195 336 OFFCURVE",
"217 341 CURVE SMOOTH",
"239 346 OFFCURVE",
"260 348 OFFCURVE",
"280 348 CURVE SMOOTH",
"300 348 OFFCURVE",
"320 346 OFFCURVE",
"341 341 CURVE SMOOTH",
"362 336 OFFCURVE",
"380 326 OFFCURVE",
"396 314 CURVE SMOOTH",
"412 302 OFFCURVE",
"425 286 OFFCURVE",
"434 265 CURVE SMOOTH",
"443 244 OFFCURVE",
"445 219 OFFCURVE",
"441 188 CURVE SMOOTH",
"438 164 OFFCURVE",
"431 142 OFFCURVE",
"420 123 CURVE SMOOTH",
"409 104 OFFCURVE",
"395 87 OFFCURVE",
"377 73 CURVE SMOOTH",
"359 59 OFFCURVE",
"339 49 OFFCURVE",
"316 41 CURVE SMOOTH",
"293 33 OFFCURVE",
"268 30 OFFCURVE",
"241 30 CURVE SMOOTH"
);
},
{
closed = 1;
nodes = (
"258 387 OFFCURVE",
"234 391 OFFCURVE",
"215 399 CURVE SMOOTH",
"196 407 OFFCURVE",
"181 418 OFFCURVE",
"170 432 CURVE SMOOTH",
"159 446 OFFCURVE",
"151 462 OFFCURVE",
"147 480 CURVE SMOOTH",
"143 498 OFFCURVE",
"143 515 OFFCURVE",
"145 534 CURVE SMOOTH",
"147 554 OFFCURVE",
"153 573 OFFCURVE",
"162 591 CURVE SMOOTH",
"171 609 OFFCURVE",
"184 624 OFFCURVE",
"199 637 CURVE SMOOTH",
"214 650 OFFCURVE",
"231 660 OFFCURVE",
"252 667 CURVE SMOOTH",
"273 674 OFFCURVE",
"296 678 OFFCURVE",
"321 678 CURVE SMOOTH",
"346 678 OFFCURVE",
"367 674 OFFCURVE",
"386 667 CURVE SMOOTH",
"405 660 OFFCURVE",
"420 650 OFFCURVE",
"432 637 CURVE SMOOTH",
"444 624 OFFCURVE",
"452 609 OFFCURVE",
"457 591 CURVE SMOOTH",
"462 573 OFFCURVE",
"462 554 OFFCURVE",
"460 534 CURVE SMOOTH",
"458 515 OFFCURVE",
"452 497 OFFCURVE",
"444 479 CURVE SMOOTH",
"436 461 OFFCURVE",
"425 446 OFFCURVE",
"410 432 CURVE SMOOTH",
"395 418 OFFCURVE",
"377 407 OFFCURVE",
"356 399 CURVE SMOOTH",
"335 391 OFFCURVE",
"312 387 OFFCURVE",
"285 387 CURVE SMOOTH"
);
}
);
width = 551;
}
);
note = eight;
unicode = 0038;
},
{
glyphname = nine;
layers = (
{
layerId = "18B4A443-2C69-4DCB-9619-77A7DD6AC8EC";
name = Light;
paths = (
{
closed = 1;
nodes = (
"251 301 OFFCURVE",
"282 306 OFFCURVE",
"311 318 CURVE SMOOTH",
"340 330 OFFCURVE",
"365 347 OFFCURVE",
"387 368 CURVE",
"379 356 OFFCURVE",
"369 344 OFFCURVE",
"359 332 CURVE SMOOTH",
"349 320 OFFCURVE",
"339 306 OFFCURVE",
"327 292 CURVE SMOOTH",
"82 0 LINE",
"125 0 LINE SMOOTH",
"136 0 OFFCURVE",
"145 4 OFFCURVE",
"151 12 CURVE SMOOTH",
"370 284 LINE SMOOTH",
"386 304 OFFCURVE",
"400 322 OFFCURVE",
"413 340 CURVE SMOOTH",
"426 358 OFFCURVE",
"436 374 OFFCURVE",
"446 391 CURVE SMOOTH",
"456 408 OFFCURVE",
"464 424 OFFCURVE",
"470 441 CURVE SMOOTH",
"476 458 OFFCURVE",
"480 476 OFFCURVE",
"482 494 CURVE SMOOTH",
"486 527 OFFCURVE",
"484 557 OFFCURVE",
"477 584 CURVE SMOOTH",
"470 611 OFFCURVE",
"458 634 OFFCURVE",
"442 654 CURVE SMOOTH",
"426 674 OFFCURVE",
"405 689 OFFCURVE",
"380 700 CURVE SMOOTH",
"355 711 OFFCURVE",
"327 716 OFFCURVE",
"296 716 CURVE SMOOTH",
"263 716 OFFCURVE",
"232 710 OFFCURVE",
"203 699 CURVE SMOOTH",
"174 688 OFFCURVE",
"149 673 OFFCURVE",
"127 654 CURVE SMOOTH",
"105 635 OFFCURVE",
"86 613 OFFCURVE",
"72 587 CURVE SMOOTH",
"58 561 OFFCURVE",
"48 533 OFFCURVE",
"44 503 CURVE SMOOTH",
"40 472 OFFCURVE",
"42 445 OFFCURVE",
"49 420 CURVE SMOOTH",
"56 395 OFFCURVE",
"67 374 OFFCURVE",
"83 356 CURVE SMOOTH",
"99 338 OFFCURVE",
"119 325 OFFCURVE",
"142 315 CURVE SMOOTH",
"165 305 OFFCURVE",
"191 301 OFFCURVE",
"220 301 CURVE SMOOTH"
);
},
{
closed = 1;
nodes = (
"435 482 OFFCURVE",
"428 463 OFFCURVE",
"418 443 CURVE SMOOTH",
"408 423 OFFCURVE",
"394 406 OFFCURVE",
"377 390 CURVE SMOOTH",
"360 374 OFFCURVE",
"339 362 OFFCURVE",
"316 352 CURVE SMOOTH",
"293 342 OFFCURVE",
"266 338 OFFCURVE",
"238 338 CURVE SMOOTH",
"213 338 OFFCURVE",
"191 342 OFFCURVE",
"171 350 CURVE SMOOTH",
"151 358 OFFCURVE",
"136 369 OFFCURVE",
"123 383 CURVE SMOOTH",
"110 397 OFFCURVE",
"101 415 OFFCURVE",
"96 436 CURVE SMOOTH",
"91 457 OFFCURVE",
"89 480 OFFCURVE",
"92 506 CURVE SMOOTH",
"95 531 OFFCURVE",
"103 554 OFFCURVE",
"114 575 CURVE SMOOTH",
"125 596 OFFCURVE",
"140 613 OFFCURVE",
"157 628 CURVE SMOOTH",
"174 643 OFFCURVE",
"194 656 OFFCURVE",
"217 664 CURVE SMOOTH",
"240 672 OFFCURVE",
"264 676 OFFCURVE",
"290 676 CURVE SMOOTH",
"314 676 OFFCURVE",
"337 671 OFFCURVE",
"356 663 CURVE SMOOTH",
"375 655 OFFCURVE",
"392 643 OFFCURVE",
"405 628 CURVE SMOOTH",
"418 613 OFFCURVE",
"427 594 OFFCURVE",
"433 573 CURVE SMOOTH",
"439 552 OFFCURVE",
"440 528 OFFCURVE",
"437 502 CURVE SMOOTH"
);
}
);
width = 517;
}
);
note = nine;
unicode = 0039;
},
{
glyphname = colon;
layers = (
{
layerId = "18B4A443-2C69-4DCB-9619-77A7DD6AC8EC";
name = Light;
paths = (
{
closed = 1;
nodes = (
"43 25 OFFCURVE",
"47 15 OFFCURVE",
"55 6 CURVE SMOOTH",
"63 -3 OFFCURVE",
"73 -8 OFFCURVE",
"86 -8 CURVE SMOOTH",
"92 -8 OFFCURVE",
"98 -6 OFFCURVE",
"104 -4 CURVE SMOOTH",
"110 -2 OFFCURVE",
"115 2 OFFCURVE",
"120 6 CURVE SMOOTH",
"125 10 OFFCURVE",
"129 14 OFFCURVE",
"132 20 CURVE SMOOTH",
"135 26 OFFCURVE",
"137 31 OFFCURVE",
"138 38 CURVE SMOOTH",
"139 44 OFFCURVE",
"138 50 OFFCURVE",
"136 56 CURVE SMOOTH",
"134 62 OFFCURVE",
"132 67 OFFCURVE",
"128 71 CURVE SMOOTH",
"124 75 OFFCURVE",
"120 79 OFFCURVE",
"115 81 CURVE SMOOTH",
"110 83 OFFCURVE",
"103 85 OFFCURVE",
"97 85 CURVE SMOOTH",
"90 85 OFFCURVE",
"84 83 OFFCURVE",
"78 81 CURVE SMOOTH",
"72 79 OFFCURVE",
"68 75 OFFCURVE",
"63 71 CURVE SMOOTH",
"58 67 OFFCURVE",
"54 62 OFFCURVE",
"51 56 CURVE SMOOTH",
"48 50 OFFCURVE",
"46 44 OFFCURVE",
"45 38 CURVE SMOOTH"
);
},
{
closed = 1;
nodes = (
"92 424 OFFCURVE",
"96 413 OFFCURVE",
"104 404 CURVE SMOOTH",
"112 395 OFFCURVE",
"122 391 OFFCURVE",
"135 391 CURVE SMOOTH",
"141 391 OFFCURVE",
"147 392 OFFCURVE",
"153 394 CURVE SMOOTH",
"159 396 OFFCURVE",
"164 400 OFFCURVE",
"169 404 CURVE SMOOTH",
"174 408 OFFCURVE",
"178 413 OFFCURVE",
"181 419 CURVE",
"184 424 OFFCURVE",
"186 430 OFFCURVE",
"187 437 CURVE SMOOTH",
"188 443 OFFCURVE",
"187 449 OFFCURVE",
"185 455 CURVE SMOOTH",
"183 461 OFFCURVE",
"181 466 OFFCURVE",
"177 470 CURVE SMOOTH",
"173 474 OFFCURVE",
"169 477 OFFCURVE",
"164 480 CURVE",
"159 482 OFFCURVE",
"152 484 OFFCURVE",
"146 484 CURVE SMOOTH",
"139 484 OFFCURVE",
"133 482 OFFCURVE",
"127 480 CURVE SMOOTH",
"121 478 OFFCURVE",
"117 474 OFFCURVE",
"112 470 CURVE SMOOTH",
"107 466 OFFCURVE",
"103 461 OFFCURVE",
"100 455 CURVE SMOOTH",
"97 449 OFFCURVE",
"95 443 OFFCURVE",
"94 437 CURVE SMOOTH"
);
}
);
width = 235;
}
);
note = colon;
unicode = 003A;
},
{
glyphname = semicolon;
layers = (
{
layerId = "18B4A443-2C69-4DCB-9619-77A7DD6AC8EC";
name = Light;
paths = (
{
closed = 1;
nodes = (
"101 424 OFFCURVE",
"105 413 OFFCURVE",
"113 404 CURVE SMOOTH",
"121 395 OFFCURVE",
"131 391 OFFCURVE",
"144 391 CURVE SMOOTH",
"150 391 OFFCURVE",
"156 392 OFFCURVE",
"162 394 CURVE SMOOTH",
"168 396 OFFCURVE",
"173 400 OFFCURVE",
"178 404 CURVE SMOOTH",
"183 408 OFFCURVE",
"187 413 OFFCURVE",
"190 419 CURVE",
"193 424 OFFCURVE",
"195 430 OFFCURVE",
"196 437 CURVE SMOOTH",
"197 443 OFFCURVE",
"196 449 OFFCURVE",
"194 455 CURVE SMOOTH",
"192 461 OFFCURVE",
"190 466 OFFCURVE",
"186 470 CURVE SMOOTH",
"182 474 OFFCURVE",
"178 477 OFFCURVE",
"173 480 CURVE",
"168 482 OFFCURVE",
"161 484 OFFCURVE",
"155 484 CURVE SMOOTH",
"148 484 OFFCURVE",
"142 482 OFFCURVE",
"136 480 CURVE SMOOTH",
"130 478 OFFCURVE",
"126 474 OFFCURVE",
"121 470 CURVE SMOOTH",
"116 466 OFFCURVE",
"112 461 OFFCURVE",
"109 455 CURVE SMOOTH",
"106 449 OFFCURVE",
"104 443 OFFCURVE",
"103 437 CURVE SMOOTH"
);
},
{
closed = 1;
nodes = (
"55 30 OFFCURVE",
"58 19 OFFCURVE",
"65 11 CURVE SMOOTH",
"72 3 OFFCURVE",
"82 -2 OFFCURVE",
"94 -2 CURVE SMOOTH",
"97 -2 OFFCURVE",
"99 -1 OFFCURVE",
"102 -1 CURVE SMOOTH",
"105 -1 OFFCURVE",
"107 -1 OFFCURVE",
"109 0 CURVE",
"106 -12 OFFCURVE",
"102 -23 OFFCURVE",
"97 -34 CURVE SMOOTH",
"92 -45 OFFCURVE",
"85 -54 OFFCURVE",
"79 -63 CURVE SMOOTH",
"73 -72 OFFCURVE",
"67 -80 OFFCURVE",
"61 -86 CURVE SMOOTH",
"55 -92 OFFCURVE",
"50 -98 OFFCURVE",
"46 -101 CURVE",
"45 -102 OFFCURVE",
"43 -103 OFFCURVE",
"42 -105 CURVE SMOOTH",
"41 -107 OFFCURVE",
"40 -108 OFFCURVE",
"40 -110 CURVE SMOOTH",
"40 -113 OFFCURVE",
"41 -116 OFFCURVE",
"43 -119 CURVE",
"50 -126 LINE",
"63 -115 OFFCURVE",
"74 -104 OFFCURVE",
"85 -91 CURVE SMOOTH",
"96 -78 OFFCURVE",
"106 -66 OFFCURVE",
"114 -52 CURVE SMOOTH",
"122 -38 OFFCURVE",
"129 -24 OFFCURVE",
"134 -10 CURVE SMOOTH",
"139 4 OFFCURVE",
"143 18 OFFCURVE",
"145 32 CURVE SMOOTH",
"147 48 OFFCURVE",
"145 60 OFFCURVE",
"138 70 CURVE SMOOTH",
"131 80 OFFCURVE",
"120 85 OFFCURVE",
"106 85 CURVE SMOOTH",
"93 85 OFFCURVE",
"82 80 OFFCURVE",
"73 72 CURVE SMOOTH",
"64 64 OFFCURVE",
"58 55 OFFCURVE",
"57 43 CURVE"
);
}
);
width = 243;
}
);
note = semicolon;
unicode = 003B;
},
{
glyphname = less;
layers = (
{
layerId = "18B4A443-2C69-4DCB-9619-77A7DD6AC8EC";
name = Light;
paths = (
{
closed = 1;
nodes = (
"45 346 LINE",
"42 326 LINE",
"393 132 LINE",
"397 165 LINE",
"397 169 OFFCURVE",
"397 171 OFFCURVE",
"395 174 CURVE SMOOTH",
"393 177 OFFCURVE",
"391 179 OFFCURVE",
"386 182 CURVE",
"127 323 LINE SMOOTH",
"118 328 OFFCURVE",
"106 332 OFFCURVE",
"92 335 CURVE",
"105 338 OFFCURVE",
"118 342 OFFCURVE",
"130 348 CURVE SMOOTH",
"424 488 LINE",
"429 491 OFFCURVE",
"433 493 OFFCURVE",
"435 496 CURVE SMOOTH",
"437 499 OFFCURVE",
"439 502 OFFCURVE",
"439 506 CURVE",
"443 538 LINE"
);
}
);
width = 482;
}
);
note = less;
unicode = 003C;
},
{
glyphname = equal;
layers = (
{
layerId = "18B4A443-2C69-4DCB-9619-77A7DD6AC8EC";
name = Light;
paths = (
{
closed = 1;
nodes = (
"65 278 LINE",
"60 241 LINE",
"474 241 LINE",
"478 278 LINE"
);
},
{
closed = 1;
nodes = (
"84 434 LINE",
"79 398 LINE",
"493 398 LINE",
"497 434 LINE"
);
}
);
width = 552;
}
);
note = equal;
unicode = 003D;
},
{
glyphname = greater;
layers = (
{
layerId = "18B4A443-2C69-4DCB-9619-77A7DD6AC8EC";
name = Light;
paths = (
{
closed = 1;
nodes = (
"34 132 LINE",
"432 326 LINE",
"435 346 LINE",
"83 538 LINE",
"79 506 LINE SMOOTH",
"78 499 OFFCURVE",
"82 493 OFFCURVE",
"90 488 CURVE",
"350 348 LINE",
"355 345 OFFCURVE",
"361 343 OFFCURVE",
"366 341 CURVE SMOOTH",
"371 339 OFFCURVE",
"378 338 OFFCURVE",
"384 336 CURVE",
"370 333 OFFCURVE",
"358 328 OFFCURVE",
"347 323 CURVE SMOOTH",
"53 183 LINE",
"48 181 OFFCURVE",
"44 178 OFFCURVE",
"42 175 CURVE SMOOTH",
"40 172 OFFCURVE",
"37 169 OFFCURVE",
"37 165 CURVE"
);
}
);
width = 472;
}
);
note = greater;
unicode = 003E;
},
{
glyphname = question;
layers = (
{
layerId = "18B4A443-2C69-4DCB-9619-77A7DD6AC8EC";
name = Light;
paths = (
{
closed = 1;
nodes = (
"45 626 LINE SMOOTH",
"47 622 OFFCURVE",
"50 620 OFFCURVE",
"55 620 CURVE SMOOTH",
"57 620 OFFCURVE",
"62 623 OFFCURVE",
"69 629 CURVE SMOOTH",
"76 635 OFFCURVE",
"86 641 OFFCURVE",
"98 648 CURVE SMOOTH",
"110 655 OFFCURVE",
"124 662 OFFCURVE",
"141 668 CURVE SMOOTH",
"158 674 OFFCURVE",
"177 676 OFFCURVE",
"199 676 CURVE SMOOTH",
"216 676 OFFCURVE",
"232 674 OFFCURVE",
"247 669 CURVE SMOOTH",
"262 664 OFFCURVE",
"275 656 OFFCURVE",
"286 646 CURVE SMOOTH",
"297 636 OFFCURVE",
"305 624 OFFCURVE",
"310 610 CURVE SMOOTH",
"315 596 OFFCURVE",
"317 580 OFFCURVE",
"315 562 CURVE SMOOTH",
"312 540 OFFCURVE",
"306 520 OFFCURVE",
"296 504 CURVE SMOOTH",
"286 488 OFFCURVE",
"274 474 OFFCURVE",
"261 461 CURVE",
"248 449 OFFCURVE",
"233 437 OFFCURVE",
"218 427 CURVE SMOOTH",
"203 417 OFFCURVE",
"189 407 OFFCURVE",
"176 397 CURVE SMOOTH",
"163 387 OFFCURVE",
"151 377 OFFCURVE",
"142 367 CURVE SMOOTH",
"133 357 OFFCURVE",
"128 345 OFFCURVE",
"126 331 CURVE",
"126 329 LINE",
"118 243 LINE",
"150 243 LINE",
"166 325 LINE SMOOTH",
"168 336 OFFCURVE",
"174 347 OFFCURVE",
"184 356 CURVE SMOOTH",
"194 365 OFFCURVE",
"205 375 OFFCURVE",
"218 384 CURVE SMOOTH",
"231 393 OFFCURVE",
"246 403 OFFCURVE",
"261 414 CURVE",
"276 424 OFFCURVE",
"290 436 OFFCURVE",
"304 450 CURVE SMOOTH",
"318 464 OFFCURVE",
"330 480 OFFCURVE",
"340 498 CURVE SMOOTH",
"350 516 OFFCURVE",
"357 539 OFFCURVE",
"360 564 CURVE SMOOTH",
"363 587 OFFCURVE",
"361 608 OFFCURVE",
"354 627 CURVE SMOOTH",
"347 646 OFFCURVE",
"337 662 OFFCURVE",
"323 675 CURVE SMOOTH",
"309 688 OFFCURVE",
"292 698 OFFCURVE",
"272 705 CURVE SMOOTH",
"252 712 OFFCURVE",
"231 716 OFFCURVE",
"208 716 CURVE SMOOTH",
"189 716 OFFCURVE",
"171 714 OFFCURVE",
"155 710 CURVE SMOOTH",
"139 706 OFFCURVE",
"123 700 OFFCURVE",
"109 694 CURVE SMOOTH",
"95 688 OFFCURVE",
"81 680 OFFCURVE",
"69 672 CURVE SMOOTH",
"57 664 OFFCURVE",
"45 655 OFFCURVE",
"35 646 CURVE"
);
},
{
closed = 1;
nodes = (
"59 25 OFFCURVE",
"63 15 OFFCURVE",
"71 6 CURVE SMOOTH",
"79 -3 OFFCURVE",
"89 -8 OFFCURVE",
"102 -8 CURVE SMOOTH",
"108 -8 OFFCURVE",
"114 -6 OFFCURVE",
"120 -4 CURVE SMOOTH",
"126 -2 OFFCURVE",
"131 2 OFFCURVE",
"136 6 CURVE SMOOTH",
"141 10 OFFCURVE",
"145 14 OFFCURVE",
"148 20 CURVE SMOOTH",
"151 26 OFFCURVE",
"153 31 OFFCURVE",
"154 38 CURVE SMOOTH",
"155 44 OFFCURVE",
"154 50 OFFCURVE",
"152 56 CURVE SMOOTH",
"150 62 OFFCURVE",
"148 67 OFFCURVE",
"144 71 CURVE SMOOTH",
"140 75 OFFCURVE",
"136 79 OFFCURVE",
"131 81 CURVE SMOOTH",
"126 83 OFFCURVE",
"119 85 OFFCURVE",
"113 85 CURVE SMOOTH",
"106 85 OFFCURVE",
"100 83 OFFCURVE",
"94 81 CURVE SMOOTH",
"88 79 OFFCURVE",
"84 75 OFFCURVE",
"79 71 CURVE SMOOTH",
"74 67 OFFCURVE",
"70 62 OFFCURVE",
"67 56 CURVE SMOOTH",
"64 50 OFFCURVE",
"62 44 OFFCURVE",
"61 38 CURVE SMOOTH"
);
}
);
width = 392;
}
);
note = question;
unicode = 003F;
},
{
glyphname = at;
layers = (
{
layerId = "18B4A443-2C69-4DCB-9619-77A7DD6AC8EC";
name = Light;
paths = (
{
closed = 1;
nodes = (
"574 94 OFFCURVE",
"599 100 OFFCURVE",
"623 112 CURVE SMOOTH",
"647 124 OFFCURVE",
"669 140 OFFCURVE",
"688 162 CURVE SMOOTH",
"707 184 OFFCURVE",
"724 210 OFFCURVE",
"737 240 CURVE SMOOTH",
"750 270 OFFCURVE",
"760 303 OFFCURVE",
"764 339 CURVE SMOOTH",
"771 393 OFFCURVE",
"767 439 OFFCURVE",
"753 480 CURVE SMOOTH",
"739 521 OFFCURVE",
"718 555 OFFCURVE",
"690 583 CURVE SMOOTH",
"662 610 OFFCURVE",
"628 631 OFFCURVE",
"589 645 CURVE SMOOTH",
"550 659 OFFCURVE",
"508 666 OFFCURVE",
"463 666 CURVE SMOOTH",
"411 666 OFFCURVE",
"362 656 OFFCURVE",
"314 636 CURVE SMOOTH",
"266 616 OFFCURVE",
"223 589 OFFCURVE",
"185 554 CURVE SMOOTH",
"147 519 OFFCURVE",
"115 478 OFFCURVE",
"89 430 CURVE SMOOTH",
"63 382 OFFCURVE",
"48 330 OFFCURVE",
"41 274 CURVE SMOOTH",
"33 211 OFFCURVE",
"36 156 OFFCURVE",
"50 107 CURVE SMOOTH",
"64 58 OFFCURVE",
"88 18 OFFCURVE",
"119 -16 CURVE SMOOTH",
"150 -50 OFFCURVE",
"188 -75 OFFCURVE",
"234 -93 CURVE SMOOTH",
"280 -111 OFFCURVE",
"330 -119 OFFCURVE",
"385 -119 CURVE SMOOTH",
"440 -119 OFFCURVE",
"490 -112 OFFCURVE",
"536 -99 CURVE SMOOTH",
"582 -86 OFFCURVE",
"627 -67 OFFCURVE",
"667 -42 CURVE",
"661 -24 LINE",
"660 -19 OFFCURVE",
"657 -16 OFFCURVE",
"652 -16 CURVE SMOOTH",
"649 -16 OFFCURVE",
"646 -17 OFFCURVE",
"643 -19 CURVE",
"607 -41 OFFCURVE",
"568 -57 OFFCURVE",
"526 -68 CURVE SMOOTH",
"484 -79 OFFCURVE",
"438 -86 OFFCURVE",
"389 -86 CURVE SMOOTH",
"340 -86 OFFCURVE",
"295 -78 OFFCURVE",
"254 -62 CURVE SMOOTH",
"213 -46 OFFCURVE",
"178 -24 OFFCURVE",
"149 6 CURVE SMOOTH",
"120 36 OFFCURVE",
"99 74 OFFCURVE",
"86 119 CURVE SMOOTH",
"73 164 OFFCURVE",
"70 215 OFFCURVE",
"77 274 CURVE SMOOTH",
"83 326 OFFCURVE",
"98 375 OFFCURVE",
"122 419 CURVE SMOOTH",
"146 463 OFFCURVE",
"174 500 OFFCURVE",
"209 532 CURVE SMOOTH",
"244 564 OFFCURVE",
"283 588 OFFCURVE",
"326 606 CURVE SMOOTH",
"369 624 OFFCURVE",
"413 632 OFFCURVE",
"459 632 CURVE SMOOTH",
"501 632 OFFCURVE",
"539 626 OFFCURVE",
"575 614 CURVE SMOOTH",
"611 602 OFFCURVE",
"640 584 OFFCURVE",
"665 560 CURVE SMOOTH",
"690 536 OFFCURVE",
"708 505 OFFCURVE",
"720 468 CURVE SMOOTH",
"732 431 OFFCURVE",
"734 388 OFFCURVE",
"728 339 CURVE SMOOTH",
"724 306 OFFCURVE",
"717 276 OFFCURVE",
"706 250 CURVE SMOOTH",
"695 224 OFFCURVE",
"682 201 OFFCURVE",
"666 183 CURVE SMOOTH",
"650 165 OFFCURVE",
"634 150 OFFCURVE",
"615 140 CURVE SMOOTH",
"596 130 OFFCURVE",
"577 126 OFFCURVE",
"558 126 CURVE SMOOTH",
"549 126 OFFCURVE",
"542 126 OFFCURVE",
"534 128 CURVE SMOOTH",
"526 130 OFFCURVE",
"520 134 OFFCURVE",
"514 139 CURVE SMOOTH",
"508 144 OFFCURVE",
"505 152 OFFCURVE",
"502 161 CURVE SMOOTH",
"499 170 OFFCURVE",
"498 181 OFFCURVE",
"500 196 CURVE SMOOTH",
"501 206 OFFCURVE",
"504 217 OFFCURVE",
"507 229 CURVE SMOOTH",
"510 241 OFFCURVE",
"515 255 OFFCURVE",
"521 270 CURVE SMOOTH",
"588 444 LINE",
"576 450 OFFCURVE",
"563 454 OFFCURVE",
"548 457 CURVE SMOOTH",
"533 460 OFFCURVE",
"516 462 OFFCURVE",
"498 462 CURVE SMOOTH",
"459 462 OFFCURVE",
"424 454 OFFCURVE",
"392 440 CURVE SMOOTH",
"360 426 OFFCURVE",
"333 407 OFFCURVE",
"309 384 CURVE SMOOTH",
"285 361 OFFCURVE",
"266 335 OFFCURVE",
"252 307 CURVE SMOOTH",
"238 279 OFFCURVE",
"228 250 OFFCURVE",
"225 222 CURVE SMOOTH",
"223 204 OFFCURVE",
"223 187 OFFCURVE",
"226 172 CURVE SMOOTH",
"229 157 OFFCURVE",
"233 143 OFFCURVE",
"241 132 CURVE SMOOTH",
"249 121 OFFCURVE",
"259 112 OFFCURVE",
"272 106 CURVE SMOOTH",
"285 100 OFFCURVE",
"300 96 OFFCURVE",
"319 96 CURVE SMOOTH",
"346 96 OFFCURVE",
"373 103 OFFCURVE",
"398 117 CURVE SMOOTH",
"423 131 OFFCURVE",
"447 153 OFFCURVE",
"469 184 CURVE",
"466 155 OFFCURVE",
"471 133 OFFCURVE",
"484 117 CURVE SMOOTH",
"497 101 OFFCURVE",
"519 94 OFFCURVE",
"548 94 CURVE SMOOTH"
);
},
{
closed = 1;
nodes = (
"319 129 OFFCURVE",
"307 131 OFFCURVE",
"298 136 CURVE SMOOTH",
"289 141 OFFCURVE",
"282 148 OFFCURVE",
"276 156 CURVE SMOOTH",
"270 164 OFFCURVE",
"267 174 OFFCURVE",
"265 186 CURVE SMOOTH",
"263 198 OFFCURVE",
"262 210 OFFCURVE",
"264 223 CURVE SMOOTH",
"267 248 OFFCURVE",
"275 273 OFFCURVE",
"288 297 CURVE SMOOTH",
"301 321 OFFCURVE",
"316 344 OFFCURVE",
"336 364 CURVE SMOOTH",
"356 384 OFFCURVE",
"378 399 OFFCURVE",
"404 411 CURVE SMOOTH",
"430 423 OFFCURVE",
"458 430 OFFCURVE",
"488 430 CURVE SMOOTH",
"499 430 OFFCURVE",
"510 429 OFFCURVE",
"518 428 CURVE SMOOTH",
"526 427 OFFCURVE",
"534 424 OFFCURVE",
"542 422 CURVE",
"483 268 LINE SMOOTH",
"473 240 OFFCURVE",
"461 217 OFFCURVE",
"448 199 CURVE SMOOTH",
"435 181 OFFCURVE",
"423 167 OFFCURVE",
"410 157 CURVE SMOOTH",
"397 147 OFFCURVE",
"383 139 OFFCURVE",
"370 135 CURVE SMOOTH",
"357 131 OFFCURVE",
"344 129 OFFCURVE",
"332 129 CURVE SMOOTH"
);
}
);
width = 806;
}
);
note = at;
unicode = 0040;
},
{
glyphname = A;
layers = (
{
layerId = "18B4A443-2C69-4DCB-9619-77A7DD6AC8EC";
name = Light;
paths = (
{
closed = 1;
nodes = (
"667 46 LINE",
"478 708 LINE",
"427 708 LINE",
"75 46 LINE",
"43 43 LINE SMOOTH",
"30 42 OFFCURVE",
"22 35 OFFCURVE",
"21 23 CURVE",
"18 0 LINE",
"51 0 LINE",
"71 0 LINE",
"90 0 LINE",
"97 0 LINE",
"191 0 LINE",
"193 23 LINE",
"195 36 OFFCURVE",
"188 42 OFFCURVE",
"173 43 CURVE",
"172 43 OFFCURVE",
"170 44 OFFCURVE",
"167 44 CURVE SMOOTH",
"164 44 OFFCURVE",
"160 45 OFFCURVE",
"153 45 CURVE SMOOTH",
"146 45 OFFCURVE",
"138 45 OFFCURVE",
"128 46 CURVE",
"219 219 LINE",
"225 232 LINE",
"563 232 LINE",
"566 219 LINE",
"615 46 LINE",
"605 45 OFFCURVE",
"597 45 OFFCURVE",
"590 45 CURVE SMOOTH",
"583 45 OFFCURVE",
"578 44 OFFCURVE",
"575 44 CURVE SMOOTH",
"572 44 OFFCURVE",
"570 43 OFFCURVE",
"569 43 CURVE",
"554 42 OFFCURVE",
"546 36 OFFCURVE",
"544 23 CURVE SMOOTH",
"541 0 LINE",
"635 0 LINE",
"641 0 LINE",
"660 0 LINE",
"681 0 LINE",
"713 0 LINE",
"716 23 LINE",
"717 35 OFFCURVE",
"712 42 OFFCURVE",
"699 43 CURVE SMOOTH"
);
},
{
closed = 1;
nodes = (
"427 614 LINE SMOOTH",
"430 620 OFFCURVE",
"434 627 OFFCURVE",
"437 634 CURVE SMOOTH",
"440 641 OFFCURVE",
"443 648 OFFCURVE",
"446 656 CURVE",
"447 648 OFFCURVE",
"449 641 OFFCURVE",
"451 634 CURVE",
"452 627 OFFCURVE",
"453 621 OFFCURVE",
"455 615 CURVE",
"552 270 LINE",
"246 270 LINE"
);
}
);
width = 754;
}
);
leftKerningGroup = A;
note = A;
unicode = 0041;
},
{
glyphname = B;
layers = (
{
layerId = "18B4A443-2C69-4DCB-9619-77A7DD6AC8EC";
name = Light;
paths = (
{
closed = 1;
nodes = (
"536 336 OFFCURVE",
"495 354 OFFCURVE",
"440 362 CURVE",
"464 368 OFFCURVE",
"486 376 OFFCURVE",
"505 387 CURVE SMOOTH",
"524 398 OFFCURVE",
"540 410 OFFCURVE",
"554 425 CURVE SMOOTH",
"568 440 OFFCURVE",
"580 456 OFFCURVE",
"589 473 CURVE SMOOTH",
"598 490 OFFCURVE",
"603 508 OFFCURVE",
"605 527 CURVE SMOOTH",
"608 555 OFFCURVE",
"607 581 OFFCURVE",
"600 603 CURVE SMOOTH",
"593 625 OFFCURVE",
"581 644 OFFCURVE",
"564 660 CURVE SMOOTH",
"547 675 OFFCURVE",
"524 687 OFFCURVE",
"495 695 CURVE SMOOTH",
"466 703 OFFCURVE",
"432 707 OFFCURVE",
"392 707 CURVE SMOOTH",
"188 707 LINE",
"104 707 LINE",
"101 688 LINE",
"100 677 OFFCURVE",
"106 671 OFFCURVE",
"119 670 CURVE",
"129 670 LINE SMOOTH",
"134 670 OFFCURVE",
"141 669 OFFCURVE",
"151 669 CURVE SMOOTH",
"161 669 OFFCURVE",
"171 668 OFFCURVE",
"183 668 CURVE",
"106 40 LINE",
"94 40 OFFCURVE",
"83 39 OFFCURVE",
"73 39 CURVE SMOOTH",
"63 39 OFFCURVE",
"56 38 OFFCURVE",
"51 38 CURVE SMOOTH",
"41 38 LINE",
"28 37 OFFCURVE",
"20 31 OFFCURVE",
"19 20 CURVE SMOOTH",
"17 0 LINE",
"101 0 LINE",
"331 0 LINE SMOOTH",
"369 0 OFFCURVE",
"402 4 OFFCURVE",
"433 13 CURVE SMOOTH",
"464 22 OFFCURVE",
"491 34 OFFCURVE",
"513 51 CURVE SMOOTH",
"535 68 OFFCURVE",
"553 88 OFFCURVE",
"567 112 CURVE SMOOTH",
"581 136 OFFCURVE",
"589 163 OFFCURVE",
"593 193 CURVE SMOOTH",
"599 240 OFFCURVE",
"588 278 OFFCURVE",
"562 307 CURVE SMOOTH"
);
},
{
closed = 1;
nodes = (
"234 667 LINE",
"387 667 LINE SMOOTH",
"450 667 OFFCURVE",
"495 654 OFFCURVE",
"522 630 CURVE SMOOTH",
"549 605 OFFCURVE",
"560 570 OFFCURVE",
"554 522 CURVE SMOOTH",
"552 504 OFFCURVE",
"546 485 OFFCURVE",
"537 468 CURVE SMOOTH",
"528 451 OFFCURVE",
"515 436 OFFCURVE",
"498 422 CURVE SMOOTH",
"481 408 OFFCURVE",
"461 397 OFFCURVE",
"437 389 CURVE SMOOTH",
"413 381 OFFCURVE",
"385 376 OFFCURVE",
"352 376 CURVE SMOOTH",
"198 376 LINE"
);
},
{
closed = 1;
nodes = (
"446 54 OFFCURVE",
"397 41 OFFCURVE",
"335 41 CURVE SMOOTH",
"157 41 LINE",
"194 339 LINE",
"372 339 LINE SMOOTH",
"402 339 OFFCURVE",
"427 336 OFFCURVE",
"450 329 CURVE SMOOTH",
"473 322 OFFCURVE",
"492 312 OFFCURVE",
"506 300 CURVE",
"520 287 OFFCURVE",
"531 273 OFFCURVE",
"537 255 CURVE SMOOTH",
"543 237 OFFCURVE",
"545 216 OFFCURVE",
"542 194 CURVE SMOOTH",
"536 145 OFFCURVE",
"516 108 OFFCURVE",
"481 81 CURVE SMOOTH"
);
}
);
width = 639;
}
);
note = B;
unicode = 0042;
},
{
glyphname = C;
layers = (
{
layerId = "18B4A443-2C69-4DCB-9619-77A7DD6AC8EC";
name = Light;
paths = (
{
closed = 1;
nodes = (
"574 115 LINE",
"572 117 OFFCURVE",
"568 119 OFFCURVE",
"565 119 CURVE SMOOTH",
"563 119 OFFCURVE",
"562 119 OFFCURVE",
"560 118 CURVE SMOOTH",
"558 117 OFFCURVE",
"557 115 OFFCURVE",
"555 114 CURVE",
"539 101 OFFCURVE",
"524 90 OFFCURVE",
"508 80 CURVE SMOOTH",
"492 70 OFFCURVE",
"476 63 OFFCURVE",
"459 56 CURVE SMOOTH",
"442 49 OFFCURVE",
"422 44 OFFCURVE",
"402 41 CURVE SMOOTH",
"382 38 OFFCURVE",
"359 36 OFFCURVE",
"334 36 CURVE SMOOTH",
"294 36 OFFCURVE",
"257 43 OFFCURVE",
"224 58 CURVE SMOOTH",
"191 72 OFFCURVE",
"164 93 OFFCURVE",
"142 120 CURVE SMOOTH",
"120 147 OFFCURVE",
"105 181 OFFCURVE",
"95 220 CURVE SMOOTH",
"85 259 OFFCURVE",
"84 304 OFFCURVE",
"90 354 CURVE SMOOTH",
"96 403 OFFCURVE",
"109 447 OFFCURVE",
"128 486 CURVE SMOOTH",
"147 525 OFFCURVE",
"172 558 OFFCURVE",
"201 586 CURVE SMOOTH",
"230 613 OFFCURVE",
"264 634 OFFCURVE",
"302 649 CURVE SMOOTH",
"340 664 OFFCURVE",
"380 671 OFFCURVE",
"423 671 CURVE SMOOTH",
"487 671 OFFCURVE",
"544 661 OFFCURVE",
"593 638 CURVE",
"588 574 OFFCURVE",
"586 537 OFFCURVE",
"585 529 CURVE",
"584 513 OFFCURVE",
"590 505 OFFCURVE",
"604 505 CURVE SMOOTH",
"628 505 LINE",
"648 665 LINE",
"568 699 OFFCURVE",
"494 715 OFFCURVE",
"428 715 CURVE SMOOTH",
"377 715 OFFCURVE",
"329 707 OFFCURVE",
"284 689 CURVE SMOOTH",
"239 671 OFFCURVE",
"200 647 OFFCURVE",
"166 615 CURVE SMOOTH",
"132 583 OFFCURVE",
"103 545 OFFCURVE",
"81 501 CURVE SMOOTH",
"59 457 OFFCURVE",
"44 408 OFFCURVE",
"37 354 CURVE SMOOTH",
"30 299 OFFCURVE",
"33 250 OFFCURVE",
"44 205 CURVE SMOOTH",
"55 160 OFFCURVE",
"73 123 OFFCURVE",
"98 91 CURVE SMOOTH",
"123 59 OFFCURVE",
"155 35 OFFCURVE",
"194 18 CURVE SMOOTH",
"233 1 OFFCURVE",
"276 -8 OFFCURVE",
"325 -8 CURVE SMOOTH",
"354 -8 OFFCURVE",
"382 -6 OFFCURVE",
"407 -1 CURVE SMOOTH",
"432 4 OFFCURVE",
"455 11 OFFCURVE",
"477 20 CURVE SMOOTH",
"499 29 OFFCURVE",
"519 40 OFFCURVE",
"538 52 CURVE",
"557 65 OFFCURVE",
"574 78 OFFCURVE",
"591 94 CURVE"
);
}
);
width = 655;
}
);
note = C;
unicode = 0043;
},
{
glyphname = D;
layers = (
{
layerId = "18B4A443-2C69-4DCB-9619-77A7DD6AC8EC";
name = Light;
paths = (
{
closed = 1;
nodes = (
"710 545 OFFCURVE",
"692 581 OFFCURVE",
"666 612 CURVE SMOOTH",
"640 643 OFFCURVE",
"607 667 OFFCURVE",
"568 683 CURVE SMOOTH",
"529 699 OFFCURVE",
"483 707 OFFCURVE",
"433 707 CURVE SMOOTH",
"188 707 LINE",
"103 707 LINE",
"101 688 LINE SMOOTH",
"100 677 OFFCURVE",
"106 671 OFFCURVE",
"119 670 CURVE",
"128 670 LINE SMOOTH",
"133 670 OFFCURVE",
"140 669 OFFCURVE",
"150 669 CURVE SMOOTH",
"160 669 OFFCURVE",
"171 668 OFFCURVE",
"183 668 CURVE",
"106 40 LINE",
"94 40 OFFCURVE",
"83 39 OFFCURVE",
"73 39 CURVE SMOOTH",
"63 39 OFFCURVE",
"55 38 OFFCURVE",
"50 38 CURVE SMOOTH",
"41 38 LINE",
"28 37 OFFCURVE",
"20 31 OFFCURVE",
"19 20 CURVE",
"16 0 LINE",
"101 0 LINE",
"346 0 LINE SMOOTH",
"396 0 OFFCURVE",
"444 8 OFFCURVE",
"487 24 CURVE SMOOTH",
"530 40 OFFCURVE",
"569 64 OFFCURVE",
"602 95 CURVE SMOOTH",
"635 126 OFFCURVE",
"663 163 OFFCURVE",
"685 207 CURVE SMOOTH",
"707 251 OFFCURVE",
"720 299 OFFCURVE",
"727 354 CURVE SMOOTH",
"734 408 OFFCURVE",
"732 457 OFFCURVE",
"721 501 CURVE SMOOTH"
);
},
{
closed = 1;
nodes = (
"620 182 OFFCURVE",
"596 150 OFFCURVE",
"568 123 CURVE SMOOTH",
"540 96 OFFCURVE",
"507 76 OFFCURVE",
"470 62 CURVE SMOOTH",
"433 48 OFFCURVE",
"394 41 OFFCURVE",
"351 41 CURVE SMOOTH",
"157 41 LINE",
"234 666 LINE",
"428 666 LINE SMOOTH",
"471 666 OFFCURVE",
"509 659 OFFCURVE",
"542 645 CURVE SMOOTH",
"575 631 OFFCURVE",
"602 611 OFFCURVE",
"624 584 CURVE SMOOTH",
"646 557 OFFCURVE",
"661 525 OFFCURVE",
"670 486 CURVE SMOOTH",
"679 447 OFFCURVE",
"680 403 OFFCURVE",
"674 354 CURVE SMOOTH",
"668 304 OFFCURVE",
"656 260 OFFCURVE",
"638 221 CURVE SMOOTH"
);
}
);
width = 763;
}
);
note = D;
unicode = 0044;
},
{
glyphname = E;
layers = (
{
layerId = "18B4A443-2C69-4DCB-9619-77A7DD6AC8EC";
name = Light;
paths = (
{
closed = 1;
nodes = (
"188 707 LINE",
"103 707 LINE",
"101 688 LINE SMOOTH",
"100 677 OFFCURVE",
"106 671 OFFCURVE",
"119 670 CURVE",
"128 670 LINE SMOOTH",
"133 670 OFFCURVE",
"140 669 OFFCURVE",
"150 669 CURVE SMOOTH",
"160 669 OFFCURVE",
"171 668 OFFCURVE",
"183 668 CURVE",
"106 40 LINE",
"94 40 OFFCURVE",
"83 39 OFFCURVE",
"73 39 CURVE SMOOTH",
"63 39 OFFCURVE",
"55 38 OFFCURVE",
"50 38 CURVE SMOOTH",
"41 38 LINE",
"28 37 OFFCURVE",
"20 31 OFFCURVE",
"19 20 CURVE",
"16 0 LINE",
"101 0 LINE",
"525 0 LINE",
"530 43 LINE",
"543 147 LINE",
"518 147 LINE SMOOTH",
"504 147 OFFCURVE",
"497 138 OFFCURVE",
"494 122 CURVE",
"494 120 OFFCURVE",
"493 116 OFFCURVE",
"492 109 CURVE SMOOTH",
"491 102 OFFCURVE",
"489 92 OFFCURVE",
"486 77 CURVE SMOOTH",
"483 62 OFFCURVE",
"481 52 OFFCURVE",
"480 43 CURVE",
"157 43 LINE",
"194 338 LINE",
"475 338 LINE",
"480 379 LINE",
"199 379 LINE",
"234 665 LINE",
"557 665 LINE",
"554 621 OFFCURVE",
"552 594 OFFCURVE",
"551 585 CURVE",
"550 569 OFFCURVE",
"555 561 OFFCURVE",
"569 561 CURVE SMOOTH",
"594 561 LINE",
"606 665 LINE",
"612 707 LINE"
);
}
);
width = 622;
}
);
note = E;
unicode = 0045;
},
{
glyphname = F;
layers = (
{
layerId = "18B4A443-2C69-4DCB-9619-77A7DD6AC8EC";
name = Light;
paths = (
{
closed = 1;
nodes = (
"612 707 LINE",
"587 707 LINE",
"188 707 LINE",
"103 707 LINE",
"101 688 LINE SMOOTH",
"100 677 OFFCURVE",
"106 671 OFFCURVE",
"119 670 CURVE",
"128 670 LINE SMOOTH",
"133 670 OFFCURVE",
"140 669 OFFCURVE",
"150 669 CURVE SMOOTH",
"160 669 OFFCURVE",
"171 668 OFFCURVE",
"183 668 CURVE",
"106 40 LINE",
"94 40 OFFCURVE",
"83 39 OFFCURVE",
"73 39 CURVE SMOOTH",
"63 39 OFFCURVE",
"55 38 OFFCURVE",
"50 38 CURVE SMOOTH",
"41 38 LINE",
"28 37 OFFCURVE",
"20 31 OFFCURVE",
"19 20 CURVE",
"16 0 LINE",
"101 0 LINE",
"152 0 LINE",
"236 0 LINE",
"239 20 LINE",
"240 31 OFFCURVE",
"234 37 OFFCURVE",
"221 38 CURVE",
"212 38 LINE SMOOTH",
"207 38 OFFCURVE",
"200 39 OFFCURVE",
"190 39 CURVE SMOOTH",
"180 39 OFFCURVE",
"169 40 OFFCURVE",
"157 40 CURVE",
"192 325 LINE",
"456 325 LINE",
"462 368 LINE",
"197 368 LINE",
"234 665 LINE",
"563 665 LINE",
"559 617 OFFCURVE",
"557 590 OFFCURVE",
"557 585 CURVE",
"556 569 OFFCURVE",
"562 561 OFFCURVE",
"576 561 CURVE SMOOTH",
"600 561 LINE",
"618 707 LINE"
);
}
);
width = 629;
}
);
note = F;
unicode = 0046;
},
{
glyphname = G;
layers = (
{
layerId = "18B4A443-2C69-4DCB-9619-77A7DD6AC8EC";
name = Light;
paths = (
{
closed = 1;
nodes = (
"449 321 LINE",
"446 293 LINE",
"446 290 OFFCURVE",
"447 287 OFFCURVE",
"449 285 CURVE SMOOTH",
"451 283 OFFCURVE",
"453 282 OFFCURVE",
"457 282 CURVE SMOOTH",
"593 282 LINE",
"570 91 LINE",
"553 82 OFFCURVE",
"536 74 OFFCURVE",
"520 67 CURVE SMOOTH",
"504 60 OFFCURVE",
"487 53 OFFCURVE",
"469 48 CURVE SMOOTH",
"451 43 OFFCURVE",
"432 39 OFFCURVE",
"412 37 CURVE SMOOTH",
"392 35 OFFCURVE",
"369 34 OFFCURVE",
"345 34 CURVE SMOOTH",
"301 34 OFFCURVE",
"262 41 OFFCURVE",
"228 56 CURVE SMOOTH",
"194 71 OFFCURVE",
"165 92 OFFCURVE",
"143 119 CURVE SMOOTH",
"121 146 OFFCURVE",
"104 180 OFFCURVE",
"95 220 CURVE SMOOTH",
"86 260 OFFCURVE",
"84 304 OFFCURVE",
"90 354 CURVE SMOOTH",
"96 403 OFFCURVE",
"108 447 OFFCURVE",
"127 486 CURVE SMOOTH",
"146 525 OFFCURVE",
"170 559 OFFCURVE",
"200 586 CURVE SMOOTH",
"230 613 OFFCURVE",
"264 634 OFFCURVE",
"303 649 CURVE SMOOTH",
"342 664 OFFCURVE",
"384 671 OFFCURVE",
"430 671 CURVE SMOOTH",
"514 671 OFFCURVE",
"579 660 OFFCURVE",
"625 637 CURVE",
"620 572 OFFCURVE",
"618 536 OFFCURVE",
"617 529 CURVE",
"616 513 OFFCURVE",
"622 505 OFFCURVE",
"636 505 CURVE SMOOTH",
"660 505 LINE",
"679 665 LINE",
"649 679 OFFCURVE",
"611 691 OFFCURVE",
"563 701 CURVE SMOOTH",
"515 711 OFFCURVE",
"473 715 OFFCURVE",
"437 715 CURVE SMOOTH",
"383 715 OFFCURVE",
"332 707 OFFCURVE",
"286 690 CURVE SMOOTH",
"240 673 OFFCURVE",
"201 648 OFFCURVE",
"166 617 CURVE SMOOTH",
"131 586 OFFCURVE",
"103 548 OFFCURVE",
"81 503 CURVE SMOOTH",
"59 459 OFFCURVE",
"44 409 OFFCURVE",
"37 354 CURVE SMOOTH",
"30 299 OFFCURVE",
"33 250 OFFCURVE",
"44 205 CURVE SMOOTH",
"55 160 OFFCURVE",
"74 123 OFFCURVE",
"100 91 CURVE SMOOTH",
"126 59 OFFCURVE",
"160 35 OFFCURVE",
"200 18 CURVE SMOOTH",
"240 1 OFFCURVE",
"285 -8 OFFCURVE",
"336 -8 CURVE SMOOTH",
"366 -8 OFFCURVE",
"394 -6 OFFCURVE",
"419 -3 CURVE",
"444 1 OFFCURVE",
"469 6 OFFCURVE",
"491 12 CURVE SMOOTH",
"514 19 OFFCURVE",
"535 27 OFFCURVE",
"555 37 CURVE SMOOTH",
"575 47 OFFCURVE",
"595 58 OFFCURVE",
"614 70 CURVE",
"645 321 LINE"
);
}
);
width = 696;
}
);
note = G;
unicode = 0047;
},
{
glyphname = H;
layers = (
{
layerId = "18B4A443-2C69-4DCB-9619-77A7DD6AC8EC";
name = Light;
paths = (
{
closed = 1;
nodes = (
"793 670 LINE",
"806 671 OFFCURVE",
"814 677 OFFCURVE",
"815 688 CURVE",
"818 707 LINE",
"734 707 LINE",
"682 707 LINE",
"598 707 LINE",
"595 688 LINE",
"594 677 OFFCURVE",
"600 671 OFFCURVE",
"613 670 CURVE",
"623 670 LINE SMOOTH",
"628 670 OFFCURVE",
"635 669 OFFCURVE",
"645 669 CURVE SMOOTH",
"655 669 OFFCURVE",
"665 668 OFFCURVE",
"677 668 CURVE",
"642 378 LINE",
"199 378 LINE",
"234 668 LINE",
"246 668 OFFCURVE",
"257 669 OFFCURVE",
"267 669 CURVE SMOOTH",
"277 669 OFFCURVE",
"284 670 OFFCURVE",
"289 670 CURVE SMOOTH",
"299 670 LINE",
"312 671 OFFCURVE",
"320 677 OFFCURVE",
"321 688 CURVE SMOOTH",
"323 707 LINE",
"239 707 LINE",
"188 707 LINE",
"103 707 LINE",
"101 688 LINE SMOOTH",
"100 677 OFFCURVE",
"106 671 OFFCURVE",
"119 670 CURVE",
"128 670 LINE SMOOTH",
"133 670 OFFCURVE",
"140 669 OFFCURVE",
"150 669 CURVE SMOOTH",
"160 669 OFFCURVE",
"171 668 OFFCURVE",
"183 668 CURVE",
"106 40 LINE",
"94 40 OFFCURVE",
"83 39 OFFCURVE",
"73 39 CURVE SMOOTH",
"63 39 OFFCURVE",
"55 38 OFFCURVE",
"50 38 CURVE SMOOTH",
"41 38 LINE",
"28 37 OFFCURVE",
"20 31 OFFCURVE",
"19 20 CURVE",
"16 0 LINE",
"101 0 LINE",
"152 0 LINE",
"236 0 LINE",
"239 20 LINE",
"240 31 OFFCURVE",
"234 37 OFFCURVE",
"221 38 CURVE",
"212 38 LINE SMOOTH",
"207 38 OFFCURVE",
"200 39 OFFCURVE",
"190 39 CURVE SMOOTH",
"180 39 OFFCURVE",
"169 40 OFFCURVE",
"157 40 CURVE",
"194 339 LINE",
"637 339 LINE",
"600 40 LINE",
"588 40 OFFCURVE",
"577 39 OFFCURVE",
"567 39 CURVE SMOOTH",
"557 39 OFFCURVE",
"550 38 OFFCURVE",
"545 38 CURVE SMOOTH",
"535 38 LINE",
"522 37 OFFCURVE",
"514 31 OFFCURVE",
"513 20 CURVE SMOOTH",
"511 0 LINE",
"595 0 LINE",
"647 0 LINE",
"731 0 LINE",
"733 20 LINE SMOOTH",
"734 31 OFFCURVE",
"729 37 OFFCURVE",
"716 38 CURVE",
"706 38 LINE SMOOTH",
"701 38 OFFCURVE",
"694 39 OFFCURVE",
"684 39 CURVE SMOOTH",
"674 39 OFFCURVE",
"664 40 OFFCURVE",
"652 40 CURVE",
"729 668 LINE",
"741 668 OFFCURVE",
"752 669 OFFCURVE",
"762 669 CURVE SMOOTH",
"772 669 OFFCURVE",
"779 670 OFFCURVE",
"784 670 CURVE SMOOTH"
);
}
);
width = 827;
}
);
note = H;
unicode = 0048;
},
{
glyphname = I;
layers = (
{
layerId = "18B4A443-2C69-4DCB-9619-77A7DD6AC8EC";
name = Light;
paths = (
{
closed = 1;
nodes = (
"299 670 LINE",
"312 671 OFFCURVE",
"320 677 OFFCURVE",
"321 688 CURVE SMOOTH",
"323 708 LINE",
"239 708 LINE",
"188 708 LINE",
"103 708 LINE",
"101 688 LINE SMOOTH",
"100 677 OFFCURVE",
"106 671 OFFCURVE",
"119 670 CURVE",
"128 670 LINE SMOOTH",
"133 670 OFFCURVE",
"140 669 OFFCURVE",
"150 669 CURVE SMOOTH",
"160 669 OFFCURVE",
"171 668 OFFCURVE",
"183 668 CURVE",
"106 40 LINE",
"94 40 OFFCURVE",
"83 39 OFFCURVE",
"73 39 CURVE SMOOTH",
"63 39 OFFCURVE",
"55 38 OFFCURVE",
"50 38 CURVE SMOOTH",
"41 38 LINE",
"28 37 OFFCURVE",
"20 31 OFFCURVE",
"19 20 CURVE",
"16 0 LINE",
"101 0 LINE",
"152 0 LINE",
"236 0 LINE",
"239 20 LINE",
"240 31 OFFCURVE",
"234 37 OFFCURVE",
"221 38 CURVE",
"212 38 LINE SMOOTH",
"207 38 OFFCURVE",
"200 39 OFFCURVE",
"190 39 CURVE SMOOTH",
"180 39 OFFCURVE",
"169 40 OFFCURVE",
"157 40 CURVE",
"234 668 LINE",
"246 668 OFFCURVE",
"257 669 OFFCURVE",
"267 669 CURVE SMOOTH",
"277 669 OFFCURVE",
"284 670 OFFCURVE",
"289 670 CURVE SMOOTH"
);
}
);
width = 332;
}
);
note = I;
unicode = 0049;
},
{
glyphname = J;
layers = (
{
layerId = "18B4A443-2C69-4DCB-9619-77A7DD6AC8EC";
name = Light;
paths = (
{
closed = 1;
nodes = (
"410 708 LINE",
"358 708 LINE",
"267 708 LINE",
"264 688 LINE",
"263 677 OFFCURVE",
"269 671 OFFCURVE",
"282 670 CURVE",
"293 670 LINE SMOOTH",
"299 670 OFFCURVE",
"308 669 OFFCURVE",
"319 669 CURVE SMOOTH",
"330 669 OFFCURVE",
"341 668 OFFCURVE",
"353 668 CURVE",
"300 235 LINE SMOOTH",
"296 201 OFFCURVE",
"289 171 OFFCURVE",
"278 146 CURVE SMOOTH",
"267 121 OFFCURVE",
"253 100 OFFCURVE",
"237 84 CURVE SMOOTH",
"221 68 OFFCURVE",
"202 55 OFFCURVE",
"181 47 CURVE SMOOTH",
"160 39 OFFCURVE",
"136 35 OFFCURVE",
"111 35 CURVE SMOOTH",
"101 35 OFFCURVE",
"92 36 OFFCURVE",
"85 37 CURVE SMOOTH",
"78 38 OFFCURVE",
"71 40 OFFCURVE",
"65 41 CURVE SMOOTH",
"59 42 OFFCURVE",
"55 43 OFFCURVE",
"51 44 CURVE SMOOTH",
"47 45 OFFCURVE",
"43 46 OFFCURVE",
"40 46 CURVE SMOOTH",
"35 46 OFFCURVE",
"32 45 OFFCURVE",
"30 43 CURVE SMOOTH",
"28 41 OFFCURVE",
"26 38 OFFCURVE",
"25 35 CURVE",
"24 30 OFFCURVE",
"23 26 OFFCURVE",
"22 21 CURVE SMOOTH",
"21 16 OFFCURVE",
"20 12 OFFCURVE",
"19 7 CURVE",
"35 2 OFFCURVE",
"50 -2 OFFCURVE",
"65 -4 CURVE SMOOTH",
"80 -6 OFFCURVE",
"95 -8 OFFCURVE",
"110 -8 CURVE SMOOTH",
"143 -8 OFFCURVE",
"173 -2 OFFCURVE",
"200 8 CURVE SMOOTH",
"227 19 OFFCURVE",
"252 34 OFFCURVE",
"273 55 CURVE SMOOTH",
"294 76 OFFCURVE",
"310 101 OFFCURVE",
"324 131 CURVE SMOOTH",
"338 161 OFFCURVE",
"347 196 OFFCURVE",
"352 236 CURVE SMOOTH",
"405 668 LINE",
"417 668 OFFCURVE",
"428 669 OFFCURVE",
"438 669 CURVE SMOOTH",
"448 669 OFFCURVE",
"455 670 OFFCURVE",
"460 670 CURVE SMOOTH",
"469 670 LINE",
"482 671 OFFCURVE",
"490 677 OFFCURVE",
"491 688 CURVE",
"494 708 LINE"
);
}
);
width = 503;
}
);
note = J;
unicode = 004A;
},
{
glyphname = K;
layers = (
{
layerId = "18B4A443-2C69-4DCB-9619-77A7DD6AC8EC";
name = Light;
paths = (
{
closed = 1;
nodes = (
"622 38 LINE",
"609 38 LINE SMOOTH",
"603 38 OFFCURVE",
"597 39 OFFCURVE",
"590 39 CURVE",
"338 340 LINE",
"333 347 OFFCURVE",
"328 352 OFFCURVE",
"323 356 CURVE SMOOTH",
"318 360 OFFCURVE",
"313 363 OFFCURVE",
"306 365 CURVE",
"312 367 OFFCURVE",
"318 370 OFFCURVE",
"323 374 CURVE SMOOTH",
"328 378 OFFCURVE",
"335 383 OFFCURVE",
"342 390 CURVE",
"647 669 LINE",
"666 669 LINE SMOOTH",
"672 669 OFFCURVE",
"676 670 OFFCURVE",
"679 670 CURVE SMOOTH",
"685 670 LINE",
"698 671 OFFCURVE",
"706 677 OFFCURVE",
"707 688 CURVE SMOOTH",
"709 708 LINE",
"639 708 LINE",
"630 708 LINE",
"502 708 LINE",
"499 688 LINE",
"498 677 OFFCURVE",
"504 671 OFFCURVE",
"517 670 CURVE",
"529 670 LINE SMOOTH",
"536 670 OFFCURVE",
"545 669 OFFCURVE",
"557 669 CURVE SMOOTH",
"589 669 LINE",
"293 400 LINE",
"289 396 OFFCURVE",
"286 392 OFFCURVE",
"282 390 CURVE SMOOTH",
"278 388 OFFCURVE",
"274 387 OFFCURVE",
"270 385 CURVE",
"266 384 OFFCURVE",
"262 382 OFFCURVE",
"257 382 CURVE",
"252 381 OFFCURVE",
"247 381 OFFCURVE",
"241 381 CURVE SMOOTH",
"199 381 LINE",
"234 669 LINE",
"246 669 OFFCURVE",
"257 670 OFFCURVE",
"267 670 CURVE SMOOTH",
"277 670 OFFCURVE",
"284 671 OFFCURVE",
"289 671 CURVE SMOOTH",
"298 671 LINE",
"311 672 OFFCURVE",
"319 678 OFFCURVE",
"320 689 CURVE",
"323 708 LINE",
"239 708 LINE",
"188 708 LINE",
"103 708 LINE",
"101 689 LINE SMOOTH",
"100 678 OFFCURVE",
"106 672 OFFCURVE",
"119 671 CURVE",
"128 671 LINE SMOOTH",
"133 671 OFFCURVE",
"140 670 OFFCURVE",
"150 670 CURVE SMOOTH",
"160 670 OFFCURVE",
"171 669 OFFCURVE",
"183 669 CURVE",
"106 40 LINE",
"94 40 OFFCURVE",
"83 39 OFFCURVE",
"73 39 CURVE SMOOTH",
"63 39 OFFCURVE",
"55 38 OFFCURVE",
"50 38 CURVE SMOOTH",
"41 38 LINE",
"28 37 OFFCURVE",
"20 31 OFFCURVE",
"19 20 CURVE",
"16 0 LINE",
"101 0 LINE",
"152 0 LINE",
"236 0 LINE",
"238 20 LINE SMOOTH",
"239 31 OFFCURVE",
"234 37 OFFCURVE",
"221 38 CURVE",
"211 38 LINE SMOOTH",
"206 38 OFFCURVE",
"199 39 OFFCURVE",
"189 39 CURVE SMOOTH",
"179 39 OFFCURVE",
"169 40 OFFCURVE",
"157 40 CURVE",
"194 341 LINE",
"239 341 LINE SMOOTH",
"247 341 OFFCURVE",
"254 341 OFFCURVE",
"259 340 CURVE SMOOTH",
"264 339 OFFCURVE",
"268 338 OFFCURVE",
"272 336 CURVE SMOOTH",
"276 334 OFFCURVE",
"279 332 OFFCURVE",
"282 329 CURVE SMOOTH",
"285 326 OFFCURVE",
"287 324 OFFCURVE",
"290 320 CURVE",
"531 39 LINE",
"521 39 OFFCURVE",
"510 38 OFFCURVE",
"498 38 CURVE SMOOTH",
"468 38 LINE",
"455 38 LINE",
"442 37 OFFCURVE",
"434 31 OFFCURVE",
"433 20 CURVE SMOOTH",
"431 0 LINE",
"564 0 LINE",
"568 0 LINE",
"581 0 LINE",
"622 0 LINE",
"643 0 LINE",
"646 20 LINE",
"647 31 OFFCURVE",
"641 37 OFFCURVE",
"628 38 CURVE"
);
}
);
width = 718;
}
);
note = K;
unicode = 004B;
},
{
glyphname = L;
layers = (
{
layerId = "18B4A443-2C69-4DCB-9619-77A7DD6AC8EC";
name = Light;
paths = (
{
closed = 1;
nodes = (
"488 132 LINE SMOOTH",
"474 132 OFFCURVE",
"466 124 OFFCURVE",
"463 108 CURVE",
"463 107 OFFCURVE",
"462 103 OFFCURVE",
"461 99 CURVE SMOOTH",
"460 95 OFFCURVE",
"459 88 OFFCURVE",
"457 79 CURVE SMOOTH",
"455 70 OFFCURVE",
"452 58 OFFCURVE",
"450 44 CURVE",
"157 44 LINE",
"234 668 LINE",
"246 668 OFFCURVE",
"257 669 OFFCURVE",
"267 669 CURVE SMOOTH",
"277 669 OFFCURVE",
"284 670 OFFCURVE",
"289 670 CURVE SMOOTH",
"298 670 LINE",
"311 671 OFFCURVE",
"319 677 OFFCURVE",
"320 688 CURVE",
"323 707 LINE",
"238 707 LINE",
"188 707 LINE",
"103 707 LINE",
"101 688 LINE SMOOTH",
"100 677 OFFCURVE",
"106 671 OFFCURVE",
"119 670 CURVE",
"128 670 LINE SMOOTH",
"133 670 OFFCURVE",
"140 669 OFFCURVE",
"150 669 CURVE SMOOTH",
"160 669 OFFCURVE",
"171 668 OFFCURVE",
"183 668 CURVE",
"106 40 LINE",
"94 40 OFFCURVE",
"83 39 OFFCURVE",
"73 39 CURVE SMOOTH",
"63 39 OFFCURVE",
"55 38 OFFCURVE",
"50 38 CURVE SMOOTH",
"41 38 LINE",
"28 37 OFFCURVE",
"20 31 OFFCURVE",
"19 20 CURVE",
"16 0 LINE",
"101 0 LINE",
"478 0 LINE",
"487 0 LINE",
"496 0 LINE",
"498 19 LINE",
"503 59 LINE",
"512 132 LINE",
"492 132 LINE"
);
}
);
width = 556;
}
);
note = L;
unicode = 004C;
},
{
glyphname = M;
layers = (
{
layerId = "18B4A443-2C69-4DCB-9619-77A7DD6AC8EC";
name = Light;
paths = (
{
closed = 1;
nodes = (
"946 670 LINE",
"959 671 OFFCURVE",
"967 677 OFFCURVE",
"968 688 CURVE",
"971 707 LINE",
"887 707 LINE",
"851 707 LINE SMOOTH",
"846 707 OFFCURVE",
"843 707 OFFCURVE",
"840 706 CURVE SMOOTH",
"837 705 OFFCURVE",
"834 702 OFFCURVE",
"831 698 CURVE",
"493 207 LINE",
"484 192 LINE SMOOTH",
"481 187 OFFCURVE",
"478 181 OFFCURVE",
"475 176 CURVE",
"473 187 OFFCURVE",
"470 197 OFFCURVE",
"466 206 CURVE SMOOTH",
"241 698 LINE SMOOTH",
"239 702 OFFCURVE",
"237 705 OFFCURVE",
"234 706 CURVE SMOOTH",
"231 707 OFFCURVE",
"228 707 OFFCURVE",
"223 707 CURVE SMOOTH",
"188 707 LINE",
"103 707 LINE",
"101 688 LINE SMOOTH",
"100 677 OFFCURVE",
"106 671 OFFCURVE",
"119 670 CURVE",
"128 670 LINE SMOOTH",
"133 670 OFFCURVE",
"140 669 OFFCURVE",
"150 669 CURVE SMOOTH",
"160 669 OFFCURVE",
"171 668 OFFCURVE",
"183 668 CURVE",
"106 40 LINE",
"94 40 OFFCURVE",
"83 39 OFFCURVE",
"73 39 CURVE SMOOTH",
"63 39 OFFCURVE",
"55 38 OFFCURVE",
"50 38 CURVE SMOOTH",
"41 38 LINE",
"28 37 OFFCURVE",
"20 31 OFFCURVE",
"19 20 CURVE",
"16 0 LINE",
"101 0 LINE",
"145 0 LINE",
"232 0 LINE",
"234 20 LINE SMOOTH",
"235 31 OFFCURVE",
"229 37 OFFCURVE",
"216 38 CURVE",
"206 38 LINE SMOOTH",
"201 38 OFFCURVE",
"193 39 OFFCURVE",
"183 39 CURVE SMOOTH",
"173 39 OFFCURVE",
"162 40 OFFCURVE",
"150 40 CURVE",
"219 603 LINE SMOOTH",
"220 612 OFFCURVE",
"221 621 OFFCURVE",
"221 631 CURVE",
"446 136 LINE SMOOTH",
"450 127 OFFCURVE",
"457 123 OFFCURVE",
"465 123 CURVE SMOOTH",
"473 123 LINE SMOOTH",
"482 123 OFFCURVE",
"488 127 OFFCURVE",
"494 136 CURVE SMOOTH",
"834 631 LINE",
"832 621 OFFCURVE",
"830 612 OFFCURVE",
"829 603 CURVE SMOOTH",
"760 40 LINE",
"748 40 OFFCURVE",
"736 39 OFFCURVE",
"726 39 CURVE SMOOTH",
"716 39 OFFCURVE",
"708 38 OFFCURVE",
"703 38 CURVE SMOOTH",
"693 38 LINE",
"680 37 OFFCURVE",
"672 31 OFFCURVE",
"671 20 CURVE",
"668 0 LINE",
"755 0 LINE",
"800 0 LINE",
"884 0 LINE",
"886 20 LINE SMOOTH",
"887 31 OFFCURVE",
"882 37 OFFCURVE",
"869 38 CURVE",
"859 38 LINE SMOOTH",
"854 38 OFFCURVE",
"847 39 OFFCURVE",
"837 39 CURVE SMOOTH",
"827 39 OFFCURVE",
"817 40 OFFCURVE",
"805 40 CURVE",
"882 668 LINE",
"894 668 OFFCURVE",
"905 669 OFFCURVE",
"915 669 CURVE SMOOTH",
"925 669 OFFCURVE",
"932 670 OFFCURVE",
"937 670 CURVE SMOOTH"
);
}
);
width = 980;
}
);
note = M;
unicode = 004D;
},
{
glyphname = N;
layers = (
{
layerId = "18B4A443-2C69-4DCB-9619-77A7DD6AC8EC";
name = Light;
paths = (
{
closed = 1;
nodes = (
"734 707 LINE",
"689 707 LINE",
"602 707 LINE",
"600 688 LINE SMOOTH",
"599 677 OFFCURVE",
"604 671 OFFCURVE",
"617 670 CURVE",
"627 670 LINE SMOOTH",
"632 670 OFFCURVE",
"641 669 OFFCURVE",
"651 669 CURVE SMOOTH",
"661 669 OFFCURVE",
"672 668 OFFCURVE",
"684 668 CURVE",
"616 114 LINE SMOOTH",
"615 105 OFFCURVE",
"614 95 OFFCURVE",
"614 85 CURVE",
"231 698 LINE",
"229 702 OFFCURVE",
"226 705 OFFCURVE",
"223 706 CURVE SMOOTH",
"220 707 OFFCURVE",
"218 708 OFFCURVE",
"213 708 CURVE SMOOTH",
"188 708 LINE",
"103 708 LINE",
"101 688 LINE SMOOTH",
"100 677 OFFCURVE",
"106 671 OFFCURVE",
"119 670 CURVE",
"128 670 LINE SMOOTH",
"133 670 OFFCURVE",
"140 669 OFFCURVE",
"150 669 CURVE SMOOTH",
"160 669 OFFCURVE",
"171 668 OFFCURVE",
"183 668 CURVE",
"106 40 LINE",
"94 40 OFFCURVE",
"83 39 OFFCURVE",
"73 39 CURVE SMOOTH",
"63 39 OFFCURVE",
"55 38 OFFCURVE",
"50 38 CURVE SMOOTH",
"41 38 LINE",
"28 37 OFFCURVE",
"20 31 OFFCURVE",
"19 20 CURVE",
"16 0 LINE",
"101 0 LINE",
"145 0 LINE",
"232 0 LINE",
"234 20 LINE SMOOTH",
"235 31 OFFCURVE",
"229 37 OFFCURVE",
"216 38 CURVE",
"206 38 LINE SMOOTH",
"201 38 OFFCURVE",
"193 39 OFFCURVE",
"183 39 CURVE SMOOTH",
"173 39 OFFCURVE",
"162 40 OFFCURVE",
"150 40 CURVE",
"218 595 LINE SMOOTH",
"219 604 OFFCURVE",
"220 614 OFFCURVE",
"220 624 CURVE",
"605 10 LINE",
"609 3 OFFCURVE",
"614 0 OFFCURVE",
"622 0 CURVE SMOOTH",
"647 0 LINE",
"729 668 LINE",
"741 668 OFFCURVE",
"752 669 OFFCURVE",
"762 669 CURVE SMOOTH",
"772 669 OFFCURVE",
"779 670 OFFCURVE",
"784 670 CURVE SMOOTH",
"793 670 LINE",
"806 671 OFFCURVE",
"814 677 OFFCURVE",
"815 688 CURVE",
"818 707 LINE"
);
}
);
width = 827;
}
);
note = N;
unicode = 004E;
},
{
glyphname = O;
layers = (
{
layerId = "18B4A443-2C69-4DCB-9619-77A7DD6AC8EC";
name = Light;
paths = (
{
closed = 1;
nodes = (
"719 408 OFFCURVE",
"717 458 OFFCURVE",
"706 502 CURVE SMOOTH",
"695 546 OFFCURVE",
"677 584 OFFCURVE",
"651 616 CURVE SMOOTH",
"625 648 OFFCURVE",
"592 673 OFFCURVE",
"553 690 CURVE SMOOTH",
"514 707 OFFCURVE",
"469 716 OFFCURVE",
"419 716 CURVE SMOOTH",
"369 716 OFFCURVE",
"322 707 OFFCURVE",
"279 690 CURVE SMOOTH",
"236 673 OFFCURVE",
"198 648 OFFCURVE",
"164 616 CURVE SMOOTH",
"130 584 OFFCURVE",
"102 546 OFFCURVE",
"80 502 CURVE SMOOTH",
"58 458 OFFCURVE",
"44 408 OFFCURVE",
"37 354 CURVE SMOOTH",
"30 299 OFFCURVE",
"33 249 OFFCURVE",
"44 205 CURVE SMOOTH",
"55 161 OFFCURVE",
"73 123 OFFCURVE",
"99 91 CURVE SMOOTH",
"125 59 OFFCURVE",
"158 35 OFFCURVE",
"197 18 CURVE SMOOTH",
"236 1 OFFCURVE",
"280 -8 OFFCURVE",
"330 -8 CURVE SMOOTH",
"380 -8 OFFCURVE",
"428 1 OFFCURVE",
"471 18 CURVE SMOOTH",
"514 35 OFFCURVE",
"552 59 OFFCURVE",
"586 91 CURVE SMOOTH",
"620 123 OFFCURVE",
"647 161 OFFCURVE",
"669 205 CURVE SMOOTH",
"691 249 OFFCURVE",
"705 299 OFFCURVE",
"712 354 CURVE SMOOTH"
);
},
{
closed = 1;
nodes = (
"653 304 OFFCURVE",
"640 260 OFFCURVE",
"622 221 CURVE SMOOTH",
"604 182 OFFCURVE",
"580 148 OFFCURVE",
"552 121 CURVE SMOOTH",
"524 94 OFFCURVE",
"492 72 OFFCURVE",
"455 58 CURVE SMOOTH",
"418 44 OFFCURVE",
"378 37 OFFCURVE",
"335 37 CURVE SMOOTH",
"293 37 OFFCURVE",
"256 44 OFFCURVE",
"223 58 CURVE SMOOTH",
"190 72 OFFCURVE",
"162 94 OFFCURVE",
"140 121 CURVE SMOOTH",
"118 148 OFFCURVE",
"103 182 OFFCURVE",
"94 221 CURVE SMOOTH",
"85 260 OFFCURVE",
"84 304 OFFCURVE",
"90 354 CURVE SMOOTH",
"96 403 OFFCURVE",
"108 448 OFFCURVE",
"127 487 CURVE SMOOTH",
"146 526 OFFCURVE",
"169 560 OFFCURVE",
"198 587 CURVE SMOOTH",
"227 614 OFFCURVE",
"258 636 OFFCURVE",
"295 650 CURVE SMOOTH",
"332 664 OFFCURVE",
"371 672 OFFCURVE",
"413 672 CURVE SMOOTH",
"456 672 OFFCURVE",
"494 664 OFFCURVE",
"527 650 CURVE SMOOTH",
"560 636 OFFCURVE",
"588 614 OFFCURVE",
"609 587 CURVE SMOOTH",
"630 560 OFFCURVE",
"646 526 OFFCURVE",
"655 487 CURVE SMOOTH",
"664 448 OFFCURVE",
"665 403 OFFCURVE",
"659 354 CURVE SMOOTH"
);
}
);
width = 747;
}
);
note = O;
unicode = 004F;
},
{
glyphname = P;
layers = (
{
layerId = "18B4A443-2C69-4DCB-9619-77A7DD6AC8EC";
name = Light;
paths = (
{
closed = 1;
nodes = (
"503 689 OFFCURVE",
"443 707 OFFCURVE",
"360 707 CURVE SMOOTH",
"188 707 LINE",
"103 707 LINE",
"101 688 LINE SMOOTH",
"100 677 OFFCURVE",
"106 671 OFFCURVE",
"119 670 CURVE",
"128 670 LINE SMOOTH",
"133 670 OFFCURVE",
"140 669 OFFCURVE",
"150 669 CURVE SMOOTH",
"160 669 OFFCURVE",
"171 668 OFFCURVE",
"183 668 CURVE",
"106 40 LINE",
"94 40 OFFCURVE",
"83 39 OFFCURVE",
"73 39 CURVE SMOOTH",
"63 39 OFFCURVE",
"55 38 OFFCURVE",
"50 38 CURVE SMOOTH",
"41 38 LINE",
"28 37 OFFCURVE",
"20 31 OFFCURVE",
"19 20 CURVE",
"16 0 LINE",
"101 0 LINE",
"152 0 LINE",
"236 0 LINE",
"238 20 LINE SMOOTH",
"239 31 OFFCURVE",
"234 37 OFFCURVE",
"221 38 CURVE",
"211 38 LINE SMOOTH",
"206 38 OFFCURVE",
"199 39 OFFCURVE",
"189 39 CURVE SMOOTH",
"179 39 OFFCURVE",
"169 40 OFFCURVE",
"157 40 CURVE",
"187 285 LINE",
"308 285 LINE SMOOTH",
"347 285 OFFCURVE",
"383 291 OFFCURVE",
"415 301 CURVE SMOOTH",
"447 312 OFFCURVE",
"475 326 OFFCURVE",
"499 345 CURVE SMOOTH",
"523 364 OFFCURVE",
"542 386 OFFCURVE",
"557 412 CURVE SMOOTH",
"572 438 OFFCURVE",
"581 466 OFFCURVE",
"585 497 CURVE SMOOTH",
"593 564 OFFCURVE",
"579 617 OFFCURVE",
"541 653 CURVE SMOOTH"
);
},
{
closed = 1;
nodes = (
"500 408 OFFCURVE",
"485 390 OFFCURVE",
"466 375 CURVE SMOOTH",
"447 360 OFFCURVE",
"425 348 OFFCURVE",
"399 339 CURVE SMOOTH",
"373 330 OFFCURVE",
"344 326 OFFCURVE",
"313 326 CURVE SMOOTH",
"192 326 LINE",
"234 667 LINE",
"355 667 LINE SMOOTH",
"421 667 OFFCURVE",
"469 652 OFFCURVE",
"499 623 CURVE SMOOTH",
"529 594 OFFCURVE",
"541 552 OFFCURVE",
"534 498 CURVE SMOOTH",
"531 473 OFFCURVE",
"524 450 OFFCURVE",
"512 429 CURVE SMOOTH"
);
}
);
width = 604;
}
);
note = P;
unicode = 0050;
},
{
glyphname = Q;
layers = (
{
layerId = "18B4A443-2C69-4DCB-9619-77A7DD6AC8EC";
name = Light;
paths = (
{
closed = 1;
nodes = (
"718 408 OFFCURVE",
"716 458 OFFCURVE",
"705 502 CURVE SMOOTH",
"694 546 OFFCURVE",
"676 584 OFFCURVE",
"650 616 CURVE SMOOTH",
"624 648 OFFCURVE",
"592 673 OFFCURVE",
"553 690 CURVE SMOOTH",
"514 707 OFFCURVE",
"468 716 OFFCURVE",
"418 716 CURVE SMOOTH",
"368 716 OFFCURVE",
"322 707 OFFCURVE",
"279 690 CURVE SMOOTH",
"236 673 OFFCURVE",
"197 648 OFFCURVE",
"163 616 CURVE SMOOTH",
"129 584 OFFCURVE",
"102 546 OFFCURVE",
"80 502 CURVE SMOOTH",
"58 458 OFFCURVE",
"44 408 OFFCURVE",
"37 354 CURVE SMOOTH",
"30 299 OFFCURVE",
"32 249 OFFCURVE",
"43 205 CURVE SMOOTH",
"54 161 OFFCURVE",
"73 123 OFFCURVE",
"99 91 CURVE SMOOTH",
"125 59 OFFCURVE",
"157 35 OFFCURVE",
"196 18 CURVE SMOOTH",
"235 1 OFFCURVE",
"279 -8 OFFCURVE",
"329 -8 CURVE SMOOTH",
"355 -8 OFFCURVE",
"380 -5 OFFCURVE",
"404 0 CURVE SMOOTH",
"428 5 OFFCURVE",
"451 10 OFFCURVE",
"473 19 CURVE",
"604 -144 LINE",
"607 -149 OFFCURVE",
"612 -151 OFFCURVE",
"617 -153 CURVE SMOOTH",
"622 -155 OFFCURVE",
"628 -156 OFFCURVE",
"635 -156 CURVE SMOOTH",
"678 -156 LINE",
"518 41 LINE",
"544 56 OFFCURVE",
"567 74 OFFCURVE",
"589 95 CURVE SMOOTH",
"611 116 OFFCURVE",
"630 140 OFFCURVE",
"647 166 CURVE SMOOTH",
"664 192 OFFCURVE",
"677 221 OFFCURVE",
"688 253 CURVE SMOOTH",
"699 285 OFFCURVE",
"707 318 OFFCURVE",
"711 354 CURVE SMOOTH"
);
},
{
closed = 1;
nodes = (
"652 304 OFFCURVE",
"639 260 OFFCURVE",
"621 221 CURVE SMOOTH",
"603 182 OFFCURVE",
"579 148 OFFCURVE",
"551 121 CURVE SMOOTH",
"523 94 OFFCURVE",
"491 72 OFFCURVE",
"454 58 CURVE SMOOTH",
"417 44 OFFCURVE",
"378 37 OFFCURVE",
"335 37 CURVE SMOOTH",
"293 37 OFFCURVE",
"255 44 OFFCURVE",
"222 58 CURVE SMOOTH",
"189 72 OFFCURVE",
"162 94 OFFCURVE",
"140 121 CURVE SMOOTH",
"118 148 OFFCURVE",
"103 182 OFFCURVE",
"94 221 CURVE SMOOTH",
"85 260 OFFCURVE",
"83 304 OFFCURVE",
"89 354 CURVE SMOOTH",
"95 403 OFFCURVE",
"107 448 OFFCURVE",
"126 487 CURVE SMOOTH",
"145 526 OFFCURVE",
"168 560 OFFCURVE",
"197 587 CURVE SMOOTH",
"226 614 OFFCURVE",
"258 636 OFFCURVE",
"295 650 CURVE SMOOTH",
"332 664 OFFCURVE",
"371 672 OFFCURVE",
"413 672 CURVE SMOOTH",
"456 672 OFFCURVE",
"494 664 OFFCURVE",
"527 650 CURVE SMOOTH",
"560 636 OFFCURVE",
"588 614 OFFCURVE",
"609 587 CURVE SMOOTH",
"630 560 OFFCURVE",
"645 526 OFFCURVE",
"654 487 CURVE SMOOTH",
"663 448 OFFCURVE",
"664 403 OFFCURVE",
"658 354 CURVE SMOOTH"
);
}
);
width = 747;
}
);
note = Q;
unicode = 0051;
},
{
glyphname = R;
layers = (
{
layerId = "18B4A443-2C69-4DCB-9619-77A7DD6AC8EC";
name = Light;
paths = (
{
closed = 1;
nodes = (
"585 38 LINE",
"572 38 LINE SMOOTH",
"566 38 OFFCURVE",
"560 39 OFFCURVE",
"554 39 CURVE",
"374 306 LINE SMOOTH",
"369 314 OFFCURVE",
"362 321 OFFCURVE",
"355 326 CURVE",
"386 329 OFFCURVE",
"415 336 OFFCURVE",
"441 347 CURVE SMOOTH",
"467 358 OFFCURVE",
"490 372 OFFCURVE",
"510 389 CURVE SMOOTH",
"530 406 OFFCURVE",
"545 426 OFFCURVE",
"557 448 CURVE SMOOTH",
"569 470 OFFCURVE",
"577 495 OFFCURVE",
"580 522 CURVE SMOOTH",
"587 583 OFFCURVE",
"573 628 OFFCURVE",
"537 660 CURVE SMOOTH",
"501 691 OFFCURVE",
"441 707 OFFCURVE",
"359 707 CURVE SMOOTH",
"188 707 LINE",
"103 707 LINE",
"101 688 LINE SMOOTH",
"100 677 OFFCURVE",
"106 671 OFFCURVE",
"119 670 CURVE",
"128 670 LINE SMOOTH",
"133 670 OFFCURVE",
"140 669 OFFCURVE",
"150 669 CURVE SMOOTH",
"160 669 OFFCURVE",
"171 668 OFFCURVE",
"183 668 CURVE",
"106 40 LINE",
"94 40 OFFCURVE",
"83 39 OFFCURVE",
"73 39 CURVE SMOOTH",
"63 39 OFFCURVE",
"55 38 OFFCURVE",
"50 38 CURVE SMOOTH",
"41 38 LINE",
"28 37 OFFCURVE",
"20 31 OFFCURVE",
"19 20 CURVE",
"16 0 LINE",
"101 0 LINE",
"152 0 LINE",
"236 0 LINE",
"238 20 LINE SMOOTH",
"239 31 OFFCURVE",
"234 37 OFFCURVE",
"221 38 CURVE",
"211 38 LINE SMOOTH",
"206 38 OFFCURVE",
"199 39 OFFCURVE",
"189 39 CURVE SMOOTH",
"179 39 OFFCURVE",
"169 40 OFFCURVE",
"157 40 CURVE",
"191 320 LINE",
"275 320 LINE SMOOTH",
"289 320 OFFCURVE",
"299 319 OFFCURVE",
"305 316 CURVE SMOOTH",
"311 313 OFFCURVE",
"316 307 OFFCURVE",
"321 300 CURVE SMOOTH",
"512 13 LINE",
"515 8 OFFCURVE",
"518 5 OFFCURVE",
"522 3 CURVE SMOOTH",
"526 1 OFFCURVE",
"531 0 OFFCURVE",
"536 0 CURVE SMOOTH",
"541 0 LINE",
"580 0 LINE",
"606 0 LINE",
"609 20 LINE",
"610 31 OFFCURVE",
"604 37 OFFCURVE",
"591 38 CURVE"
);
},
{
closed = 1;
nodes = (
"196 358 LINE",
"234 667 LINE",
"354 667 LINE SMOOTH",
"417 667 OFFCURVE",
"464 654 OFFCURVE",
"494 630 CURVE SMOOTH",
"524 606 OFFCURVE",
"536 568 OFFCURVE",
"530 518 CURVE SMOOTH",
"527 493 OFFCURVE",
"519 472 OFFCURVE",
"508 452 CURVE SMOOTH",
"497 432 OFFCURVE",
"482 416 OFFCURVE",
"463 402 CURVE SMOOTH",
"444 388 OFFCURVE",
"422 376 OFFCURVE",
"396 369 CURVE SMOOTH",
"370 362 OFFCURVE",
"341 358 OFFCURVE",
"310 358 CURVE SMOOTH"
);
}
);
width = 644;
}
);
note = R;
unicode = 0052;
},
{
glyphname = S;
layers = (
{
layerId = "18B4A443-2C69-4DCB-9619-77A7DD6AC8EC";
name = Light;
paths = (
{
closed = 1;
nodes = (
"446 298 OFFCURVE",
"434 316 OFFCURVE",
"419 329 CURVE SMOOTH",
"404 342 OFFCURVE",
"387 353 OFFCURVE",
"367 362 CURVE SMOOTH",
"347 371 OFFCURVE",
"325 379 OFFCURVE",
"304 386 CURVE SMOOTH",
"282 393 OFFCURVE",
"262 401 OFFCURVE",
"242 408 CURVE",
"222 416 OFFCURVE",
"203 425 OFFCURVE",
"188 436 CURVE SMOOTH",
"173 447 OFFCURVE",
"161 460 OFFCURVE",
"153 476 CURVE SMOOTH",
"145 492 OFFCURVE",
"142 512 OFFCURVE",
"145 536 CURVE SMOOTH",
"147 554 OFFCURVE",
"153 571 OFFCURVE",
"162 588 CURVE SMOOTH",
"171 605 OFFCURVE",
"182 619 OFFCURVE",
"197 632 CURVE SMOOTH",
"212 645 OFFCURVE",
"230 655 OFFCURVE",
"250 662 CURVE SMOOTH",
"270 669 OFFCURVE",
"293 673 OFFCURVE",
"319 673 CURVE SMOOTH",
"367 673 OFFCURVE",
"410 665 OFFCURVE",
"448 648 CURVE",
"444 591 OFFCURVE",
"441 559 OFFCURVE",
"441 554 CURVE",
"440 538 OFFCURVE",
"446 529 OFFCURVE",
"460 529 CURVE SMOOTH",
"484 529 LINE",
"502 674 LINE",
"442 701 OFFCURVE",
"383 715 OFFCURVE",
"324 715 CURVE SMOOTH",
"291 715 OFFCURVE",
"262 710 OFFCURVE",
"235 700 CURVE SMOOTH",
"208 690 OFFCURVE",
"185 677 OFFCURVE",
"166 660 CURVE SMOOTH",
"147 643 OFFCURVE",
"131 624 OFFCURVE",
"119 602 CURVE SMOOTH",
"107 580 OFFCURVE",
"100 557 OFFCURVE",
"97 533 CURVE SMOOTH",
"93 503 OFFCURVE",
"95 477 OFFCURVE",
"103 457 CURVE SMOOTH",
"111 437 OFFCURVE",
"122 421 OFFCURVE",
"137 407 CURVE SMOOTH",
"152 393 OFFCURVE",
"170 383 OFFCURVE",
"190 374 CURVE SMOOTH",
"210 365 OFFCURVE",
"230 357 OFFCURVE",
"252 350 CURVE SMOOTH",
"315 329 LINE SMOOTH",
"335 322 OFFCURVE",
"354 312 OFFCURVE",
"369 301 CURVE SMOOTH",
"384 290 OFFCURVE",
"396 277 OFFCURVE",
"404 261 CURVE SMOOTH",
"412 245 OFFCURVE",
"415 224 OFFCURVE",
"412 199 CURVE SMOOTH",
"409 176 OFFCURVE",
"402 154 OFFCURVE",
"392 134 CURVE SMOOTH",
"382 114 OFFCURVE",
"367 97 OFFCURVE",
"350 82 CURVE SMOOTH",
"333 67 OFFCURVE",
"313 55 OFFCURVE",
"290 47 CURVE",
"267 38 OFFCURVE",
"242 35 OFFCURVE",
"214 35 CURVE SMOOTH",
"158 35 OFFCURVE",
"112 44 OFFCURVE",
"76 62 CURVE",
"77 76 OFFCURVE",
"79 91 OFFCURVE",
"80 107 CURVE SMOOTH",
"81 123 OFFCURVE",
"82 136 OFFCURVE",
"83 147 CURVE SMOOTH",
"84 158 OFFCURVE",
"84 164 OFFCURVE",
"84 165 CURVE",
"85 181 OFFCURVE",
"79 189 OFFCURVE",
"65 189 CURVE SMOOTH",
"41 189 LINE",
"25 57 LINE",
"23 44 LINE",
"22 31 LINE",
"80 5 OFFCURVE",
"141 -8 OFFCURVE",
"207 -8 CURVE SMOOTH",
"243 -8 OFFCURVE",
"276 -2 OFFCURVE",
"305 9 CURVE SMOOTH",
"334 20 OFFCURVE",
"360 36 OFFCURVE",
"382 55 CURVE SMOOTH",
"404 74 OFFCURVE",
"422 97 OFFCURVE",
"435 123 CURVE SMOOTH",
"448 149 OFFCURVE",
"456 177 OFFCURVE",
"460 207 CURVE SMOOTH",
"464 236 OFFCURVE",
"462 260 OFFCURVE",
"454 279 CURVE SMOOTH"
);
}
);
width = 518;
}
);
note = S;
unicode = 0053;
},
{
glyphname = T;
layers = (
{
layerId = "18B4A443-2C69-4DCB-9619-77A7DD6AC8EC";
name = Light;
paths = (
{
closed = 1;
nodes = (
"602 707 LINE",
"588 707 LINE",
"67 707 LINE",
"52 707 LINE",
"46 707 LINE",
"28 561 LINE",
"52 561 LINE SMOOTH",
"66 561 OFFCURVE",
"73 569 OFFCURVE",
"76 585 CURVE",
"77 592 OFFCURVE",
"82 618 OFFCURVE",
"90 664 CURVE",
"297 664 LINE",
"220 40 LINE",
"208 40 OFFCURVE",
"197 39 OFFCURVE",
"187 39 CURVE SMOOTH",
"177 39 OFFCURVE",
"170 38 OFFCURVE",
"165 38 CURVE SMOOTH",
"156 38 LINE",
"143 37 OFFCURVE",
"135 31 OFFCURVE",
"134 20 CURVE",
"131 0 LINE",
"215 0 LINE",
"266 0 LINE",
"351 0 LINE",
"353 20 LINE SMOOTH",
"354 31 OFFCURVE",
"348 37 OFFCURVE",
"335 38 CURVE",
"326 38 LINE SMOOTH",
"321 38 OFFCURVE",
"314 39 OFFCURVE",
"304 39 CURVE SMOOTH",
"294 39 OFFCURVE",
"283 40 OFFCURVE",
"271 40 CURVE",
"348 664 LINE",
"554 664 LINE",
"550 613 OFFCURVE",
"548 587 OFFCURVE",
"548 585 CURVE",
"547 569 OFFCURVE",
"553 561 OFFCURVE",
"567 561 CURVE SMOOTH",
"591 561 LINE",
"609 707 LINE"
);
}
);
width = 620;
}
);
note = T;
rightKerningGroup = T;
unicode = 0054;
},
{
glyphname = U;
layers = (
{
layerId = "18B4A443-2C69-4DCB-9619-77A7DD6AC8EC";
name = Light;
paths = (
{
closed = 1;
nodes = (
"661 707 LINE",
"610 707 LINE",
"514 707 LINE",
"511 688 LINE",
"510 677 OFFCURVE",
"516 671 OFFCURVE",
"529 670 CURVE",
"541 670 LINE SMOOTH",
"548 670 OFFCURVE",
"558 669 OFFCURVE",
"570 669 CURVE SMOOTH",
"582 669 OFFCURVE",
"593 668 OFFCURVE",
"605 668 CURVE",
"557 270 LINE SMOOTH",
"553 237 OFFCURVE",
"544 207 OFFCURVE",
"531 178 CURVE SMOOTH",
"518 149 OFFCURVE",
"500 124 OFFCURVE",
"479 103 CURVE SMOOTH",
"458 82 OFFCURVE",
"432 66 OFFCURVE",
"404 54 CURVE SMOOTH",
"376 42 OFFCURVE",
"345 36 OFFCURVE",
"311 36 CURVE SMOOTH",
"277 36 OFFCURVE",
"247 42 OFFCURVE",
"222 54 CURVE SMOOTH",
"197 66 OFFCURVE",
"176 83 OFFCURVE",
"160 104 CURVE SMOOTH",
"144 125 OFFCURVE",
"133 150 OFFCURVE",
"127 178 CURVE SMOOTH",
"121 206 OFFCURVE",
"119 237 OFFCURVE",
"123 270 CURVE SMOOTH",
"172 668 LINE",
"184 668 OFFCURVE",
"196 669 OFFCURVE",
"208 669 CURVE SMOOTH",
"220 669 OFFCURVE",
"230 670 OFFCURVE",
"237 670 CURVE SMOOTH",
"249 670 LINE",
"262 671 OFFCURVE",
"270 677 OFFCURVE",
"271 688 CURVE",
"274 707 LINE",
"177 707 LINE",
"125 707 LINE",
"41 707 LINE",
"39 688 LINE SMOOTH",
"38 677 OFFCURVE",
"43 671 OFFCURVE",
"56 670 CURVE",
"66 670 LINE SMOOTH",
"71 670 OFFCURVE",
"78 669 OFFCURVE",
"88 669 CURVE SMOOTH",
"98 669 OFFCURVE",
"108 668 OFFCURVE",
"120 668 CURVE",
"72 270 LINE SMOOTH",
"67 231 OFFCURVE",
"69 195 OFFCURVE",
"77 161 CURVE SMOOTH",
"85 127 OFFCURVE",
"99 97 OFFCURVE",
"119 72 CURVE SMOOTH",
"139 47 OFFCURVE",
"165 27 OFFCURVE",
"196 13 CURVE SMOOTH",
"227 -1 OFFCURVE",
"264 -8 OFFCURVE",
"305 -8 CURVE SMOOTH",
"346 -8 OFFCURVE",
"385 -1 OFFCURVE",
"420 13 CURVE SMOOTH",
"455 27 OFFCURVE",
"486 47 OFFCURVE",
"512 72 CURVE SMOOTH",
"538 97 OFFCURVE",
"560 127 OFFCURVE",
"576 161 CURVE SMOOTH",
"592 195 OFFCURVE",
"603 231 OFFCURVE",
"608 270 CURVE SMOOTH",
"656 668 LINE",
"668 668 OFFCURVE",
"679 669 OFFCURVE",
"689 669 CURVE SMOOTH",
"699 669 OFFCURVE",
"707 670 OFFCURVE",
"712 670 CURVE SMOOTH",
"721 670 LINE",
"734 671 OFFCURVE",
"742 677 OFFCURVE",
"743 688 CURVE",
"746 707 LINE"
);
}
);
width = 754;
}
);
note = U;
unicode = 0055;
},
{
glyphname = V;
layers = (
{
layerId = "18B4A443-2C69-4DCB-9619-77A7DD6AC8EC";
name = Light;
paths = (
{
closed = 1;
nodes = (
"704 707 LINE",
"664 707 LINE",
"662 707 LINE",
"556 707 LINE",
"554 688 LINE SMOOTH",
"553 677 OFFCURVE",
"558 671 OFFCURVE",
"571 670 CURVE",
"580 670 LINE SMOOTH",
"584 670 OFFCURVE",
"590 669 OFFCURVE",
"599 669 CURVE SMOOTH",
"608 669 OFFCURVE",
"618 668 OFFCURVE",
"629 668 CURVE",
"331 107 LINE SMOOTH",
"323 92 OFFCURVE",
"316 76 OFFCURVE",
"310 58 CURVE",
"308 75 OFFCURVE",
"305 92 OFFCURVE",
"301 107 CURVE SMOOTH",
"139 668 LINE",
"150 668 OFFCURVE",
"161 669 OFFCURVE",
"170 669 CURVE SMOOTH",
"179 669 OFFCURVE",
"185 670 OFFCURVE",
"189 670 CURVE SMOOTH",
"197 670 LINE",
"210 671 OFFCURVE",
"218 677 OFFCURVE",
"219 688 CURVE",
"222 707 LINE",
"115 707 LINE",
"74 707 LINE",
"32 707 LINE",
"30 688 LINE SMOOTH",
"29 677 OFFCURVE",
"34 671 OFFCURVE",
"47 670 CURVE",
"54 670 LINE SMOOTH",
"57 670 OFFCURVE",
"62 669 OFFCURVE",
"67 669 CURVE SMOOTH",
"72 669 OFFCURVE",
"79 668 OFFCURVE",
"86 668 CURVE",
"279 0 LINE",
"325 0 LINE",
"683 668 LINE",
"690 668 OFFCURVE",
"697 669 OFFCURVE",
"702 669 CURVE SMOOTH",
"707 669 OFFCURVE",
"712 670 OFFCURVE",
"715 670 CURVE SMOOTH",
"722 670 LINE",
"735 671 OFFCURVE",
"743 677 OFFCURVE",
"744 688 CURVE SMOOTH",
"746 707 LINE"
);
}
);
width = 755;
}
);
note = V;
rightKerningGroup = V;
unicode = 0056;
},
{
glyphname = W;
layers = (
{
layerId = "18B4A443-2C69-4DCB-9619-77A7DD6AC8EC";
name = Light;
paths = (
{
closed = 1;
nodes = (
"1044 707 LINE",
"1005 707 LINE",
"1002 707 LINE",
"896 707 LINE",
"894 688 LINE SMOOTH",
"893 677 OFFCURVE",
"899 671 OFFCURVE",
"912 670 CURVE",
"920 670 LINE SMOOTH",
"924 670 OFFCURVE",
"932 669 OFFCURVE",
"941 669 CURVE SMOOTH",
"950 669 OFFCURVE",
"961 668 OFFCURVE",
"973 668 CURVE",
"734 113 LINE SMOOTH",
"731 106 OFFCURVE",
"729 99 OFFCURVE",
"727 91 CURVE SMOOTH",
"725 83 OFFCURVE",
"722 76 OFFCURVE",
"719 68 CURVE",
"718 76 OFFCURVE",
"718 85 OFFCURVE",
"717 92 CURVE SMOOTH",
"716 99 OFFCURVE",
"715 106 OFFCURVE",
"713 113 CURVE",
"585 694 LINE SMOOTH",
"584 698 OFFCURVE",
"582 702 OFFCURVE",
"579 704 CURVE SMOOTH",
"576 706 OFFCURVE",
"573 707 OFFCURVE",
"568 707 CURVE SMOOTH",
"554 707 LINE SMOOTH",
"549 707 OFFCURVE",
"545 706 OFFCURVE",
"541 703 CURVE SMOOTH",
"537 700 OFFCURVE",
"535 698 OFFCURVE",
"533 694 CURVE SMOOTH",
"262 112 LINE SMOOTH",
"259 105 OFFCURVE",
"256 99 OFFCURVE",
"253 91 CURVE",
"251 84 OFFCURVE",
"248 76 OFFCURVE",
"245 67 CURVE",
"244 74 OFFCURVE",
"244 82 OFFCURVE",
"243 91 CURVE SMOOTH",
"242 99 OFFCURVE",
"242 106 OFFCURVE",
"241 113 CURVE",
"138 668 LINE",
"150 668 OFFCURVE",
"160 669 OFFCURVE",
"169 669 CURVE SMOOTH",
"178 669 OFFCURVE",
"185 670 OFFCURVE",
"189 670 CURVE SMOOTH",
"197 670 LINE",
"210 671 OFFCURVE",
"218 677 OFFCURVE",
"219 688 CURVE",
"222 707 LINE",
"116 707 LINE",
"74 707 LINE",
"32 707 LINE",
"30 688 LINE SMOOTH",
"29 677 OFFCURVE",
"34 671 OFFCURVE",
"47 670 CURVE",
"54 670 LINE SMOOTH",
"57 670 OFFCURVE",
"60 669 OFFCURVE",
"65 669 CURVE SMOOTH",
"70 669 OFFCURVE",
"76 668 OFFCURVE",
"82 668 CURVE",
"210 0 LINE",
"256 0 LINE",
"541 614 LINE SMOOTH",
"545 622 OFFCURVE",
"548 630 OFFCURVE",
"551 639 CURVE",
"552 630 OFFCURVE",
"553 622 OFFCURVE",
"555 614 CURVE SMOOTH",
"688 0 LINE",
"734 0 LINE",
"1027 668 LINE",
"1033 668 OFFCURVE",
"1038 669 OFFCURVE",
"1043 669 CURVE SMOOTH",
"1048 669 OFFCURVE",
"1052 670 OFFCURVE",
"1055 670 CURVE SMOOTH",
"1062 670 LINE",
"1075 671 OFFCURVE",
"1083 677 OFFCURVE",
"1084 688 CURVE SMOOTH",
"1086 707 LINE"
);
}
);
width = 1095;
}
);
note = W;
rightKerningGroup = W;
unicode = 0057;
},
{
glyphname = X;
layers = (
{
layerId = "18B4A443-2C69-4DCB-9619-77A7DD6AC8EC";
name = Light;
paths = (
{
closed = 1;
nodes = (
"640 38 LINE SMOOTH",
"637 38 OFFCURVE",
"632 39 OFFCURVE",
"627 39 CURVE SMOOTH",
"622 39 OFFCURVE",
"617 40 OFFCURVE",
"610 40 CURVE",
"423 366 LINE",
"676 668 LINE",
"684 668 OFFCURVE",
"690 669 OFFCURVE",
"696 669 CURVE SMOOTH",
"702 669 OFFCURVE",
"707 670 OFFCURVE",
"710 670 CURVE SMOOTH",
"717 670 LINE",
"730 671 OFFCURVE",
"738 677 OFFCURVE",
"739 688 CURVE SMOOTH",
"741 707 LINE",
"709 707 LINE",
"691 707 LINE",
"660 707 LINE",
"657 707 LINE",
"543 707 LINE",
"541 688 LINE SMOOTH",
"540 677 OFFCURVE",
"545 671 OFFCURVE",
"558 670 CURVE",
"567 670 LINE SMOOTH",
"571 670 OFFCURVE",
"579 669 OFFCURVE",
"588 669 CURVE SMOOTH",
"597 669 OFFCURVE",
"608 668 OFFCURVE",
"620 668 CURVE",
"400 403 LINE",
"398 400 OFFCURVE",
"396 398 OFFCURVE",
"395 395 CURVE",
"394 393 OFFCURVE",
"392 390 OFFCURVE",
"391 387 CURVE",
"231 668 LINE",
"242 668 OFFCURVE",
"252 669 OFFCURVE",
"261 669 CURVE SMOOTH",
"270 669 OFFCURVE",
"276 670 OFFCURVE",
"279 670 CURVE SMOOTH",
"286 670 LINE",
"299 671 OFFCURVE",
"307 677 OFFCURVE",
"308 688 CURVE",
"311 707 LINE",
"201 707 LINE",
"199 707 LINE",
"163 707 LINE",
"149 707 LINE",
"117 707 LINE",
"114 688 LINE",
"113 677 OFFCURVE",
"119 671 OFFCURVE",
"132 670 CURVE",
"139 670 LINE SMOOTH",
"142 670 OFFCURVE",
"146 669 OFFCURVE",
"152 669 CURVE SMOOTH",
"158 669 OFFCURVE",
"164 668 OFFCURVE",
"172 668 CURVE",
"350 363 LINE",
"83 40 LINE",
"75 40 OFFCURVE",
"69 39 OFFCURVE",
"63 39 CURVE SMOOTH",
"57 39 OFFCURVE",
"53 38 OFFCURVE",
"49 38 CURVE SMOOTH",
"42 38 LINE",
"29 37 OFFCURVE",
"21 31 OFFCURVE",
"20 20 CURVE SMOOTH",
"18 0 LINE",
"50 0 LINE",
"69 0 LINE",
"97 0 LINE",
"102 0 LINE",
"216 0 LINE",
"219 20 LINE",
"220 31 OFFCURVE",
"214 37 OFFCURVE",
"201 38 CURVE",
"192 38 LINE SMOOTH",
"188 38 OFFCURVE",
"180 39 OFFCURVE",
"171 39 CURVE SMOOTH",
"162 39 OFFCURVE",
"152 40 OFFCURVE",
"140 40 CURVE SMOOTH",
"139 40 LINE",
"374 324 LINE SMOOTH",
"378 329 OFFCURVE",
"381 333 OFFCURVE",
"383 338 CURVE",
"551 40 LINE",
"540 40 OFFCURVE",
"529 39 OFFCURVE",
"520 39 CURVE SMOOTH",
"511 39 OFFCURVE",
"505 38 OFFCURVE",
"502 38 CURVE SMOOTH",
"494 38 LINE",
"481 37 OFFCURVE",
"473 31 OFFCURVE",
"472 20 CURVE SMOOTH",
"470 0 LINE",
"577 0 LINE",
"582 0 LINE",
"617 0 LINE",
"632 0 LINE",
"662 0 LINE",
"664 20 LINE SMOOTH",
"665 31 OFFCURVE",
"659 37 OFFCURVE",
"646 38 CURVE"
);
}
);
width = 750;
}
);
note = X;
unicode = 0058;
},
{
glyphname = Y;
layers = (
{
layerId = "18B4A443-2C69-4DCB-9619-77A7DD6AC8EC";
name = Light;
paths = (
{
closed = 1;
nodes = (
"638 707 LINE",
"633 707 LINE",
"593 707 LINE",
"586 707 LINE",
"486 707 LINE",
"483 688 LINE",
"482 677 OFFCURVE",
"488 671 OFFCURVE",
"501 670 CURVE",
"508 670 LINE SMOOTH",
"512 670 OFFCURVE",
"518 669 OFFCURVE",
"526 669 CURVE SMOOTH",
"534 669 OFFCURVE",
"543 668 OFFCURVE",
"553 668 CURVE",
"331 370 LINE SMOOTH",
"325 362 OFFCURVE",
"320 355 OFFCURVE",
"316 348 CURVE SMOOTH",
"312 341 OFFCURVE",
"309 333 OFFCURVE",
"305 326 CURVE",
"303 333 OFFCURVE",
"300 341 OFFCURVE",
"298 348 CURVE SMOOTH",
"296 355 OFFCURVE",
"293 362 OFFCURVE",
"289 370 CURVE SMOOTH",
"140 668 LINE",
"150 668 OFFCURVE",
"159 669 OFFCURVE",
"167 669 CURVE SMOOTH",
"175 669 OFFCURVE",
"181 670 OFFCURVE",
"185 670 CURVE SMOOTH",
"192 670 LINE",
"205 671 OFFCURVE",
"213 677 OFFCURVE",
"214 688 CURVE",
"217 707 LINE",
"116 707 LINE",
"108 707 LINE",
"69 707 LINE",
"64 707 LINE",
"32 707 LINE",
"30 688 LINE SMOOTH",
"29 677 OFFCURVE",
"34 671 OFFCURVE",
"47 670 CURVE SMOOTH",
"64 669 OFFCURVE",
"77 668 OFFCURVE",
"84 668 CURVE",
"274 292 LINE",
"243 40 LINE",
"231 40 OFFCURVE",
"221 39 OFFCURVE",
"211 39 CURVE SMOOTH",
"201 39 OFFCURVE",
"193 38 OFFCURVE",
"188 38 CURVE SMOOTH",
"179 38 LINE",
"166 37 OFFCURVE",
"158 31 OFFCURVE",
"157 20 CURVE",
"154 0 LINE",
"239 0 LINE",
"290 0 LINE",
"374 0 LINE",
"377 20 LINE",
"378 31 OFFCURVE",
"372 37 OFFCURVE",
"359 38 CURVE",
"350 38 LINE SMOOTH",
"345 38 OFFCURVE",
"337 39 OFFCURVE",
"327 39 CURVE SMOOTH",
"317 39 OFFCURVE",
"307 40 OFFCURVE",
"295 40 CURVE",
"326 292 LINE",
"609 668 LINE",
"617 668 OFFCURVE",
"629 669 OFFCURVE",
"646 670 CURVE SMOOTH",
"659 671 OFFCURVE",
"667 677 OFFCURVE",
"668 688 CURVE SMOOTH",
"670 707 LINE"
);
}
);
width = 680;
}
);
note = Y;
rightKerningGroup = Y;
unicode = 0059;
},
{
glyphname = Z;
layers = (
{
layerId = "18B4A443-2C69-4DCB-9619-77A7DD6AC8EC";
name = Light;
paths = (
{
closed = 1;
nodes = (
"629 707 LINE",
"118 707 LINE",
"118 707 LINE",
"99 556 LINE",
"124 556 LINE SMOOTH",
"138 556 OFFCURVE",
"145 564 OFFCURVE",
"148 580 CURVE",
"148 581 OFFCURVE",
"149 586 OFFCURVE",
"151 593 CURVE SMOOTH",
"153 600 OFFCURVE",
"154 611 OFFCURVE",
"157 624 CURVE SMOOTH",
"160 637 OFFCURVE",
"162 650 OFFCURVE",
"165 665 CURVE",
"556 665 LINE",
"28 36 LINE SMOOTH",
"23 30 OFFCURVE",
"21 25 OFFCURVE",
"20 19 CURVE",
"18 0 LINE",
"538 0 LINE",
"538 0 LINE",
"557 152 LINE",
"532 152 LINE SMOOTH",
"518 152 OFFCURVE",
"511 143 OFFCURVE",
"508 127 CURVE",
"508 126 OFFCURVE",
"507 121 OFFCURVE",
"505 114 CURVE SMOOTH",
"503 107 OFFCURVE",
"501 97 OFFCURVE",
"498 84 CURVE SMOOTH",
"495 71 OFFCURVE",
"494 57 OFFCURVE",
"491 42 CURVE",
"91 42 LINE",
"617 669 LINE",
"622 676 OFFCURVE",
"626 683 OFFCURVE",
"627 690 CURVE SMOOTH"
);
}
);
width = 638;
}
);
note = Z;
unicode = 005A;
},
{
glyphname = bracketleft;
layers = (
{
layerId = "18B4A443-2C69-4DCB-9619-77A7DD6AC8EC";
name = Light;
paths = (
{
closed = 1;
nodes = (
"25 -132 LINE",
"184 -132 LINE",
"186 -114 LINE",
"187 -110 OFFCURVE",
"186 -107 OFFCURVE",
"183 -104 CURVE SMOOTH",
"180 -101 OFFCURVE",
"177 -100 OFFCURVE",
"172 -100 CURVE SMOOTH",
"69 -100 LINE",
"171 726 LINE",
"274 726 LINE SMOOTH",
"279 726 OFFCURVE",
"283 727 OFFCURVE",
"286 730 CURVE SMOOTH",
"289 733 OFFCURVE",
"290 736 OFFCURVE",
"291 740 CURVE",
"293 758 LINE",
"134 758 LINE"
);
}
);
width = 308;
}
);
note = bracketleft;
unicode = 005B;
},
{
glyphname = backslash;
layers = (
{
layerId = "18B4A443-2C69-4DCB-9619-77A7DD6AC8EC";
name = Light;
paths = (
{
closed = 1;
nodes = (
"36 728 LINE",
"255 -22 LINE SMOOTH",
"257 -29 OFFCURVE",
"260 -34 OFFCURVE",
"265 -37 CURVE SMOOTH",
"270 -40 OFFCURVE",
"275 -42 OFFCURVE",
"281 -42 CURVE SMOOTH",
"301 -42 LINE",
"82 709 LINE",
"79 721 OFFCURVE",
"70 728 OFFCURVE",
"57 728 CURVE SMOOTH"
);
}
);
width = 327;
}
);
note = backslash;
unicode = 005C;
},
{
glyphname = bracketright;
layers = (
{
layerId = "18B4A443-2C69-4DCB-9619-77A7DD6AC8EC";
name = Light;
paths = (
{
closed = 1;
nodes = (
"18 -132 LINE",
"176 -132 LINE",
"286 758 LINE",
"127 758 LINE",
"125 740 LINE",
"124 736 OFFCURVE",
"126 733 OFFCURVE",
"128 730 CURVE SMOOTH",
"130 727 OFFCURVE",
"133 726 OFFCURVE",
"138 726 CURVE SMOOTH",
"241 726 LINE",
"140 -100 LINE",
"37 -100 LINE SMOOTH",
"32 -100 OFFCURVE",
"28 -101 OFFCURVE",
"25 -104 CURVE SMOOTH",
"22 -107 OFFCURVE",
"21 -110 OFFCURVE",
"20 -114 CURVE"
);
}
);
width = 316;
}
);
note = bracketright;
unicode = 005D;
},
{
glyphname = asciicircum;
layers = (
{
layerId = "18B4A443-2C69-4DCB-9619-77A7DD6AC8EC";
name = Light;
paths = (
{
closed = 1;
nodes = (
"246 708 LINE",
"38 400 LINE",
"74 400 LINE SMOOTH",
"78 400 OFFCURVE",
"81 402 OFFCURVE",
"84 404 CURVE SMOOTH",
"87 406 OFFCURVE",
"90 409 OFFCURVE",
"92 412 CURVE SMOOTH",
"239 630 LINE",
"243 635 OFFCURVE",
"245 640 OFFCURVE",
"248 645 CURVE SMOOTH",
"251 650 OFFCURVE",
"254 656 OFFCURVE",
"256 661 CURVE",
"257 656 OFFCURVE",
"258 651 OFFCURVE",
"260 646 CURVE SMOOTH",
"262 641 OFFCURVE",
"264 636 OFFCURVE",
"266 630 CURVE",
"360 412 LINE",
"361 409 OFFCURVE",
"363 405 OFFCURVE",
"366 403 CURVE SMOOTH",
"369 401 OFFCURVE",
"371 400 OFFCURVE",
"375 400 CURVE SMOOTH",
"409 400 LINE",
"276 708 LINE"
);
}
);
width = 443;
}
);
note = asciicircum;
unicode = 005E;
},
{
glyphname = underscore;
layers = (
{
layerId = "18B4A443-2C69-4DCB-9619-77A7DD6AC8EC";
name = Light;
paths = (
{
closed = 1;
nodes = (
"477 -102 LINE",
"83 -102 LINE",
"78 -136 LINE",
"472 -136 LINE"
);
}
);
width = 563;
}
);
note = underscore;
unicode = 005F;
},
{
glyphname = grave;
layers = (
{
layerId = "18B4A443-2C69-4DCB-9619-77A7DD6AC8EC";
name = Light;
paths = (
{
closed = 1;
nodes = (
"62 716 LINE",
"155 589 LINE",
"157 586 OFFCURVE",
"160 583 OFFCURVE",
"163 582 CURVE SMOOTH",
"166 581 OFFCURVE",
"169 580 OFFCURVE",
"173 580 CURVE SMOOTH",
"200 580 LINE",
"136 700 LINE SMOOTH",
"133 706 OFFCURVE",
"130 710 OFFCURVE",
"126 712 CURVE SMOOTH",
"122 714 OFFCURVE",
"116 716 OFFCURVE",
"108 716 CURVE SMOOTH"
);
}
);
width = 251;
}
);
note = grave;
unicode = 0060;
},
{
glyphname = a;
layers = (
{
layerId = "18B4A443-2C69-4DCB-9619-77A7DD6AC8EC";
name = Light;
paths = (
{
closed = 1;
nodes = (
"422 38 LINE",
"406 38 LINE SMOOTH",
"399 38 OFFCURVE",
"391 39 OFFCURVE",
"383 39 CURVE",
"437 481 LINE",
"420 490 OFFCURVE",
"402 496 OFFCURVE",
"385 499 CURVE",
"368 503 OFFCURVE",
"349 504 OFFCURVE",
"329 504 CURVE SMOOTH",
"302 504 OFFCURVE",
"276 500 OFFCURVE",
"250 491 CURVE SMOOTH",
"224 482 OFFCURVE",
"201 470 OFFCURVE",
"178 455 CURVE SMOOTH",
"155 440 OFFCURVE",
"135 422 OFFCURVE",
"116 401 CURVE SMOOTH",
"97 380 OFFCURVE",
"81 357 OFFCURVE",
"68 332 CURVE SMOOTH",
"54 307 OFFCURVE",
"43 280 OFFCURVE",
"36 252 CURVE SMOOTH",
"29 224 OFFCURVE",
"26 196 OFFCURVE",
"26 167 CURVE SMOOTH",
"26 140 OFFCURVE",
"29 116 OFFCURVE",
"34 95 CURVE SMOOTH",
"39 74 OFFCURVE",
"46 56 OFFCURVE",
"57 41 CURVE",
"67 26 OFFCURVE",
"81 14 OFFCURVE",
"97 6 CURVE SMOOTH",
"113 -2 OFFCURVE",
"131 -6 OFFCURVE",
"152 -6 CURVE SMOOTH",
"172 -6 OFFCURVE",
"192 -2 OFFCURVE",
"211 7 CURVE SMOOTH",
"230 16 OFFCURVE",
"248 27 OFFCURVE",
"265 43 CURVE SMOOTH",
"282 59 OFFCURVE",
"298 77 OFFCURVE",
"313 99 CURVE SMOOTH",
"328 121 OFFCURVE",
"342 145 OFFCURVE",
"355 172 CURVE",
"338 16 LINE",
"338 12 OFFCURVE",
"340 8 OFFCURVE",
"342 5 CURVE SMOOTH",
"344 2 OFFCURVE",
"349 0 OFFCURVE",
"355 0 CURVE SMOOTH",
"367 0 LINE",
"378 0 LINE",
"444 0 LINE",
"447 20 LINE",
"448 31 OFFCURVE",
"442 37 OFFCURVE",
"429 38 CURVE"
);
},
{
closed = 1;
nodes = (
"308 138 OFFCURVE",
"293 114 OFFCURVE",
"276 94 CURVE SMOOTH",
"259 75 OFFCURVE",
"242 60 OFFCURVE",
"223 49 CURVE SMOOTH",
"205 38 OFFCURVE",
"186 33 OFFCURVE",
"167 33 CURVE SMOOTH",
"135 33 OFFCURVE",
"111 45 OFFCURVE",
"96 70 CURVE SMOOTH",
"81 95 OFFCURVE",
"73 130 OFFCURVE",
"73 175 CURVE SMOOTH",
"73 200 OFFCURVE",
"76 225 OFFCURVE",
"82 249 CURVE SMOOTH",
"88 273 OFFCURVE",
"98 296 OFFCURVE",
"109 318 CURVE SMOOTH",
"120 340 OFFCURVE",
"134 361 OFFCURVE",
"149 379 CURVE SMOOTH",
"164 397 OFFCURVE",
"182 413 OFFCURVE",
"200 426 CURVE SMOOTH",
"218 439 OFFCURVE",
"238 449 OFFCURVE",
"259 457 CURVE SMOOTH",
"280 465 OFFCURVE",
"302 469 OFFCURVE",
"324 469 CURVE SMOOTH",
"347 469 OFFCURVE",
"368 466 OFFCURVE",
"388 459 CURVE",
"363 256 LINE",
"351 223 OFFCURVE",
"338 192 OFFCURVE",
"323 165 CURVE SMOOTH"
);
}
);
width = 502;
}
);
note = a;
unicode = 0061;
},
{
glyphname = b;
layers = (
{
layerId = "18B4A443-2C69-4DCB-9619-77A7DD6AC8EC";
name = Light;
paths = (
{
closed = 1;
nodes = (
"426 484 OFFCURVE",
"381 506 OFFCURVE",
"320 506 CURVE SMOOTH",
"284 506 OFFCURVE",
"250 497 OFFCURVE",
"219 480 CURVE SMOOTH",
"188 463 OFFCURVE",
"160 440 OFFCURVE",
"134 411 CURVE",
"173 728 LINE",
"125 728 LINE",
"53 728 LINE",
"50 708 LINE",
"49 697 OFFCURVE",
"55 691 OFFCURVE",
"68 690 CURVE",
"73 690 LINE SMOOTH",
"75 690 OFFCURVE",
"78 689 OFFCURVE",
"81 689 CURVE SMOOTH",
"96 689 LINE SMOOTH",
"103 689 OFFCURVE",
"111 688 OFFCURVE",
"120 688 CURVE",
"42 47 LINE",
"38 22 LINE",
"124 3 OFFCURVE",
"189 -6 OFFCURVE",
"234 -6 CURVE SMOOTH",
"269 -6 OFFCURVE",
"301 1 OFFCURVE",
"330 14 CURVE SMOOTH",
"359 27 OFFCURVE",
"383 45 OFFCURVE",
"404 68 CURVE SMOOTH",
"425 91 OFFCURVE",
"443 119 OFFCURVE",
"456 150 CURVE SMOOTH",
"469 181 OFFCURVE",
"479 216 OFFCURVE",
"483 252 CURVE SMOOTH",
"493 337 OFFCURVE",
"484 400 OFFCURVE",
"455 442 CURVE SMOOTH"
);
},
{
closed = 1;
nodes = (
"401 135 OFFCURVE",
"387 111 OFFCURVE",
"370 92 CURVE SMOOTH",
"353 72 OFFCURVE",
"332 58 OFFCURVE",
"309 47 CURVE SMOOTH",
"286 36 OFFCURVE",
"259 31 OFFCURVE",
"230 31 CURVE SMOOTH",
"204 31 OFFCURVE",
"158 38 OFFCURVE",
"90 52 CURVE",
"129 371 LINE",
"154 401 OFFCURVE",
"180 425 OFFCURVE",
"209 442 CURVE SMOOTH",
"238 459 OFFCURVE",
"269 468 OFFCURVE",
"302 468 CURVE SMOOTH",
"353 468 OFFCURVE",
"390 450 OFFCURVE",
"413 415 CURVE SMOOTH",
"436 380 OFFCURVE",
"443 326 OFFCURVE",
"434 252 CURVE SMOOTH",
"430 219 OFFCURVE",
"423 189 OFFCURVE",
"412 162 CURVE SMOOTH"
);
}
);
width = 522;
}
);
note = b;
unicode = 0062;
},
{
glyphname = c;
layers = (
{
layerId = "18B4A443-2C69-4DCB-9619-77A7DD6AC8EC";
name = Light;
paths = (
{
closed = 1;
nodes = (
"380 80 LINE SMOOTH",
"378 83 OFFCURVE",
"375 85 OFFCURVE",
"371 85 CURVE SMOOTH",
"367 85 OFFCURVE",
"362 83 OFFCURVE",
"355 77 CURVE SMOOTH",
"348 71 OFFCURVE",
"338 65 OFFCURVE",
"327 58 CURVE SMOOTH",
"316 51 OFFCURVE",
"302 46 OFFCURVE",
"285 40 CURVE SMOOTH",
"268 34 OFFCURVE",
"248 31 OFFCURVE",
"224 31 CURVE SMOOTH",
"198 31 OFFCURVE",
"175 36 OFFCURVE",
"155 46 CURVE SMOOTH",
"135 56 OFFCURVE",
"118 69 OFFCURVE",
"105 88 CURVE SMOOTH",
"92 106 OFFCURVE",
"84 129 OFFCURVE",
"79 156 CURVE SMOOTH",
"74 183 OFFCURVE",
"74 214 OFFCURVE",
"78 249 CURVE SMOOTH",
"82 283 OFFCURVE",
"90 313 OFFCURVE",
"101 340 CURVE SMOOTH",
"112 367 OFFCURVE",
"127 390 OFFCURVE",
"145 409 CURVE SMOOTH",
"162 428 OFFCURVE",
"183 443 OFFCURVE",
"206 453 CURVE SMOOTH",
"229 463 OFFCURVE",
"255 468 OFFCURVE",
"284 468 CURVE SMOOTH",
"309 468 OFFCURVE",
"337 462 OFFCURVE",
"367 451 CURVE",
"366 438 OFFCURVE",
"365 425 OFFCURVE",
"365 413 CURVE SMOOTH",
"365 401 OFFCURVE",
"364 392 OFFCURVE",
"364 385 CURVE SMOOTH",
"364 378 OFFCURVE",
"363 374 OFFCURVE",
"363 373 CURVE",
"362 357 OFFCURVE",
"368 349 OFFCURVE",
"382 349 CURVE SMOOTH",
"406 349 LINE",
"422 474 LINE",
"397 482 LINE SMOOTH",
"380 487 OFFCURVE",
"360 493 OFFCURVE",
"337 498 CURVE SMOOTH",
"314 503 OFFCURVE",
"298 505 OFFCURVE",
"286 505 CURVE SMOOTH",
"250 505 OFFCURVE",
"217 500 OFFCURVE",
"188 487 CURVE SMOOTH",
"159 474 OFFCURVE",
"133 457 OFFCURVE",
"111 434 CURVE SMOOTH",
"89 411 OFFCURVE",
"71 384 OFFCURVE",
"57 353 CURVE SMOOTH",
"43 322 OFFCURVE",
"35 287 OFFCURVE",
"30 249 CURVE SMOOTH",
"25 209 OFFCURVE",
"25 173 OFFCURVE",
"32 141 CURVE SMOOTH",
"39 109 OFFCURVE",
"50 83 OFFCURVE",
"66 61 CURVE SMOOTH",
"82 39 OFFCURVE",
"103 22 OFFCURVE",
"128 11 CURVE SMOOTH",
"153 -1 OFFCURVE",
"180 -7 OFFCURVE",
"212 -7 CURVE SMOOTH",
"231 -7 OFFCURVE",
"249 -5 OFFCURVE",
"267 -1 CURVE SMOOTH",
"285 3 OFFCURVE",
"301 7 OFFCURVE",
"316 13 CURVE SMOOTH",
"331 19 OFFCURVE",
"346 27 OFFCURVE",
"359 36 CURVE SMOOTH",
"372 45 OFFCURVE",
"382 54 OFFCURVE",
"391 64 CURVE"
);
}
);
width = 448;
}
);
note = c;
unicode = 0063;
},
{
glyphname = d;
layers = (
{
layerId = "18B4A443-2C69-4DCB-9619-77A7DD6AC8EC";
name = Light;
paths = (
{
closed = 1;
nodes = (
"485 20 LINE",
"486 31 OFFCURVE",
"480 37 OFFCURVE",
"467 38 CURVE",
"462 38 LINE",
"456 38 LINE SMOOTH",
"453 38 OFFCURVE",
"448 39 OFFCURVE",
"442 39 CURVE SMOOTH",
"421 39 LINE",
"505 728 LINE",
"458 728 LINE",
"385 728 LINE",
"383 708 LINE SMOOTH",
"382 697 OFFCURVE",
"388 691 OFFCURVE",
"401 690 CURVE",
"406 690 LINE SMOOTH",
"408 690 OFFCURVE",
"410 689 OFFCURVE",
"413 689 CURVE SMOOTH",
"428 689 LINE SMOOTH",
"435 689 OFFCURVE",
"444 688 OFFCURVE",
"453 688 CURVE",
"421 433 LINE",
"406 457 OFFCURVE",
"387 475 OFFCURVE",
"364 487 CURVE SMOOTH",
"341 500 OFFCURVE",
"313 506 OFFCURVE",
"279 506 CURVE SMOOTH",
"244 506 OFFCURVE",
"212 499 OFFCURVE",
"183 486 CURVE SMOOTH",
"154 473 OFFCURVE",
"129 454 OFFCURVE",
"108 431 CURVE SMOOTH",
"87 408 OFFCURVE",
"69 380 OFFCURVE",
"56 349 CURVE SMOOTH",
"43 318 OFFCURVE",
"34 284 OFFCURVE",
"30 248 CURVE SMOOTH",
"20 163 OFFCURVE",
"29 99 OFFCURVE",
"58 57 CURVE SMOOTH",
"87 15 OFFCURVE",
"132 -6 OFFCURVE",
"193 -6 CURVE SMOOTH",
"230 -6 OFFCURVE",
"263 2 OFFCURVE",
"295 20 CURVE SMOOTH",
"327 38 OFFCURVE",
"355 62 OFFCURVE",
"381 92 CURVE",
"377 13 LINE",
"377 4 OFFCURVE",
"382 0 OFFCURVE",
"390 0 CURVE SMOOTH",
"416 0 LINE",
"483 0 LINE",
"485 15 LINE"
);
},
{
closed = 1;
nodes = (
"384 129 LINE",
"359 99 OFFCURVE",
"333 75 OFFCURVE",
"304 58 CURVE SMOOTH",
"275 41 OFFCURVE",
"244 32 OFFCURVE",
"211 32 CURVE SMOOTH",
"160 32 OFFCURVE",
"123 49 OFFCURVE",
"100 84 CURVE SMOOTH",
"77 119 OFFCURVE",
"70 174 OFFCURVE",
"79 248 CURVE SMOOTH",
"83 281 OFFCURVE",
"90 310 OFFCURVE",
"101 337 CURVE SMOOTH",
"112 364 OFFCURVE",
"126 388 OFFCURVE",
"143 407 CURVE SMOOTH",
"160 426 OFFCURVE",
"181 442 OFFCURVE",
"204 453 CURVE SMOOTH",
"227 464 OFFCURVE",
"254 469 OFFCURVE",
"283 469 CURVE SMOOTH",
"312 469 OFFCURVE",
"338 463 OFFCURVE",
"360 451 CURVE SMOOTH",
"382 439 OFFCURVE",
"400 419 OFFCURVE",
"416 391 CURVE"
);
}
);
width = 533;
}
);
note = d;
unicode = 0064;
},
{
glyphname = e;
layers = (
{
layerId = "18B4A443-2C69-4DCB-9619-77A7DD6AC8EC";
name = Light;
paths = (
{
closed = 1;
nodes = (
"410 412 OFFCURVE",
"408 424 OFFCURVE",
"403 436 CURVE SMOOTH",
"398 448 OFFCURVE",
"391 459 OFFCURVE",
"380 469 CURVE",
"370 479 OFFCURVE",
"356 487 OFFCURVE",
"339 494 CURVE SMOOTH",
"322 501 OFFCURVE",
"301 504 OFFCURVE",
"277 504 CURVE SMOOTH",
"251 504 OFFCURVE",
"227 500 OFFCURVE",
"204 491 CURVE SMOOTH",
"181 482 OFFCURVE",
"161 471 OFFCURVE",
"142 456 CURVE SMOOTH",
"123 441 OFFCURVE",
"106 423 OFFCURVE",
"92 403 CURVE SMOOTH",
"78 383 OFFCURVE",
"66 360 OFFCURVE",
"56 337 CURVE SMOOTH",
"46 314 OFFCURVE",
"39 289 OFFCURVE",
"34 264 CURVE SMOOTH",
"29 239 OFFCURVE",
"26 214 OFFCURVE",
"26 189 CURVE SMOOTH",
"26 159 OFFCURVE",
"30 132 OFFCURVE",
"38 108 CURVE SMOOTH",
"46 84 OFFCURVE",
"56 63 OFFCURVE",
"71 46 CURVE SMOOTH",
"86 29 OFFCURVE",
"103 16 OFFCURVE",
"125 7 CURVE SMOOTH",
"147 -2 OFFCURVE",
"171 -6 OFFCURVE",
"199 -6 CURVE SMOOTH",
"218 -6 OFFCURVE",
"237 -5 OFFCURVE",
"254 -1 CURVE SMOOTH",
"271 3 OFFCURVE",
"287 9 OFFCURVE",
"303 17 CURVE SMOOTH",
"319 25 OFFCURVE",
"335 36 OFFCURVE",
"350 48 CURVE SMOOTH",
"365 60 OFFCURVE",
"381 75 OFFCURVE",
"397 92 CURVE",
"386 105 LINE",
"383 108 OFFCURVE",
"380 110 OFFCURVE",
"376 110 CURVE SMOOTH",
"372 110 OFFCURVE",
"368 109 OFFCURVE",
"363 105 CURVE SMOOTH",
"358 101 OFFCURVE",
"352 96 OFFCURVE",
"345 90 CURVE SMOOTH",
"338 84 OFFCURVE",
"331 78 OFFCURVE",
"323 71 CURVE SMOOTH",
"315 64 OFFCURVE",
"304 58 OFFCURVE",
"293 52 CURVE SMOOTH",
"282 46 OFFCURVE",
"269 41 OFFCURVE",
"255 37 CURVE SMOOTH",
"241 33 OFFCURVE",
"225 31 OFFCURVE",
"207 31 CURVE SMOOTH",
"162 31 OFFCURVE",
"128 45 OFFCURVE",
"106 73 CURVE SMOOTH",
"84 101 OFFCURVE",
"72 140 OFFCURVE",
"72 190 CURVE SMOOTH",
"72 197 OFFCURVE",
"73 203 OFFCURVE",
"73 210 CURVE SMOOTH",
"73 217 OFFCURVE",
"73 224 OFFCURVE",
"74 231 CURVE",
"121 236 OFFCURVE",
"161 241 OFFCURVE",
"196 248 CURVE SMOOTH",
"231 254 OFFCURVE",
"261 262 OFFCURVE",
"286 270 CURVE SMOOTH",
"311 278 OFFCURVE",
"331 287 OFFCURVE",
"347 297 CURVE SMOOTH",
"363 307 OFFCURVE",
"376 317 OFFCURVE",
"385 328 CURVE SMOOTH",
"394 339 OFFCURVE",
"401 351 OFFCURVE",
"405 363 CURVE SMOOTH",
"409 375 OFFCURVE",
"410 388 OFFCURVE",
"410 402 CURVE SMOOTH"
);
},
{
closed = 1;
nodes = (
"292 469 OFFCURVE",
"307 468 OFFCURVE",
"319 463 CURVE",
"331 459 OFFCURVE",
"341 453 OFFCURVE",
"348 446 CURVE SMOOTH",
"355 439 OFFCURVE",
"360 432 OFFCURVE",
"363 424 CURVE SMOOTH",
"366 416 OFFCURVE",
"368 408 OFFCURVE",
"368 401 CURVE SMOOTH",
"368 391 OFFCURVE",
"366 382 OFFCURVE",
"364 373 CURVE SMOOTH",
"362 364 OFFCURVE",
"357 355 OFFCURVE",
"350 347 CURVE",
"343 338 OFFCURVE",
"332 330 OFFCURVE",
"319 322 CURVE SMOOTH",
"306 314 OFFCURVE",
"288 307 OFFCURVE",
"267 300 CURVE SMOOTH",
"246 293 OFFCURVE",
"220 286 OFFCURVE",
"189 280 CURVE SMOOTH",
"158 274 OFFCURVE",
"122 269 OFFCURVE",
"80 264 CURVE",
"85 291 OFFCURVE",
"93 317 OFFCURVE",
"104 342 CURVE SMOOTH",
"115 367 OFFCURVE",
"129 388 OFFCURVE",
"146 407 CURVE SMOOTH",
"163 426 OFFCURVE",
"182 441 OFFCURVE",
"203 452 CURVE SMOOTH",
"225 463 OFFCURVE",
"248 469 OFFCURVE",
"275 469 CURVE SMOOTH"
);
}
);
width = 438;
}
);
note = e;
unicode = 0065;
},
{
glyphname = f;
layers = (
{
layerId = "18B4A443-2C69-4DCB-9619-77A7DD6AC8EC";
name = Light;
paths = (
{
closed = 1;
nodes = (
"428 716 OFFCURVE",
"417 716 OFFCURVE",
"407 716 CURVE SMOOTH",
"384 716 OFFCURVE",
"363 713 OFFCURVE",
"343 706 CURVE SMOOTH",
"323 699 OFFCURVE",
"306 687 OFFCURVE",
"291 673 CURVE SMOOTH",
"276 659 OFFCURVE",
"264 641 OFFCURVE",
"254 620 CURVE SMOOTH",
"244 599 OFFCURVE",
"236 573 OFFCURVE",
"233 545 CURVE SMOOTH",
"226 482 LINE",
"141 482 LINE",
"139 462 LINE SMOOTH",
"138 454 OFFCURVE",
"142 451 OFFCURVE",
"152 450 CURVE SMOOTH",
"221 445 LINE",
"167 2 LINE SMOOTH",
"164 -25 OFFCURVE",
"157 -48 OFFCURVE",
"148 -67 CURVE SMOOTH",
"139 -86 OFFCURVE",
"128 -100 OFFCURVE",
"115 -112 CURVE SMOOTH",
"102 -124 OFFCURVE",
"88 -132 OFFCURVE",
"72 -137 CURVE SMOOTH",
"56 -142 OFFCURVE",
"39 -146 OFFCURVE",
"22 -146 CURVE SMOOTH",
"10 -146 OFFCURVE",
"4 -151 OFFCURVE",
"4 -162 CURVE SMOOTH",
"4 -186 LINE",
"33 -186 OFFCURVE",
"60 -182 OFFCURVE",
"84 -175 CURVE SMOOTH",
"108 -168 OFFCURVE",
"129 -156 OFFCURVE",
"147 -141 CURVE SMOOTH",
"165 -126 OFFCURVE",
"180 -106 OFFCURVE",
"191 -83 CURVE SMOOTH",
"202 -60 OFFCURVE",
"210 -32 OFFCURVE",
"214 1 CURVE SMOOTH",
"269 446 LINE",
"429 446 LINE",
"434 482 LINE",
"272 482 LINE",
"280 543 LINE SMOOTH",
"283 568 OFFCURVE",
"288 590 OFFCURVE",
"296 607 CURVE SMOOTH",
"304 624 OFFCURVE",
"313 637 OFFCURVE",
"324 648 CURVE SMOOTH",
"335 659 OFFCURVE",
"349 667 OFFCURVE",
"363 672 CURVE SMOOTH",
"377 677 OFFCURVE",
"393 679 OFFCURVE",
"409 679 CURVE SMOOTH",
"419 679 OFFCURVE",
"427 678 OFFCURVE",
"434 677 CURVE SMOOTH",
"441 676 OFFCURVE",
"446 676 OFFCURVE",
"450 676 CURVE SMOOTH",
"456 676 OFFCURVE",
"459 678 OFFCURVE",
"460 683 CURVE SMOOTH",
"465 706 LINE",
"457 709 OFFCURVE",
"448 712 OFFCURVE",
"438 714 CURVE SMOOTH"
);
}
);
width = 474;
}
);
note = f;
unicode = 0066;
},
{
glyphname = g;
layers = (
{
layerId = "18B4A443-2C69-4DCB-9619-77A7DD6AC8EC";
name = Light;
paths = (
{
closed = 1;
nodes = (
"417 384 OFFCURVE",
"415 397 OFFCURVE",
"412 410 CURVE SMOOTH",
"409 423 OFFCURVE",
"404 435 OFFCURVE",
"398 445 CURVE",
"479 451 LINE",
"484 452 OFFCURVE",
"487 454 OFFCURVE",
"489 456 CURVE",
"491 459 OFFCURVE",
"493 462 OFFCURVE",
"493 465 CURVE",
"495 481 LINE",
"365 481 LINE",
"353 489 OFFCURVE",
"340 496 OFFCURVE",
"325 500 CURVE SMOOTH",
"310 504 OFFCURVE",
"294 506 OFFCURVE",
"277 506 CURVE SMOOTH",
"248 506 OFFCURVE",
"222 500 OFFCURVE",
"199 490 CURVE SMOOTH",
"176 480 OFFCURVE",
"157 466 OFFCURVE",
"142 449 CURVE SMOOTH",
"127 432 OFFCURVE",
"115 411 OFFCURVE",
"107 389 CURVE SMOOTH",
"99 367 OFFCURVE",
"94 345 OFFCURVE",
"94 322 CURVE SMOOTH",
"94 299 OFFCURVE",
"97 279 OFFCURVE",
"104 262 CURVE SMOOTH",
"111 245 OFFCURVE",
"120 230 OFFCURVE",
"132 218 CURVE SMOOTH",
"144 206 OFFCURVE",
"158 198 OFFCURVE",
"174 192 CURVE SMOOTH",
"190 186 OFFCURVE",
"208 183 OFFCURVE",
"227 183 CURVE SMOOTH",
"245 183 OFFCURVE",
"262 185 OFFCURVE",
"277 190 CURVE SMOOTH",
"292 195 OFFCURVE",
"306 203 OFFCURVE",
"320 212 CURVE",
"309 195 OFFCURVE",
"301 180 OFFCURVE",
"297 168 CURVE SMOOTH",
"293 156 OFFCURVE",
"291 144 OFFCURVE",
"291 132 CURVE SMOOTH",
"291 121 OFFCURVE",
"293 112 OFFCURVE",
"297 103 CURVE SMOOTH",
"301 94 OFFCURVE",
"305 87 OFFCURVE",
"311 79 CURVE",
"299 81 OFFCURVE",
"288 81 OFFCURVE",
"277 82 CURVE SMOOTH",
"266 83 OFFCURVE",
"254 84 OFFCURVE",
"243 84 CURVE SMOOTH",
"210 84 OFFCURVE",
"180 81 OFFCURVE",
"151 74 CURVE SMOOTH",
"123 67 OFFCURVE",
"97 58 OFFCURVE",
"76 45 CURVE SMOOTH",
"55 32 OFFCURVE",
"38 16 OFFCURVE",
"25 -2 CURVE SMOOTH",
"12 -20 OFFCURVE",
"6 -42 OFFCURVE",
"6 -66 CURVE SMOOTH",
"6 -85 OFFCURVE",
"10 -101 OFFCURVE",
"19 -116 CURVE SMOOTH",
"28 -131 OFFCURVE",
"40 -143 OFFCURVE",
"56 -153 CURVE SMOOTH",
"72 -163 OFFCURVE",
"91 -171 OFFCURVE",
"113 -176 CURVE SMOOTH",
"135 -181 OFFCURVE",
"159 -184 OFFCURVE",
"185 -184 CURVE SMOOTH",
"218 -184 OFFCURVE",
"249 -179 OFFCURVE",
"276 -170 CURVE SMOOTH",
"303 -161 OFFCURVE",
"326 -149 OFFCURVE",
"345 -134 CURVE SMOOTH",
"364 -119 OFFCURVE",
"379 -102 OFFCURVE",
"390 -83 CURVE SMOOTH",
"401 -63 OFFCURVE",
"406 -43 OFFCURVE",
"406 -22 CURVE SMOOTH",
"406 -9 OFFCURVE",
"404 3 OFFCURVE",
"400 14 CURVE SMOOTH",
"396 25 OFFCURVE",
"392 34 OFFCURVE",
"386 43 CURVE SMOOTH",
"380 52 OFFCURVE",
"373 61 OFFCURVE",
"366 69 CURVE SMOOTH",
"359 77 OFFCURVE",
"353 85 OFFCURVE",
"347 93 CURVE SMOOTH",
"341 101 OFFCURVE",
"336 110 OFFCURVE",
"332 118 CURVE SMOOTH",
"328 126 OFFCURVE",
"326 136 OFFCURVE",
"326 146 CURVE SMOOTH",
"326 158 OFFCURVE",
"329 169 OFFCURVE",
"333 180 CURVE SMOOTH",
"337 191 OFFCURVE",
"342 201 OFFCURVE",
"349 211 CURVE SMOOTH",
"356 221 OFFCURVE",
"363 232 OFFCURVE",
"371 243 CURVE SMOOTH",
"379 254 OFFCURVE",
"386 266 OFFCURVE",
"393 278 CURVE SMOOTH",
"400 291 OFFCURVE",
"406 304 OFFCURVE",
"410 319 CURVE",
"415 334 OFFCURVE",
"417 351 OFFCURVE",
"417 369 CURVE SMOOTH"
);
},
{
closed = 1;
nodes = (
"363 -41 OFFCURVE",
"358 -56 OFFCURVE",
"350 -71 CURVE SMOOTH",
"342 -86 OFFCURVE",
"330 -99 OFFCURVE",
"315 -111 CURVE SMOOTH",
"300 -123 OFFCURVE",
"281 -132 OFFCURVE",
"260 -139 CURVE SMOOTH",
"239 -146 OFFCURVE",
"215 -150 OFFCURVE",
"189 -150 CURVE SMOOTH",
"168 -150 OFFCURVE",
"149 -148 OFFCURVE",
"132 -144 CURVE SMOOTH",
"115 -140 OFFCURVE",
"101 -135 OFFCURVE",
"89 -127 CURVE",
"77 -120 OFFCURVE",
"68 -110 OFFCURVE",
"61 -99 CURVE SMOOTH",
"54 -88 OFFCURVE",
"51 -74 OFFCURVE",
"51 -60 CURVE SMOOTH",
"51 -45 OFFCURVE",
"56 -30 OFFCURVE",
"64 -16 CURVE SMOOTH",
"72 -2 OFFCURVE",
"84 10 OFFCURVE",
"100 20 CURVE",
"116 31 OFFCURVE",
"137 39 OFFCURVE",
"161 45 CURVE SMOOTH",
"185 51 OFFCURVE",
"214 55 OFFCURVE",
"247 55 CURVE SMOOTH",
"261 55 OFFCURVE",
"274 54 OFFCURVE",
"289 53 CURVE SMOOTH",
"304 52 OFFCURVE",
"320 51 OFFCURVE",
"336 48 CURVE",
"335 49 LINE",
"343 39 OFFCURVE",
"350 29 OFFCURVE",
"355 17 CURVE SMOOTH",
"360 5 OFFCURVE",
"363 -9 OFFCURVE",
"363 -25 CURVE SMOOTH"
);
},
{
closed = 1;
nodes = (
"207 214 OFFCURVE",
"183 223 OFFCURVE",
"165 241 CURVE SMOOTH",
"147 259 OFFCURVE",
"138 287 OFFCURVE",
"138 322 CURVE SMOOTH",
"138 341 OFFCURVE",
"141 359 OFFCURVE",
"147 377 CURVE SMOOTH",
"153 395 OFFCURVE",
"161 412 OFFCURVE",
"173 426 CURVE SMOOTH",
"185 440 OFFCURVE",
"199 451 OFFCURVE",
"216 459 CURVE SMOOTH",
"233 467 OFFCURVE",
"251 472 OFFCURVE",
"272 472 CURVE SMOOTH",
"303 472 OFFCURVE",
"328 464 OFFCURVE",
"346 446 CURVE SMOOTH",
"364 429 OFFCURVE",
"374 403 OFFCURVE",
"374 368 CURVE SMOOTH",
"374 349 OFFCURVE",
"371 331 OFFCURVE",
"365 312 CURVE SMOOTH",
"359 293 OFFCURVE",
"350 276 OFFCURVE",
"338 262 CURVE SMOOTH",
"326 247 OFFCURVE",
"313 236 OFFCURVE",
"296 227 CURVE SMOOTH",
"279 218 OFFCURVE",
"259 214 OFFCURVE",
"238 214 CURVE SMOOTH"
);
}
);
width = 509;
}
);
note = g;
unicode = 0067;
},
{
glyphname = h;
layers = (
{
layerId = "18B4A443-2C69-4DCB-9619-77A7DD6AC8EC";
name = Light;
paths = (
{
closed = 1;
nodes = (
"480 38 LINE",
"473 38 LINE SMOOTH",
"470 38 OFFCURVE",
"465 39 OFFCURVE",
"458 39 CURVE SMOOTH",
"451 39 OFFCURVE",
"442 40 OFFCURVE",
"433 40 CURVE",
"468 318 LINE SMOOTH",
"472 347 OFFCURVE",
"471 373 OFFCURVE",
"467 396 CURVE SMOOTH",
"463 419 OFFCURVE",
"455 439 OFFCURVE",
"443 455 CURVE SMOOTH",
"431 471 OFFCURVE",
"416 483 OFFCURVE",
"396 492 CURVE SMOOTH",
"376 501 OFFCURVE",
"352 505 OFFCURVE",
"325 505 CURVE SMOOTH",
"288 505 OFFCURVE",
"255 497 OFFCURVE",
"223 480 CURVE SMOOTH",
"191 463 OFFCURVE",
"162 440 OFFCURVE",
"136 412 CURVE",
"174 727 LINE",
"127 727 LINE",
"55 727 LINE",
"52 708 LINE",
"51 697 OFFCURVE",
"57 691 OFFCURVE",
"70 690 CURVE",
"75 690 LINE SMOOTH",
"77 690 OFFCURVE",
"80 689 OFFCURVE",
"83 689 CURVE SMOOTH",
"98 689 LINE SMOOTH",
"105 689 OFFCURVE",
"113 688 OFFCURVE",
"122 688 CURVE",
"42 40 LINE",
"38 0 LINE",
"85 0 LINE",
"90 40 LINE",
"102 137 LINE",
"106 170 LINE",
"131 373 LINE",
"157 402 OFFCURVE",
"184 425 OFFCURVE",
"214 442 CURVE SMOOTH",
"244 459 OFFCURVE",
"275 467 OFFCURVE",
"308 467 CURVE SMOOTH",
"352 467 OFFCURVE",
"384 454 OFFCURVE",
"402 428 CURVE SMOOTH",
"420 401 OFFCURVE",
"426 365 OFFCURVE",
"420 318 CURVE SMOOTH",
"381 0 LINE",
"429 0 LINE",
"501 0 LINE",
"503 20 LINE SMOOTH",
"504 31 OFFCURVE",
"499 37 OFFCURVE",
"486 38 CURVE"
);
}
);
width = 549;
}
);
note = h;
unicode = 0068;
},
{
glyphname = i;
layers = (
{
layerId = "18B4A443-2C69-4DCB-9619-77A7DD6AC8EC";
name = Light;
paths = (
{
closed = 1;
nodes = (
"149 38 LINE",
"141 38 LINE SMOOTH",
"138 38 OFFCURVE",
"133 39 OFFCURVE",
"126 39 CURVE SMOOTH",
"119 39 OFFCURVE",
"111 40 OFFCURVE",
"102 40 CURVE",
"158 498 LINE",
"110 498 LINE",
"38 498 LINE",
"36 478 LINE SMOOTH",
"35 467 OFFCURVE",
"40 461 OFFCURVE",
"53 460 CURVE",
"59 460 LINE SMOOTH",
"61 460 OFFCURVE",
"63 459 OFFCURVE",
"66 459 CURVE SMOOTH",
"81 459 LINE SMOOTH",
"88 459 OFFCURVE",
"97 458 OFFCURVE",
"106 458 CURVE",
"59 80 LINE",
"49 0 LINE",
"97 0 LINE",
"169 0 LINE",
"171 20 LINE SMOOTH",
"172 31 OFFCURVE",
"167 37 OFFCURVE",
"154 38 CURVE"
);
},
{
closed = 1;
nodes = (
"125 634 OFFCURVE",
"129 631 OFFCURVE",
"134 629 CURVE SMOOTH",
"139 627 OFFCURVE",
"144 625 OFFCURVE",
"150 625 CURVE SMOOTH",
"156 625 OFFCURVE",
"162 627 OFFCURVE",
"168 629 CURVE SMOOTH",
"174 631 OFFCURVE",
"179 634 OFFCURVE",
"183 638 CURVE SMOOTH",
"187 642 OFFCURVE",
"191 647 OFFCURVE",
"194 652 CURVE SMOOTH",
"197 657 OFFCURVE",
"199 663 OFFCURVE",
"200 669 CURVE SMOOTH",
"201 675 OFFCURVE",
"200 680 OFFCURVE",
"198 686 CURVE",
"196 691 OFFCURVE",
"194 696 OFFCURVE",
"190 700 CURVE",
"187 704 OFFCURVE",
"182 708 OFFCURVE",
"177 710 CURVE SMOOTH",
"172 712 OFFCURVE",
"167 713 OFFCURVE",
"161 713 CURVE SMOOTH",
"155 713 OFFCURVE",
"149 712 OFFCURVE",
"143 710 CURVE SMOOTH",
"137 708 OFFCURVE",
"132 704 OFFCURVE",
"128 700 CURVE",
"123 696 OFFCURVE",
"120 691 OFFCURVE",
"117 686 CURVE SMOOTH",
"114 681 OFFCURVE",
"112 675 OFFCURVE",
"111 669 CURVE SMOOTH",
"110 663 OFFCURVE",
"111 657 OFFCURVE",
"113 652 CURVE SMOOTH",
"115 647 OFFCURVE",
"117 642 OFFCURVE",
"121 638 CURVE SMOOTH"
);
}
);
width = 221;
}
);
note = i;
unicode = 0069;
},
{
glyphname = j;
layers = (
{
layerId = "18B4A443-2C69-4DCB-9619-77A7DD6AC8EC";
name = Light;
paths = (
{
closed = 1;
nodes = (
"292 691 OFFCURVE",
"290 696 OFFCURVE",
"286 700 CURVE",
"283 704 OFFCURVE",
"279 708 OFFCURVE",
"274 710 CURVE SMOOTH",
"269 712 OFFCURVE",
"263 713 OFFCURVE",
"257 713 CURVE SMOOTH",
"251 713 OFFCURVE",
"246 712 OFFCURVE",
"240 710 CURVE SMOOTH",
"234 708 OFFCURVE",
"228 704 OFFCURVE",
"224 700 CURVE SMOOTH",
"220 696 OFFCURVE",
"216 691 OFFCURVE",
"213 686 CURVE SMOOTH",
"210 681 OFFCURVE",
"209 675 OFFCURVE",
"208 669 CURVE SMOOTH",
"207 663 OFFCURVE",
"207 657 OFFCURVE",
"209 652 CURVE SMOOTH",
"211 647 OFFCURVE",
"213 642 OFFCURVE",
"217 638 CURVE SMOOTH",
"221 634 OFFCURVE",
"225 631 OFFCURVE",
"230 629 CURVE SMOOTH",
"235 627 OFFCURVE",
"240 625 OFFCURVE",
"246 625 CURVE SMOOTH",
"252 625 OFFCURVE",
"258 627 OFFCURVE",
"264 629 CURVE SMOOTH",
"270 631 OFFCURVE",
"275 634 OFFCURVE",
"279 638 CURVE",
"284 642 OFFCURVE",
"287 647 OFFCURVE",
"290 652 CURVE SMOOTH",
"293 657 OFFCURVE",
"295 663 OFFCURVE",
"296 669 CURVE SMOOTH",
"297 675 OFFCURVE",
"296 680 OFFCURVE",
"294 686 CURVE"
);
},
{
closed = 1;
nodes = (
"206 497 LINE",
"134 497 LINE",
"132 478 LINE SMOOTH",
"131 467 OFFCURVE",
"137 461 OFFCURVE",
"150 460 CURVE",
"155 460 LINE SMOOTH",
"157 460 OFFCURVE",
"159 459 OFFCURVE",
"162 459 CURVE SMOOTH",
"177 459 LINE SMOOTH",
"184 459 OFFCURVE",
"193 458 OFFCURVE",
"202 458 CURVE",
"138 -63 LINE SMOOTH",
"135 -90 OFFCURVE",
"125 -111 OFFCURVE",
"110 -126 CURVE SMOOTH",
"95 -141 OFFCURVE",
"75 -148 OFFCURVE",
"48 -148 CURVE SMOOTH",
"40 -148 OFFCURVE",
"33 -147 OFFCURVE",
"28 -146 CURVE SMOOTH",
"23 -145 OFFCURVE",
"20 -144 OFFCURVE",
"17 -144 CURVE SMOOTH",
"13 -144 OFFCURVE",
"10 -146 OFFCURVE",
"9 -150 CURVE",
"4 -174 LINE",
"11 -178 OFFCURVE",
"19 -180 OFFCURVE",
"26 -182 CURVE SMOOTH",
"33 -184 OFFCURVE",
"41 -184 OFFCURVE",
"51 -184 CURVE SMOOTH",
"71 -184 OFFCURVE",
"89 -181 OFFCURVE",
"105 -175 CURVE SMOOTH",
"121 -169 OFFCURVE",
"134 -161 OFFCURVE",
"145 -150 CURVE SMOOTH",
"156 -139 OFFCURVE",
"165 -126 OFFCURVE",
"172 -111 CURVE SMOOTH",
"179 -96 OFFCURVE",
"183 -80 OFFCURVE",
"185 -63 CURVE SMOOTH",
"254 497 LINE"
);
}
);
width = 310;
}
);
note = j;
unicode = 006A;
},
{
glyphname = k;
layers = (
{
layerId = "18B4A443-2C69-4DCB-9619-77A7DD6AC8EC";
name = Light;
paths = (
{
closed = 1;
nodes = (
"425 498 LINE",
"405 498 LINE",
"324 498 LINE",
"321 478 LINE",
"320 467 OFFCURVE",
"326 461 OFFCURVE",
"339 460 CURVE",
"340 460 OFFCURVE",
"348 460 OFFCURVE",
"364 459 CURVE",
"171 295 LINE SMOOTH",
"165 290 OFFCURVE",
"160 287 OFFCURVE",
"156 286 CURVE SMOOTH",
"152 285 OFFCURVE",
"148 284 OFFCURVE",
"143 284 CURVE SMOOTH",
"120 284 LINE",
"174 727 LINE",
"127 727 LINE",
"55 727 LINE",
"52 708 LINE",
"51 697 OFFCURVE",
"57 691 OFFCURVE",
"70 690 CURVE",
"75 690 LINE SMOOTH",
"77 690 OFFCURVE",
"80 689 OFFCURVE",
"83 689 CURVE SMOOTH",
"98 689 LINE SMOOTH",
"105 689 OFFCURVE",
"113 688 OFFCURVE",
"122 688 CURVE",
"42 40 LINE",
"38 0 LINE",
"85 0 LINE",
"101 130 LINE",
"116 251 LINE",
"138 251 LINE SMOOTH",
"148 251 OFFCURVE",
"156 250 OFFCURVE",
"160 248 CURVE SMOOTH",
"164 246 OFFCURVE",
"169 241 OFFCURVE",
"174 235 CURVE SMOOTH",
"355 11 LINE",
"358 7 OFFCURVE",
"362 5 OFFCURVE",
"365 3 CURVE SMOOTH",
"368 1 OFFCURVE",
"372 0 OFFCURVE",
"377 0 CURVE SMOOTH",
"380 0 LINE",
"419 0 LINE",
"441 0 LINE",
"443 20 LINE SMOOTH",
"444 31 OFFCURVE",
"439 37 OFFCURVE",
"426 38 CURVE",
"421 38 LINE",
"415 38 LINE",
"405 38 LINE SMOOTH",
"400 38 OFFCURVE",
"394 39 OFFCURVE",
"388 39 CURVE",
"219 251 LINE SMOOTH",
"216 255 OFFCURVE",
"212 259 OFFCURVE",
"209 263 CURVE SMOOTH",
"206 267 OFFCURVE",
"202 269 OFFCURVE",
"197 272 CURVE",
"201 274 OFFCURVE",
"205 277 OFFCURVE",
"208 280 CURVE SMOOTH",
"211 283 OFFCURVE",
"214 286 OFFCURVE",
"218 289 CURVE",
"417 458 LINE",
"423 458 OFFCURVE",
"429 459 OFFCURVE",
"434 459 CURVE SMOOTH",
"439 459 OFFCURVE",
"443 460 OFFCURVE",
"447 460 CURVE SMOOTH",
"453 460 LINE",
"466 461 OFFCURVE",
"474 467 OFFCURVE",
"475 478 CURVE",
"478 498 LINE"
);
}
);
width = 492;
}
);
note = k;
unicode = 006B;
},
{
glyphname = l;
layers = (
{
layerId = "18B4A443-2C69-4DCB-9619-77A7DD6AC8EC";
name = Light;
paths = (
{
closed = 1;
nodes = (
"137 38 LINE",
"129 38 LINE SMOOTH",
"126 38 OFFCURVE",
"121 39 OFFCURVE",
"114 39 CURVE SMOOTH",
"107 39 OFFCURVE",
"99 40 OFFCURVE",
"90 40 CURVE",
"174 728 LINE",
"127 728 LINE",
"55 728 LINE",
"52 708 LINE",
"51 697 OFFCURVE",
"57 691 OFFCURVE",
"70 690 CURVE",
"75 690 LINE SMOOTH",
"77 690 OFFCURVE",
"80 689 OFFCURVE",
"83 689 CURVE SMOOTH",
"98 689 LINE SMOOTH",
"105 689 OFFCURVE",
"113 688 OFFCURVE",
"122 688 CURVE",
"42 40 LINE",
"38 0 LINE",
"85 0 LINE",
"157 0 LINE",
"160 20 LINE",
"161 31 OFFCURVE",
"155 37 OFFCURVE",
"142 38 CURVE"
);
}
);
width = 207;
}
);
note = l;
unicode = 006C;
},
{
glyphname = m;
layers = (
{
layerId = "18B4A443-2C69-4DCB-9619-77A7DD6AC8EC";
name = Light;
paths = (
{
closed = 1;
nodes = (
"748 38 LINE",
"740 38 LINE SMOOTH",
"737 38 OFFCURVE",
"732 39 OFFCURVE",
"725 39 CURVE SMOOTH",
"718 39 OFFCURVE",
"710 40 OFFCURVE",
"701 40 CURVE",
"735 318 LINE SMOOTH",
"739 348 OFFCURVE",
"738 375 OFFCURVE",
"734 398 CURVE SMOOTH",
"730 421 OFFCURVE",
"722 441 OFFCURVE",
"710 457 CURVE SMOOTH",
"698 473 OFFCURVE",
"683 485 OFFCURVE",
"664 493 CURVE SMOOTH",
"645 501 OFFCURVE",
"624 505 OFFCURVE",
"599 505 CURVE SMOOTH",
"582 505 OFFCURVE",
"565 503 OFFCURVE",
"548 498 CURVE SMOOTH",
"531 493 OFFCURVE",
"514 486 OFFCURVE",
"499 476 CURVE SMOOTH",
"484 466 OFFCURVE",
"470 454 OFFCURVE",
"457 439 CURVE SMOOTH",
"444 424 OFFCURVE",
"435 406 OFFCURVE",
"426 385 CURVE",
"423 423 OFFCURVE",
"411 453 OFFCURVE",
"392 474 CURVE SMOOTH",
"373 495 OFFCURVE",
"345 505 OFFCURVE",
"309 505 CURVE SMOOTH",
"293 505 OFFCURVE",
"279 504 OFFCURVE",
"264 499 CURVE",
"249 495 OFFCURVE",
"235 488 OFFCURVE",
"221 480 CURVE SMOOTH",
"207 472 OFFCURVE",
"195 461 OFFCURVE",
"183 450 CURVE SMOOTH",
"171 439 OFFCURVE",
"158 427 OFFCURVE",
"147 413 CURVE",
"151 485 LINE",
"151 493 OFFCURVE",
"147 497 OFFCURVE",
"138 497 CURVE SMOOTH",
"112 497 LINE",
"40 497 LINE",
"37 478 LINE",
"36 467 OFFCURVE",
"42 461 OFFCURVE",
"55 460 CURVE",
"60 460 LINE SMOOTH",
"62 460 OFFCURVE",
"65 459 OFFCURVE",
"68 459 CURVE SMOOTH",
"83 459 LINE SMOOTH",
"90 459 OFFCURVE",
"98 458 OFFCURVE",
"107 458 CURVE",
"56 40 LINE",
"51 0 LINE",
"51 0 LINE",
"98 0 LINE",
"98 0 LINE",
"103 40 LINE",
"108 76 LINE",
"116 141 LINE",
"144 376 LINE",
"165 405 OFFCURVE",
"189 427 OFFCURVE",
"214 443 CURVE SMOOTH",
"239 459 OFFCURVE",
"265 468 OFFCURVE",
"292 468 CURVE SMOOTH",
"329 468 OFFCURVE",
"356 455 OFFCURVE",
"372 429 CURVE SMOOTH",
"388 403 OFFCURVE",
"393 366 OFFCURVE",
"387 318 CURVE SMOOTH",
"348 0 LINE",
"396 0 LINE",
"396 0 LINE",
"396 0 LINE",
"415 154 LINE",
"435 318 LINE SMOOTH",
"438 343 OFFCURVE",
"445 364 OFFCURVE",
"454 383 CURVE SMOOTH",
"463 402 OFFCURVE",
"474 418 OFFCURVE",
"488 430 CURVE SMOOTH",
"502 442 OFFCURVE",
"517 452 OFFCURVE",
"534 458 CURVE SMOOTH",
"551 464 OFFCURVE",
"568 467 OFFCURVE",
"585 467 CURVE SMOOTH",
"624 467 OFFCURVE",
"652 454 OFFCURVE",
"670 429 CURVE SMOOTH",
"688 403 OFFCURVE",
"694 367 OFFCURVE",
"688 318 CURVE SMOOTH",
"649 0 LINE",
"696 0 LINE",
"769 0 LINE",
"771 20 LINE SMOOTH",
"772 31 OFFCURVE",
"766 37 OFFCURVE",
"753 38 CURVE"
);
}
);
width = 820;
}
);
note = m;
unicode = 006D;
},
{
glyphname = n;
layers = (
{
layerId = "18B4A443-2C69-4DCB-9619-77A7DD6AC8EC";
name = Light;
paths = (
{
closed = 1;
nodes = (
"494 38 LINE",
"486 38 LINE SMOOTH",
"483 38 OFFCURVE",
"478 39 OFFCURVE",
"471 39 CURVE SMOOTH",
"464 39 OFFCURVE",
"456 40 OFFCURVE",
"447 40 CURVE",
"481 318 LINE SMOOTH",
"485 347 OFFCURVE",
"484 373 OFFCURVE",
"480 396 CURVE SMOOTH",
"476 419 OFFCURVE",
"468 439 OFFCURVE",
"456 455 CURVE SMOOTH",
"444 471 OFFCURVE",
"429 483 OFFCURVE",
"409 492 CURVE SMOOTH",
"389 501 OFFCURVE",
"365 505 OFFCURVE",
"338 505 CURVE SMOOTH",
"301 505 OFFCURVE",
"266 497 OFFCURVE",
"234 479 CURVE SMOOTH",
"202 461 OFFCURVE",
"173 439 OFFCURVE",
"147 410 CURVE",
"151 485 LINE",
"151 493 OFFCURVE",
"147 497 OFFCURVE",
"138 497 CURVE SMOOTH",
"112 497 LINE",
"40 497 LINE",
"37 478 LINE",
"36 467 OFFCURVE",
"42 461 OFFCURVE",
"55 460 CURVE",
"60 460 LINE SMOOTH",
"62 460 OFFCURVE",
"65 459 OFFCURVE",
"68 459 CURVE SMOOTH",
"83 459 LINE SMOOTH",
"90 459 OFFCURVE",
"98 458 OFFCURVE",
"107 458 CURVE",
"56 40 LINE",
"56 40 LINE",
"51 0 LINE",
"51 0 LINE",
"98 0 LINE",
"110 94 LINE",
"144 373 LINE",
"170 402 OFFCURVE",
"198 425 OFFCURVE",
"228 442 CURVE SMOOTH",
"258 459 OFFCURVE",
"289 467 OFFCURVE",
"322 467 CURVE SMOOTH",
"366 467 OFFCURVE",
"397 454 OFFCURVE",
"415 428 CURVE SMOOTH",
"433 401 OFFCURVE",
"439 365 OFFCURVE",
"433 318 CURVE SMOOTH",
"394 0 LINE",
"442 0 LINE",
"514 0 LINE",
"516 20 LINE SMOOTH",
"517 31 OFFCURVE",
"512 37 OFFCURVE",
"499 38 CURVE"
);
}
);
width = 565;
}
);
note = n;
unicode = 006E;
},
{
glyphname = o;
layers = (
{
layerId = "18B4A443-2C69-4DCB-9619-77A7DD6AC8EC";
name = Light;
paths = (
{
closed = 1;
nodes = (
"252 506 OFFCURVE",
"220 499 OFFCURVE",
"190 487 CURVE SMOOTH",
"160 475 OFFCURVE",
"134 458 OFFCURVE",
"112 436 CURVE SMOOTH",
"90 414 OFFCURVE",
"72 387 OFFCURVE",
"58 355 CURVE SMOOTH",
"44 323 OFFCURVE",
"35 288 OFFCURVE",
"30 249 CURVE SMOOTH",
"25 210 OFFCURVE",
"26 175 OFFCURVE",
"32 144 CURVE SMOOTH",
"38 113 OFFCURVE",
"50 85 OFFCURVE",
"67 63 CURVE SMOOTH",
"84 41 OFFCURVE",
"105 24 OFFCURVE",
"132 12 CURVE SMOOTH",
"159 0 OFFCURVE",
"189 -6 OFFCURVE",
"225 -6 CURVE SMOOTH",
"261 -6 OFFCURVE",
"293 0 OFFCURVE",
"323 12 CURVE SMOOTH",
"353 24 OFFCURVE",
"379 41 OFFCURVE",
"401 63 CURVE SMOOTH",
"423 85 OFFCURVE",
"441 113 OFFCURVE",
"455 144 CURVE SMOOTH",
"469 175 OFFCURVE",
"478 210 OFFCURVE",
"483 249 CURVE SMOOTH",
"488 288 OFFCURVE",
"487 323 OFFCURVE",
"481 355 CURVE SMOOTH",
"475 387 OFFCURVE",
"463 414 OFFCURVE",
"446 436 CURVE SMOOTH",
"429 458 OFFCURVE",
"409 475 OFFCURVE",
"382 487 CURVE SMOOTH",
"355 499 OFFCURVE",
"324 506 OFFCURVE",
"288 506 CURVE SMOOTH"
);
},
{
closed = 1;
nodes = (
"200 31 OFFCURVE",
"175 36 OFFCURVE",
"154 46 CURVE SMOOTH",
"133 56 OFFCURVE",
"116 71 OFFCURVE",
"104 90 CURVE SMOOTH",
"92 109 OFFCURVE",
"83 132 OFFCURVE",
"79 159 CURVE SMOOTH",
"75 186 OFFCURVE",
"75 216 OFFCURVE",
"79 249 CURVE SMOOTH",
"83 282 OFFCURVE",
"90 312 OFFCURVE",
"101 339 CURVE SMOOTH",
"112 366 OFFCURVE",
"126 389 OFFCURVE",
"143 408 CURVE SMOOTH",
"160 427 OFFCURVE",
"181 443 OFFCURVE",
"204 453 CURVE SMOOTH",
"227 463 OFFCURVE",
"253 468 OFFCURVE",
"283 468 CURVE SMOOTH",
"313 468 OFFCURVE",
"338 463 OFFCURVE",
"359 453 CURVE SMOOTH",
"380 443 OFFCURVE",
"397 427 OFFCURVE",
"409 408 CURVE SMOOTH",
"421 389 OFFCURVE",
"430 366 OFFCURVE",
"434 339 CURVE SMOOTH",
"438 312 OFFCURVE",
"438 282 OFFCURVE",
"434 249 CURVE SMOOTH",
"430 216 OFFCURVE",
"423 186 OFFCURVE",
"412 159 CURVE SMOOTH",
"401 132 OFFCURVE",
"387 109 OFFCURVE",
"370 90 CURVE SMOOTH",
"353 71 OFFCURVE",
"332 56 OFFCURVE",
"309 46 CURVE SMOOTH",
"286 36 OFFCURVE",
"260 31 OFFCURVE",
"230 31 CURVE SMOOTH"
);
}
);
width = 522;
}
);
note = o;
unicode = 006F;
},
{
glyphname = p;
layers = (
{
layerId = "18B4A443-2C69-4DCB-9619-77A7DD6AC8EC";
name = Light;
paths = (
{
closed = 1;
nodes = (
"488 484 OFFCURVE",
"443 506 OFFCURVE",
"382 506 CURVE SMOOTH",
"345 506 OFFCURVE",
"311 497 OFFCURVE",
"279 479 CURVE SMOOTH",
"247 461 OFFCURVE",
"219 438 OFFCURVE",
"193 408 CURVE",
"198 485 LINE",
"198 490 OFFCURVE",
"197 493 OFFCURVE",
"195 495 CURVE SMOOTH",
"193 497 OFFCURVE",
"189 497 OFFCURVE",
"185 497 CURVE SMOOTH",
"159 497 LINE",
"87 497 LINE",
"84 478 LINE",
"83 467 OFFCURVE",
"89 461 OFFCURVE",
"102 460 CURVE",
"107 460 LINE SMOOTH",
"109 460 OFFCURVE",
"112 459 OFFCURVE",
"115 459 CURVE SMOOTH",
"130 459 LINE SMOOTH",
"137 459 OFFCURVE",
"145 458 OFFCURVE",
"154 458 CURVE",
"81 -136 LINE",
"69 -136 OFFCURVE",
"59 -138 OFFCURVE",
"51 -138 CURVE SMOOTH",
"35 -138 LINE",
"28 -138 LINE",
"15 -139 OFFCURVE",
"7 -145 OFFCURVE",
"6 -156 CURVE SMOOTH",
"4 -176 LINE",
"76 -176 LINE",
"124 -176 LINE",
"196 -176 LINE",
"198 -156 LINE SMOOTH",
"199 -145 OFFCURVE",
"194 -139 OFFCURVE",
"181 -138 CURVE",
"175 -138 LINE",
"168 -138 LINE SMOOTH",
"165 -138 OFFCURVE",
"160 -137 OFFCURVE",
"153 -137 CURVE SMOOTH",
"146 -137 OFFCURVE",
"138 -136 OFFCURVE",
"129 -136 CURVE",
"154 67 LINE",
"169 43 OFFCURVE",
"188 24 OFFCURVE",
"211 12 CURVE SMOOTH",
"234 0 OFFCURVE",
"263 -6 OFFCURVE",
"297 -6 CURVE SMOOTH",
"332 -6 OFFCURVE",
"364 1 OFFCURVE",
"392 14 CURVE SMOOTH",
"420 27 OFFCURVE",
"445 45 OFFCURVE",
"466 68 CURVE SMOOTH",
"487 91 OFFCURVE",
"505 119 OFFCURVE",
"518 150 CURVE SMOOTH",
"531 181 OFFCURVE",
"541 216 OFFCURVE",
"545 252 CURVE SMOOTH",
"555 337 OFFCURVE",
"546 400 OFFCURVE",
"517 442 CURVE SMOOTH"
);
},
{
closed = 1;
nodes = (
"463 135 OFFCURVE",
"448 112 OFFCURVE",
"431 92 CURVE SMOOTH",
"414 72 OFFCURVE",
"394 58 OFFCURVE",
"371 47 CURVE SMOOTH",
"348 36 OFFCURVE",
"321 31 OFFCURVE",
"292 31 CURVE SMOOTH",
"262 31 OFFCURVE",
"237 37 OFFCURVE",
"215 49 CURVE SMOOTH",
"193 61 OFFCURVE",
"174 80 OFFCURVE",
"159 109 CURVE",
"191 370 LINE",
"215 401 OFFCURVE",
"242 425 OFFCURVE",
"271 442 CURVE SMOOTH",
"300 459 OFFCURVE",
"331 467 OFFCURVE",
"364 467 CURVE SMOOTH",
"415 467 OFFCURVE",
"452 450 OFFCURVE",
"475 415 CURVE SMOOTH",
"498 380 OFFCURVE",
"505 326 OFFCURVE",
"496 252 CURVE SMOOTH",
"492 219 OFFCURVE",
"485 189 OFFCURVE",
"474 162 CURVE SMOOTH"
);
}
);
width = 585;
}
);
note = p;
unicode = 0070;
},
{
glyphname = q;
layers = (
{
layerId = "18B4A443-2C69-4DCB-9619-77A7DD6AC8EC";
name = Light;
paths = (
{
closed = 1;
nodes = (
"447 -139 LINE SMOOTH",
"445 -139 OFFCURVE",
"443 -138 OFFCURVE",
"440 -138 CURVE SMOOTH",
"425 -138 LINE SMOOTH",
"418 -138 OFFCURVE",
"409 -137 OFFCURVE",
"400 -137 CURVE",
"473 452 LINE",
"476 477 LINE",
"390 496 OFFCURVE",
"325 505 OFFCURVE",
"280 505 CURVE SMOOTH",
"245 505 OFFCURVE",
"214 498 OFFCURVE",
"185 485 CURVE SMOOTH",
"156 472 OFFCURVE",
"131 454 OFFCURVE",
"110 431 CURVE SMOOTH",
"89 408 OFFCURVE",
"71 381 OFFCURVE",
"58 349 CURVE SMOOTH",
"45 318 OFFCURVE",
"35 283 OFFCURVE",
"31 247 CURVE SMOOTH",
"21 162 OFFCURVE",
"30 99 OFFCURVE",
"59 57 CURVE SMOOTH",
"88 15 OFFCURVE",
"133 -6 OFFCURVE",
"194 -6 CURVE SMOOTH",
"230 -6 OFFCURVE",
"264 2 OFFCURVE",
"295 19 CURVE SMOOTH",
"326 36 OFFCURVE",
"354 59 OFFCURVE",
"380 88 CURVE",
"353 -137 LINE",
"341 -137 OFFCURVE",
"331 -138 OFFCURVE",
"323 -138 CURVE SMOOTH",
"315 -138 OFFCURVE",
"310 -139 OFFCURVE",
"307 -139 CURVE SMOOTH",
"300 -139 LINE",
"287 -140 OFFCURVE",
"279 -146 OFFCURVE",
"278 -157 CURVE SMOOTH",
"276 -176 LINE",
"348 -176 LINE",
"350 -163 LINE",
"348 -176 LINE",
"396 -176 LINE",
"468 -176 LINE",
"470 -157 LINE SMOOTH",
"471 -146 OFFCURVE",
"466 -140 OFFCURVE",
"453 -139 CURVE"
);
},
{
closed = 1;
nodes = (
"385 128 LINE",
"360 98 OFFCURVE",
"334 74 OFFCURVE",
"305 57 CURVE SMOOTH",
"276 40 OFFCURVE",
"245 32 OFFCURVE",
"212 32 CURVE SMOOTH",
"161 32 OFFCURVE",
"124 49 OFFCURVE",
"101 84 CURVE SMOOTH",
"78 119 OFFCURVE",
"71 173 OFFCURVE",
"80 247 CURVE SMOOTH",
"84 280 OFFCURVE",
"91 310 OFFCURVE",
"102 337 CURVE SMOOTH",
"113 364 OFFCURVE",
"128 388 OFFCURVE",
"145 407 CURVE SMOOTH",
"162 426 OFFCURVE",
"182 441 OFFCURVE",
"205 452 CURVE SMOOTH",
"228 463 OFFCURVE",
"256 468 OFFCURVE",
"285 468 CURVE SMOOTH",
"311 468 OFFCURVE",
"357 461 OFFCURVE",
"425 447 CURVE"
);
}
);
width = 513;
}
);
note = q;
unicode = 0071;
},
{
glyphname = r;
layers = (
{
layerId = "18B4A443-2C69-4DCB-9619-77A7DD6AC8EC";
name = Light;
paths = (
{
closed = 1;
nodes = (
"350 504 OFFCURVE",
"336 506 OFFCURVE",
"321 506 CURVE SMOOTH",
"282 506 OFFCURVE",
"247 495 OFFCURVE",
"218 472 CURVE SMOOTH",
"189 449 OFFCURVE",
"164 417 OFFCURVE",
"143 377 CURVE",
"151 482 LINE",
"151 488 OFFCURVE",
"151 492 OFFCURVE",
"149 494 CURVE SMOOTH",
"147 496 OFFCURVE",
"143 497 OFFCURVE",
"137 497 CURVE SMOOTH",
"112 497 LINE",
"40 497 LINE",
"37 478 LINE",
"36 467 OFFCURVE",
"42 461 OFFCURVE",
"55 460 CURVE",
"60 460 LINE SMOOTH",
"62 460 OFFCURVE",
"65 459 OFFCURVE",
"68 459 CURVE SMOOTH",
"83 459 LINE SMOOTH",
"90 459 OFFCURVE",
"98 458 OFFCURVE",
"107 458 CURVE",
"56 40 LINE",
"51 0 LINE",
"98 0 LINE",
"138 323 LINE",
"158 367 OFFCURVE",
"182 401 OFFCURVE",
"209 424 CURVE SMOOTH",
"236 447 OFFCURVE",
"268 459 OFFCURVE",
"306 459 CURVE SMOOTH",
"316 459 OFFCURVE",
"325 458 OFFCURVE",
"333 457 CURVE SMOOTH",
"341 456 OFFCURVE",
"348 455 OFFCURVE",
"353 453 CURVE SMOOTH",
"358 451 OFFCURVE",
"363 449 OFFCURVE",
"366 448 CURVE SMOOTH",
"369 447 OFFCURVE",
"373 446 OFFCURVE",
"375 446 CURVE SMOOTH",
"381 446 OFFCURVE",
"384 449 OFFCURVE",
"386 454 CURVE",
"396 487 LINE",
"385 493 OFFCURVE",
"374 498 OFFCURVE",
"362 501 CURVE SMOOTH"
);
}
);
width = 411;
}
);
note = r;
unicode = 0072;
},
{
glyphname = s;
layers = (
{
layerId = "18B4A443-2C69-4DCB-9619-77A7DD6AC8EC";
name = Light;
paths = (
{
closed = 1;
nodes = (
"353 211 OFFCURVE",
"344 222 OFFCURVE",
"332 232 CURVE SMOOTH",
"320 242 OFFCURVE",
"306 250 OFFCURVE",
"290 256 CURVE SMOOTH",
"274 262 OFFCURVE",
"259 269 OFFCURVE",
"242 274 CURVE SMOOTH",
"226 279 OFFCURVE",
"209 285 OFFCURVE",
"193 290 CURVE SMOOTH",
"177 295 OFFCURVE",
"163 302 OFFCURVE",
"151 309 CURVE SMOOTH",
"139 316 OFFCURVE",
"130 325 OFFCURVE",
"123 335 CURVE SMOOTH",
"116 345 OFFCURVE",
"114 358 OFFCURVE",
"116 374 CURVE SMOOTH",
"118 387 OFFCURVE",
"122 399 OFFCURVE",
"129 410 CURVE SMOOTH",
"136 421 OFFCURVE",
"145 432 OFFCURVE",
"157 441 CURVE SMOOTH",
"169 450 OFFCURVE",
"183 456 OFFCURVE",
"198 461 CURVE SMOOTH",
"213 466 OFFCURVE",
"230 469 OFFCURVE",
"248 469 CURVE SMOOTH",
"274 469 OFFCURVE",
"299 465 OFFCURVE",
"325 456 CURVE",
"324 444 OFFCURVE",
"324 432 OFFCURVE",
"324 421 CURVE SMOOTH",
"324 410 OFFCURVE",
"323 402 OFFCURVE",
"323 396 CURVE SMOOTH",
"323 384 LINE",
"322 368 OFFCURVE",
"327 360 OFFCURVE",
"341 360 CURVE SMOOTH",
"365 360 LINE",
"380 479 LINE",
"330 497 OFFCURVE",
"287 505 OFFCURVE",
"251 505 CURVE SMOOTH",
"226 505 OFFCURVE",
"202 501 OFFCURVE",
"181 494 CURVE SMOOTH",
"160 487 OFFCURVE",
"142 477 OFFCURVE",
"126 465 CURVE SMOOTH",
"110 453 OFFCURVE",
"98 438 OFFCURVE",
"88 422 CURVE SMOOTH",
"78 406 OFFCURVE",
"72 389 OFFCURVE",
"70 371 CURVE SMOOTH",
"67 350 OFFCURVE",
"70 333 OFFCURVE",
"76 319 CURVE SMOOTH",
"82 305 OFFCURVE",
"91 294 OFFCURVE",
"103 284 CURVE SMOOTH",
"115 274 OFFCURVE",
"128 266 OFFCURVE",
"144 260 CURVE SMOOTH",
"160 254 OFFCURVE",
"176 248 OFFCURVE",
"193 243 CURVE SMOOTH",
"210 238 OFFCURVE",
"226 232 OFFCURVE",
"242 227 CURVE SMOOTH",
"258 222 OFFCURVE",
"272 215 OFFCURVE",
"284 207 CURVE SMOOTH",
"296 199 OFFCURVE",
"305 190 OFFCURVE",
"312 179 CURVE SMOOTH",
"319 168 OFFCURVE",
"321 155 OFFCURVE",
"319 138 CURVE SMOOTH",
"317 123 OFFCURVE",
"313 109 OFFCURVE",
"306 95 CURVE SMOOTH",
"299 81 OFFCURVE",
"289 70 OFFCURVE",
"277 60 CURVE SMOOTH",
"265 50 OFFCURVE",
"251 42 OFFCURVE",
"234 36 CURVE SMOOTH",
"217 30 OFFCURVE",
"199 27 OFFCURVE",
"178 27 CURVE SMOOTH",
"140 27 OFFCURVE",
"108 32 OFFCURVE",
"82 43 CURVE",
"83 56 OFFCURVE",
"84 68 OFFCURVE",
"84 79 CURVE SMOOTH",
"84 90 OFFCURVE",
"85 99 OFFCURVE",
"85 105 CURVE SMOOTH",
"85 117 LINE",
"86 133 OFFCURVE",
"81 141 OFFCURVE",
"67 141 CURVE SMOOTH",
"42 141 LINE",
"28 20 LINE",
"74 2 OFFCURVE",
"121 -8 OFFCURVE",
"171 -8 CURVE SMOOTH",
"199 -8 OFFCURVE",
"224 -4 OFFCURVE",
"247 4 CURVE SMOOTH",
"270 12 OFFCURVE",
"288 23 OFFCURVE",
"305 37 CURVE SMOOTH",
"322 51 OFFCURVE",
"335 66 OFFCURVE",
"345 85 CURVE SMOOTH",
"355 104 OFFCURVE",
"362 124 OFFCURVE",
"365 146 CURVE",
"367 166 OFFCURVE",
"365 183 OFFCURVE",
"359 197 CURVE SMOOTH"
);
}
);
width = 416;
}
);
note = s;
unicode = 0073;
},
{
glyphname = t;
layers = (
{
layerId = "18B4A443-2C69-4DCB-9619-77A7DD6AC8EC";
name = Light;
paths = (
{
closed = 1;
nodes = (
"181 -8 OFFCURVE",
"202 -3 OFFCURVE",
"223 5 CURVE SMOOTH",
"244 13 OFFCURVE",
"261 24 OFFCURVE",
"275 38 CURVE",
"265 60 LINE",
"263 63 OFFCURVE",
"260 64 OFFCURVE",
"257 64 CURVE SMOOTH",
"255 64 OFFCURVE",
"251 63 OFFCURVE",
"247 59 CURVE SMOOTH",
"243 55 OFFCURVE",
"237 52 OFFCURVE",
"230 48 CURVE SMOOTH",
"223 44 OFFCURVE",
"215 40 OFFCURVE",
"206 36 CURVE SMOOTH",
"197 32 OFFCURVE",
"187 31 OFFCURVE",
"175 31 CURVE SMOOTH",
"165 31 OFFCURVE",
"156 33 OFFCURVE",
"148 36 CURVE SMOOTH",
"140 39 OFFCURVE",
"133 44 OFFCURVE",
"128 50 CURVE SMOOTH",
"123 56 OFFCURVE",
"119 64 OFFCURVE",
"117 74 CURVE SMOOTH",
"115 84 OFFCURVE",
"114 95 OFFCURVE",
"116 109 CURVE SMOOTH",
"157 446 LINE",
"314 446 LINE",
"318 482 LINE",
"162 482 LINE",
"185 672 LINE",
"162 672 LINE SMOOTH",
"158 672 OFFCURVE",
"155 670 OFFCURVE",
"153 668 CURVE SMOOTH",
"151 666 OFFCURVE",
"149 663 OFFCURVE",
"148 660 CURVE",
"115 482 LINE",
"29 476 LINE",
"27 458 LINE",
"27 454 OFFCURVE",
"27 452 OFFCURVE",
"29 450 CURVE SMOOTH",
"31 448 OFFCURVE",
"34 446 OFFCURVE",
"38 446 CURVE SMOOTH",
"109 446 LINE",
"67 106 LINE SMOOTH",
"62 67 OFFCURVE",
"68 39 OFFCURVE",
"85 20 CURVE SMOOTH",
"102 1 OFFCURVE",
"126 -8 OFFCURVE",
"160 -8 CURVE SMOOTH"
);
}
);
width = 332;
}
);
note = t;
unicode = 0074;
},
{
glyphname = u;
layers = (
{
layerId = "18B4A443-2C69-4DCB-9619-77A7DD6AC8EC";
name = Light;
paths = (
{
closed = 1;
nodes = (
"489 38 LINE",
"481 38 LINE SMOOTH",
"478 38 OFFCURVE",
"473 39 OFFCURVE",
"466 39 CURVE SMOOTH",
"459 39 OFFCURVE",
"451 40 OFFCURVE",
"442 40 CURVE",
"498 498 LINE",
"450 497 LINE",
"378 497 LINE",
"376 478 LINE SMOOTH",
"375 467 OFFCURVE",
"380 461 OFFCURVE",
"393 460 CURVE",
"399 460 LINE SMOOTH",
"401 460 OFFCURVE",
"403 459 OFFCURVE",
"406 459 CURVE SMOOTH",
"421 459 LINE SMOOTH",
"428 459 OFFCURVE",
"437 458 OFFCURVE",
"446 458 CURVE",
"404 124 LINE",
"378 95 OFFCURVE",
"350 72 OFFCURVE",
"320 55 CURVE SMOOTH",
"290 39 OFFCURVE",
"258 30 OFFCURVE",
"226 30 CURVE SMOOTH",
"182 30 OFFCURVE",
"151 44 OFFCURVE",
"133 70 CURVE SMOOTH",
"115 97 OFFCURVE",
"109 133 OFFCURVE",
"115 180 CURVE SMOOTH",
"154 498 LINE",
"106 497 LINE",
"34 497 LINE",
"32 478 LINE SMOOTH",
"31 467 OFFCURVE",
"36 461 OFFCURVE",
"49 460 CURVE",
"55 460 LINE SMOOTH",
"57 460 OFFCURVE",
"59 459 OFFCURVE",
"62 459 CURVE SMOOTH",
"77 459 LINE SMOOTH",
"84 459 OFFCURVE",
"93 458 OFFCURVE",
"102 458 CURVE",
"67 180 LINE SMOOTH",
"63 151 OFFCURVE",
"64 125 OFFCURVE",
"68 102 CURVE SMOOTH",
"72 79 OFFCURVE",
"80 59 OFFCURVE",
"92 43 CURVE SMOOTH",
"104 27 OFFCURVE",
"119 14 OFFCURVE",
"139 5 CURVE SMOOTH",
"159 -4 OFFCURVE",
"182 -8 OFFCURVE",
"210 -8 CURVE SMOOTH",
"247 -8 OFFCURVE",
"282 1 OFFCURVE",
"314 18 CURVE SMOOTH",
"346 35 OFFCURVE",
"375 58 OFFCURVE",
"402 87 CURVE",
"398 13 LINE",
"397 4 OFFCURVE",
"402 0 OFFCURVE",
"411 0 CURVE SMOOTH",
"437 0 LINE",
"509 0 LINE",
"511 20 LINE SMOOTH",
"512 31 OFFCURVE",
"507 37 OFFCURVE",
"494 38 CURVE"
);
}
);
width = 564;
}
);
note = u;
unicode = 0075;
},
{
glyphname = v;
layers = (
{
layerId = "18B4A443-2C69-4DCB-9619-77A7DD6AC8EC";
name = Light;
paths = (
{
closed = 1;
nodes = (
"528 497 LINE",
"492 497 LINE",
"392 497 LINE",
"390 478 LINE SMOOTH",
"389 467 OFFCURVE",
"394 461 OFFCURVE",
"407 460 CURVE",
"413 460 LINE SMOOTH",
"415 460 OFFCURVE",
"417 459 OFFCURVE",
"420 459 CURVE SMOOTH",
"435 459 LINE SMOOTH",
"442 459 OFFCURVE",
"450 458 OFFCURVE",
"459 458 CURVE",
"261 93 LINE SMOOTH",
"257 86 OFFCURVE",
"254 78 OFFCURVE",
"251 71 CURVE SMOOTH",
"248 64 OFFCURVE",
"245 57 OFFCURVE",
"243 50 CURVE",
"243 52 OFFCURVE",
"243 55 OFFCURVE",
"242 60 CURVE SMOOTH",
"241 65 OFFCURVE",
"240 69 OFFCURVE",
"240 71 CURVE",
"239 78 OFFCURVE",
"238 85 OFFCURVE",
"236 93 CURVE",
"128 458 LINE",
"139 458 OFFCURVE",
"148 459 OFFCURVE",
"157 459 CURVE SMOOTH",
"166 459 OFFCURVE",
"172 460 OFFCURVE",
"174 460 CURVE SMOOTH",
"180 460 LINE",
"193 461 OFFCURVE",
"201 467 OFFCURVE",
"202 478 CURVE SMOOTH",
"204 497 LINE",
"104 497 LINE",
"66 497 LINE",
"30 497 LINE",
"28 478 LINE SMOOTH",
"27 467 OFFCURVE",
"32 461 OFFCURVE",
"45 460 CURVE",
"45 460 OFFCURVE",
"56 460 OFFCURVE",
"78 459 CURVE",
"215 0 LINE",
"257 0 LINE",
"507 459 LINE",
"525 459 LINE SMOOTH",
"531 459 OFFCURVE",
"535 460 OFFCURVE",
"537 460 CURVE SMOOTH",
"542 460 LINE",
"555 461 OFFCURVE",
"563 467 OFFCURVE",
"564 478 CURVE SMOOTH",
"566 497 LINE"
);
}
);
width = 581;
}
);
note = v;
unicode = 0076;
},
{
glyphname = w;
layers = (
{
layerId = "18B4A443-2C69-4DCB-9619-77A7DD6AC8EC";
name = Light;
paths = (
{
closed = 1;
nodes = (
"785 497 LINE",
"750 497 LINE",
"653 497 LINE",
"651 478 LINE SMOOTH",
"650 467 OFFCURVE",
"655 461 OFFCURVE",
"668 460 CURVE",
"673 460 LINE SMOOTH",
"675 460 OFFCURVE",
"678 459 OFFCURVE",
"681 459 CURVE SMOOTH",
"696 459 LINE SMOOTH",
"703 459 OFFCURVE",
"711 458 OFFCURVE",
"720 458 CURVE",
"558 93 LINE",
"554 85 OFFCURVE",
"551 78 OFFCURVE",
"549 71 CURVE SMOOTH",
"547 64 OFFCURVE",
"544 57 OFFCURVE",
"542 50 CURVE",
"541 64 OFFCURVE",
"538 78 OFFCURVE",
"535 93 CURVE SMOOTH",
"452 489 LINE",
"451 496 OFFCURVE",
"446 500 OFFCURVE",
"439 500 CURVE SMOOTH",
"420 500 LINE SMOOTH",
"413 500 OFFCURVE",
"407 496 OFFCURVE",
"404 489 CURVE SMOOTH",
"222 93 LINE SMOOTH",
"218 85 OFFCURVE",
"216 78 OFFCURVE",
"213 71 CURVE SMOOTH",
"204 50 LINE",
"204 52 OFFCURVE",
"204 59 OFFCURVE",
"203 71 CURVE",
"203 78 OFFCURVE",
"201 85 OFFCURVE",
"200 93 CURVE",
"128 458 LINE",
"139 458 OFFCURVE",
"149 459 OFFCURVE",
"158 459 CURVE SMOOTH",
"167 459 OFFCURVE",
"172 460 OFFCURVE",
"174 460 CURVE SMOOTH",
"180 460 LINE",
"193 461 OFFCURVE",
"201 467 OFFCURVE",
"202 478 CURVE",
"205 497 LINE",
"107 498 LINE",
"70 497 LINE",
"31 497 LINE",
"28 478 LINE",
"27 467 OFFCURVE",
"33 461 OFFCURVE",
"46 460 CURVE",
"50 460 LINE",
"55 460 LINE SMOOTH",
"57 460 OFFCURVE",
"61 459 OFFCURVE",
"65 459 CURVE SMOOTH",
"79 459 LINE",
"176 0 LINE",
"209 0 LINE SMOOTH",
"215 0 OFFCURVE",
"220 4 OFFCURVE",
"223 11 CURVE SMOOTH",
"410 415 LINE",
"412 420 OFFCURVE",
"414 424 OFFCURVE",
"416 429 CURVE SMOOTH",
"418 434 OFFCURVE",
"419 439 OFFCURVE",
"421 444 CURVE",
"421 439 OFFCURVE",
"422 434 OFFCURVE",
"423 429 CURVE SMOOTH",
"424 424 OFFCURVE",
"425 420 OFFCURVE",
"426 415 CURVE SMOOTH",
"513 11 LINE",
"514 4 OFFCURVE",
"518 0 OFFCURVE",
"523 0 CURVE SMOOTH",
"558 0 LINE",
"768 459 LINE",
"786 459 LINE SMOOTH",
"792 459 OFFCURVE",
"796 460 OFFCURVE",
"798 460 CURVE SMOOTH",
"803 460 LINE",
"816 461 OFFCURVE",
"824 467 OFFCURVE",
"825 478 CURVE SMOOTH",
"827 497 LINE"
);
}
);
width = 842;
}
);
note = w;
unicode = 0077;
},
{
glyphname = x;
layers = (
{
layerId = "18B4A443-2C69-4DCB-9619-77A7DD6AC8EC";
name = Light;
paths = (
{
closed = 1;
nodes = (
"469 38 OFFCURVE",
"459 38 OFFCURVE",
"442 39 CURVE",
"315 257 LINE",
"486 459 LINE",
"507 460 OFFCURVE",
"517 460 OFFCURVE",
"517 460 CURVE",
"530 461 OFFCURVE",
"538 467 OFFCURVE",
"539 478 CURVE",
"542 497 LINE",
"519 497 LINE",
"475 497 LINE",
"469 497 LINE",
"394 497 LINE",
"391 478 LINE",
"390 467 OFFCURVE",
"396 461 OFFCURVE",
"409 460 CURVE",
"410 460 OFFCURVE",
"419 460 OFFCURVE",
"435 459 CURVE",
"299 294 LINE SMOOTH",
"294 288 OFFCURVE",
"290 282 OFFCURVE",
"288 276 CURVE",
"184 459 LINE",
"199 460 OFFCURVE",
"206 460 OFFCURVE",
"208 460 CURVE",
"221 461 OFFCURVE",
"229 467 OFFCURVE",
"230 478 CURVE",
"233 497 LINE",
"157 497 LINE",
"153 497 LINE",
"153 497 LINE",
"108 497 LINE",
"85 497 LINE",
"82 478 LINE",
"81 467 OFFCURVE",
"87 461 OFFCURVE",
"100 460 CURVE",
"100 460 OFFCURVE",
"110 460 OFFCURVE",
"130 459 CURVE",
"251 255 LINE",
"71 39 LINE",
"53 38 OFFCURVE",
"45 38 OFFCURVE",
"44 38 CURVE",
"31 37 OFFCURVE",
"23 31 OFFCURVE",
"22 20 CURVE SMOOTH",
"20 0 LINE",
"65 0 LINE",
"92 0 LINE",
"167 0 LINE",
"170 20 LINE",
"171 31 OFFCURVE",
"165 37 OFFCURVE",
"152 38 CURVE",
"151 38 OFFCURVE",
"141 38 OFFCURVE",
"122 39 CURVE",
"270 216 LINE SMOOTH",
"274 221 OFFCURVE",
"277 225 OFFCURVE",
"279 232 CURVE",
"389 39 LINE",
"372 38 OFFCURVE",
"362 38 OFFCURVE",
"361 38 CURVE",
"348 37 OFFCURVE",
"340 31 OFFCURVE",
"339 20 CURVE SMOOTH",
"337 0 LINE",
"413 0 LINE",
"439 0 LINE",
"485 0 LINE",
"487 20 LINE SMOOTH",
"488 31 OFFCURVE",
"483 37 OFFCURVE",
"470 38 CURVE"
);
}
);
width = 556;
}
);
note = x;
unicode = 0078;
},
{
glyphname = y;
layers = (
{
layerId = "18B4A443-2C69-4DCB-9619-77A7DD6AC8EC";
name = Light;
paths = (
{
closed = 1;
nodes = (
"527 497 LINE",
"491 497 LINE",
"391 497 LINE",
"388 478 LINE",
"387 467 OFFCURVE",
"393 461 OFFCURVE",
"406 460 CURVE",
"411 460 LINE SMOOTH",
"413 460 OFFCURVE",
"415 459 OFFCURVE",
"418 459 CURVE SMOOTH",
"433 459 LINE SMOOTH",
"440 459 OFFCURVE",
"448 458 OFFCURVE",
"457 458 CURVE",
"259 98 LINE",
"256 93 OFFCURVE",
"254 88 OFFCURVE",
"252 83 CURVE",
"249 78 OFFCURVE",
"247 73 OFFCURVE",
"245 68 CURVE",
"242 83 LINE",
"239 98 LINE",
"127 458 LINE",
"138 458 OFFCURVE",
"149 459 OFFCURVE",
"157 459 CURVE SMOOTH",
"165 459 OFFCURVE",
"171 460 OFFCURVE",
"173 460 CURVE SMOOTH",
"179 460 LINE",
"192 461 OFFCURVE",
"200 467 OFFCURVE",
"201 478 CURVE",
"204 497 LINE",
"103 497 LINE",
"102 497 LINE",
"63 497 LINE",
"30 497 LINE",
"27 478 LINE",
"26 467 OFFCURVE",
"32 461 OFFCURVE",
"45 460 CURVE",
"45 460 OFFCURVE",
"55 460 OFFCURVE",
"75 459 CURVE",
"215 18 LINE",
"103 -176 LINE",
"137 -176 LINE SMOOTH",
"143 -176 OFFCURVE",
"147 -174 OFFCURVE",
"151 -171 CURVE SMOOTH",
"155 -168 OFFCURVE",
"158 -165 OFFCURVE",
"161 -160 CURVE SMOOTH",
"506 459 LINE",
"524 459 LINE SMOOTH",
"530 459 OFFCURVE",
"533 460 OFFCURVE",
"535 460 CURVE SMOOTH",
"540 460 LINE",
"553 461 OFFCURVE",
"561 467 OFFCURVE",
"562 478 CURVE",
"565 497 LINE"
);
}
);
width = 579;
}
);
note = y;
unicode = 0079;
},
{
glyphname = z;
layers = (
{
layerId = "18B4A443-2C69-4DCB-9619-77A7DD6AC8EC";
name = Light;
paths = (
{
closed = 1;
nodes = (
"393 125 LINE SMOOTH",
"379 125 OFFCURVE",
"372 117 OFFCURVE",
"369 101 CURVE",
"369 100 OFFCURVE",
"367 97 OFFCURVE",
"366 91 CURVE SMOOTH",
"365 85 OFFCURVE",
"363 78 OFFCURVE",
"361 68 CURVE SMOOTH",
"359 58 OFFCURVE",
"357 48 OFFCURVE",
"355 37 CURVE",
"83 37 LINE",
"446 458 LINE SMOOTH",
"451 464 OFFCURVE",
"454 470 OFFCURVE",
"455 477 CURVE SMOOTH",
"458 497 LINE",
"98 497 LINE",
"97 493 LINE",
"82 368 LINE",
"106 368 LINE SMOOTH",
"120 368 OFFCURVE",
"128 376 OFFCURVE",
"131 392 CURVE",
"131 393 OFFCURVE",
"132 397 OFFCURVE",
"133 403 CURVE SMOOTH",
"134 409 OFFCURVE",
"137 417 OFFCURVE",
"139 427 CURVE SMOOTH",
"141 437 OFFCURVE",
"143 449 OFFCURVE",
"145 460 CURVE",
"397 460 LINE",
"33 37 LINE SMOOTH",
"27 30 OFFCURVE",
"24 25 OFFCURVE",
"23 19 CURVE SMOOTH",
"20 0 LINE",
"376 0 LINE",
"384 0 LINE",
"402 0 LINE",
"417 125 LINE",
"398 125 LINE"
);
}
);
width = 477;
}
);
note = z;
unicode = 007A;
},
{
glyphname = braceleft;
layers = (
{
layerId = "18B4A443-2C69-4DCB-9619-77A7DD6AC8EC";
name = Light;
paths = (
{
closed = 1;
nodes = (
"97 204 OFFCURVE",
"93 186 OFFCURVE",
"88 169 CURVE SMOOTH",
"83 152 OFFCURVE",
"77 134 OFFCURVE",
"71 117 CURVE SMOOTH",
"65 100 OFFCURVE",
"60 83 OFFCURVE",
"55 65 CURVE SMOOTH",
"50 47 OFFCURVE",
"45 29 OFFCURVE",
"43 10 CURVE SMOOTH",
"41 -10 OFFCURVE",
"42 -29 OFFCURVE",
"46 -46 CURVE SMOOTH",
"50 -63 OFFCURVE",
"58 -78 OFFCURVE",
"68 -91 CURVE SMOOTH",
"78 -104 OFFCURVE",
"91 -114 OFFCURVE",
"108 -121 CURVE SMOOTH",
"125 -128 OFFCURVE",
"144 -132 OFFCURVE",
"166 -132 CURVE SMOOTH",
"194 -132 LINE",
"196 -111 LINE",
"196 -107 OFFCURVE",
"196 -105 OFFCURVE",
"193 -103 CURVE SMOOTH",
"190 -101 OFFCURVE",
"188 -100 OFFCURVE",
"185 -100 CURVE SMOOTH",
"169 -100 LINE SMOOTH",
"155 -100 OFFCURVE",
"141 -97 OFFCURVE",
"130 -92 CURVE SMOOTH",
"119 -87 OFFCURVE",
"110 -80 OFFCURVE",
"103 -71 CURVE SMOOTH",
"96 -62 OFFCURVE",
"90 -50 OFFCURVE",
"87 -37 CURVE SMOOTH",
"84 -24 OFFCURVE",
"83 -8 OFFCURVE",
"85 8 CURVE SMOOTH",
"87 27 OFFCURVE",
"91 45 OFFCURVE",
"96 63 CURVE SMOOTH",
"101 81 OFFCURVE",
"107 98 OFFCURVE",
"113 116 CURVE SMOOTH",
"119 134 OFFCURVE",
"124 151 OFFCURVE",
"129 169 CURVE SMOOTH",
"134 187 OFFCURVE",
"138 204 OFFCURVE",
"140 222 CURVE",
"142 234 OFFCURVE",
"141 246 OFFCURVE",
"138 256 CURVE SMOOTH",
"135 266 OFFCURVE",
"131 275 OFFCURVE",
"125 283 CURVE SMOOTH",
"119 291 OFFCURVE",
"112 297 OFFCURVE",
"104 302 CURVE SMOOTH",
"96 307 OFFCURVE",
"86 311 OFFCURVE",
"77 313 CURVE",
"87 315 OFFCURVE",
"97 319 OFFCURVE",
"106 324 CURVE SMOOTH",
"115 329 OFFCURVE",
"124 336 OFFCURVE",
"132 344 CURVE SMOOTH",
"140 352 OFFCURVE",
"147 360 OFFCURVE",
"152 370 CURVE SMOOTH",
"157 380 OFFCURVE",
"161 392 OFFCURVE",
"163 404 CURVE",
"165 422 OFFCURVE",
"166 439 OFFCURVE",
"165 457 CURVE SMOOTH",
"164 475 OFFCURVE",
"163 492 OFFCURVE",
"161 510 CURVE SMOOTH",
"159 528 OFFCURVE",
"159 545 OFFCURVE",
"158 563 CURVE SMOOTH",
"157 581 OFFCURVE",
"158 599 OFFCURVE",
"160 618 CURVE SMOOTH",
"162 634 OFFCURVE",
"167 650 OFFCURVE",
"173 663 CURVE SMOOTH",
"179 676 OFFCURVE",
"187 688 OFFCURVE",
"197 697 CURVE SMOOTH",
"207 706 OFFCURVE",
"218 713 OFFCURVE",
"230 718 CURVE SMOOTH",
"242 723 OFFCURVE",
"256 726 OFFCURVE",
"270 726 CURVE SMOOTH",
"287 726 LINE SMOOTH",
"290 726 OFFCURVE",
"292 727 OFFCURVE",
"295 729 CURVE SMOOTH",
"298 731 OFFCURVE",
"300 734 OFFCURVE",
"300 738 CURVE",
"303 758 LINE",
"276 758 LINE SMOOTH",
"254 758 OFFCURVE",
"233 755 OFFCURVE",
"215 748 CURVE SMOOTH",
"197 741 OFFCURVE",
"181 731 OFFCURVE",
"167 718 CURVE SMOOTH",
"153 705 OFFCURVE",
"142 689 OFFCURVE",
"134 672 CURVE SMOOTH",
"126 655 OFFCURVE",
"120 636 OFFCURVE",
"118 616 CURVE SMOOTH",
"116 597 OFFCURVE",
"115 580 OFFCURVE",
"116 562 CURVE SMOOTH",
"117 544 OFFCURVE",
"117 526 OFFCURVE",
"119 509 CURVE SMOOTH",
"121 492 OFFCURVE",
"122 474 OFFCURVE",
"123 457 CURVE SMOOTH",
"124 440 OFFCURVE",
"124 422 OFFCURVE",
"122 404 CURVE SMOOTH",
"121 393 OFFCURVE",
"117 383 OFFCURVE",
"112 374 CURVE SMOOTH",
"107 365 OFFCURVE",
"102 357 OFFCURVE",
"94 350 CURVE SMOOTH",
"86 343 OFFCURVE",
"77 338 OFFCURVE",
"67 334 CURVE SMOOTH",
"57 330 OFFCURVE",
"46 328 OFFCURVE",
"34 328 CURVE",
"30 298 LINE",
"42 298 OFFCURVE",
"53 296 OFFCURVE",
"62 292 CURVE SMOOTH",
"71 288 OFFCURVE",
"79 284 OFFCURVE",
"85 277 CURVE SMOOTH",
"91 270 OFFCURVE",
"94 262 OFFCURVE",
"97 253 CURVE SMOOTH",
"100 244 OFFCURVE",
"100 233 OFFCURVE",
"99 222 CURVE SMOOTH"
);
}
);
width = 318;
}
);
note = braceleft;
unicode = 007B;
},
{
glyphname = bar;
layers = (
{
layerId = "18B4A443-2C69-4DCB-9619-77A7DD6AC8EC";
name = Light;
paths = (
{
closed = 1;
nodes = (
"84 758 LINE",
"84 -176 LINE",
"121 -176 LINE",
"121 758 LINE"
);
}
);
width = 205;
}
);
note = bar;
unicode = 007C;
},
{
glyphname = braceright;
layers = (
{
layerId = "18B4A443-2C69-4DCB-9619-77A7DD6AC8EC";
name = Light;
paths = (
{
closed = 1;
nodes = (
"201 233 OFFCURVE",
"204 244 OFFCURVE",
"209 253 CURVE SMOOTH",
"214 262 OFFCURVE",
"219 270 OFFCURVE",
"227 277 CURVE SMOOTH",
"235 284 OFFCURVE",
"244 288 OFFCURVE",
"254 292 CURVE SMOOTH",
"264 296 OFFCURVE",
"274 298 OFFCURVE",
"286 298 CURVE",
"290 328 LINE",
"278 328 OFFCURVE",
"268 330 OFFCURVE",
"259 334 CURVE SMOOTH",
"250 338 OFFCURVE",
"242 343 OFFCURVE",
"236 350 CURVE SMOOTH",
"230 357 OFFCURVE",
"227 365 OFFCURVE",
"224 374 CURVE SMOOTH",
"221 383 OFFCURVE",
"221 393 OFFCURVE",
"222 404 CURVE SMOOTH",
"224 422 OFFCURVE",
"228 441 OFFCURVE",
"233 458 CURVE SMOOTH",
"238 475 OFFCURVE",
"244 493 OFFCURVE",
"250 510 CURVE SMOOTH",
"256 527 OFFCURVE",
"261 544 OFFCURVE",
"266 562 CURVE SMOOTH",
"271 580 OFFCURVE",
"276 597 OFFCURVE",
"278 616 CURVE SMOOTH",
"280 636 OFFCURVE",
"279 656 OFFCURVE",
"275 673 CURVE SMOOTH",
"271 690 OFFCURVE",
"263 705 OFFCURVE",
"253 718 CURVE SMOOTH",
"243 731 OFFCURVE",
"230 741 OFFCURVE",
"213 748 CURVE SMOOTH",
"196 755 OFFCURVE",
"177 759 OFFCURVE",
"155 759 CURVE SMOOTH",
"127 759 LINE",
"125 738 LINE",
"125 734 OFFCURVE",
"126 731 OFFCURVE",
"128 729 CURVE SMOOTH",
"130 727 OFFCURVE",
"133 726 OFFCURVE",
"136 726 CURVE SMOOTH",
"152 726 LINE SMOOTH",
"166 726 OFFCURVE",
"180 724 OFFCURVE",
"191 719 CURVE SMOOTH",
"202 714 OFFCURVE",
"212 706 OFFCURVE",
"219 697 CURVE SMOOTH",
"226 688 OFFCURVE",
"231 676 OFFCURVE",
"234 663 CURVE SMOOTH",
"237 650 OFFCURVE",
"238 634 OFFCURVE",
"236 618 CURVE SMOOTH",
"234 599 OFFCURVE",
"230 581 OFFCURVE",
"225 563 CURVE SMOOTH",
"220 545 OFFCURVE",
"214 528 OFFCURVE",
"208 510 CURVE SMOOTH",
"202 492 OFFCURVE",
"197 475 OFFCURVE",
"192 457 CURVE SMOOTH",
"187 439 OFFCURVE",
"183 422 OFFCURVE",
"181 404 CURVE",
"179 392 OFFCURVE",
"180 380 OFFCURVE",
"183 370 CURVE SMOOTH",
"186 360 OFFCURVE",
"190 352 OFFCURVE",
"196 344 CURVE SMOOTH",
"202 336 OFFCURVE",
"209 329 OFFCURVE",
"217 324 CURVE SMOOTH",
"225 319 OFFCURVE",
"234 315 OFFCURVE",
"243 313 CURVE",
"233 311 OFFCURVE",
"223 307 OFFCURVE",
"214 302 CURVE SMOOTH",
"205 297 OFFCURVE",
"196 291 OFFCURVE",
"188 283 CURVE SMOOTH",
"180 275 OFFCURVE",
"174 266 OFFCURVE",
"169 256 CURVE SMOOTH",
"164 246 OFFCURVE",
"160 234 OFFCURVE",
"158 222 CURVE",
"156 204 OFFCURVE",
"155 187 OFFCURVE",
"156 169 CURVE SMOOTH",
"157 151 OFFCURVE",
"159 135 OFFCURVE",
"160 117 CURVE SMOOTH",
"163 63 LINE SMOOTH",
"164 45 OFFCURVE",
"163 27 OFFCURVE",
"161 8 CURVE SMOOTH",
"159 -8 OFFCURVE",
"154 -23 OFFCURVE",
"148 -36 CURVE SMOOTH",
"142 -49 OFFCURVE",
"134 -61 OFFCURVE",
"124 -70 CURVE SMOOTH",
"114 -79 OFFCURVE",
"103 -87 OFFCURVE",
"91 -92 CURVE SMOOTH",
"79 -97 OFFCURVE",
"65 -100 OFFCURVE",
"51 -100 CURVE SMOOTH",
"34 -100 LINE SMOOTH",
"31 -100 OFFCURVE",
"29 -100 OFFCURVE",
"26 -102 CURVE SMOOTH",
"23 -104 OFFCURVE",
"21 -107 OFFCURVE",
"21 -111 CURVE",
"18 -132 LINE",
"46 -132 LINE SMOOTH",
"68 -132 OFFCURVE",
"88 -128 OFFCURVE",
"106 -121 CURVE SMOOTH",
"124 -114 OFFCURVE",
"140 -104 OFFCURVE",
"154 -91 CURVE SMOOTH",
"168 -78 OFFCURVE",
"179 -63 OFFCURVE",
"187 -46 CURVE SMOOTH",
"195 -29 OFFCURVE",
"201 -9 OFFCURVE",
"203 11 CURVE SMOOTH",
"205 30 OFFCURVE",
"206 47 OFFCURVE",
"205 65 CURVE SMOOTH",
"204 83 OFFCURVE",
"204 100 OFFCURVE",
"202 117 CURVE SMOOTH",
"200 134 OFFCURVE",
"199 152 OFFCURVE",
"198 169 CURVE SMOOTH",
"197 186 OFFCURVE",
"198 204 OFFCURVE",
"200 222 CURVE SMOOTH"
);
}
);
width = 326;
}
);
note = braceright;
unicode = 007D;
},
{
glyphname = asciitilde;
layers = (
{
layerId = "18B4A443-2C69-4DCB-9619-77A7DD6AC8EC";
name = Light;
paths = (
{
closed = 1;
nodes = (
"370 284 OFFCURVE",
"355 287 OFFCURVE",
"339 293 CURVE SMOOTH",
"323 299 OFFCURVE",
"308 307 OFFCURVE",
"292 315 CURVE SMOOTH",
"276 323 OFFCURVE",
"258 331 OFFCURVE",
"241 337 CURVE SMOOTH",
"224 343 OFFCURVE",
"207 346 OFFCURVE",
"190 346 CURVE SMOOTH",
"171 346 OFFCURVE",
"154 343 OFFCURVE",
"139 336 CURVE SMOOTH",
"124 329 OFFCURVE",
"110 321 OFFCURVE",
"99 309 CURVE SMOOTH",
"88 297 OFFCURVE",
"78 284 OFFCURVE",
"71 268 CURVE SMOOTH",
"64 252 OFFCURVE",
"58 235 OFFCURVE",
"56 217 CURVE",
"95 217 LINE",
"97 230 OFFCURVE",
"101 242 OFFCURVE",
"106 253 CURVE SMOOTH",
"111 264 OFFCURVE",
"117 274 OFFCURVE",
"125 282 CURVE SMOOTH",
"133 290 OFFCURVE",
"143 296 OFFCURVE",
"153 300 CURVE SMOOTH",
"163 304 OFFCURVE",
"175 307 OFFCURVE",
"188 307 CURVE SMOOTH",
"202 307 OFFCURVE",
"216 303 OFFCURVE",
"232 297 CURVE SMOOTH",
"248 291 OFFCURVE",
"263 284 OFFCURVE",
"280 276 CURVE SMOOTH",
"297 268 OFFCURVE",
"314 260 OFFCURVE",
"331 254 CURVE SMOOTH",
"348 248 OFFCURVE",
"365 244 OFFCURVE",
"382 244 CURVE SMOOTH",
"401 244 OFFCURVE",
"418 247 OFFCURVE",
"433 254 CURVE SMOOTH",
"448 261 OFFCURVE",
"462 270 OFFCURVE",
"473 282 CURVE SMOOTH",
"484 294 OFFCURVE",
"494 306 OFFCURVE",
"501 322 CURVE SMOOTH",
"508 338 OFFCURVE",
"514 356 OFFCURVE",
"516 374 CURVE",
"477 374 LINE",
"475 361 OFFCURVE",
"472 349 OFFCURVE",
"467 338 CURVE SMOOTH",
"462 327 OFFCURVE",
"455 317 OFFCURVE",
"447 309 CURVE SMOOTH",
"439 301 OFFCURVE",
"430 294 OFFCURVE",
"419 290 CURVE SMOOTH",
"408 286 OFFCURVE",
"396 284 OFFCURVE",
"384 284 CURVE SMOOTH"
);
}
);
width = 571;
}
);
note = asciitilde;
unicode = 007E;
},
{
glyphname = exclamdown;
layers = (
{
layerId = "18B4A443-2C69-4DCB-9619-77A7DD6AC8EC";
name = Light;
paths = (
{
closed = 1;
nodes = (
"37 -176 LINE",
"84 -176 LINE",
"117 99 LINE SMOOTH",
"119 114 OFFCURVE",
"121 129 OFFCURVE",
"122 142 CURVE SMOOTH",
"123 155 OFFCURVE",
"125 168 OFFCURVE",
"126 182 CURVE SMOOTH",
"127 196 OFFCURVE",
"128 211 OFFCURVE",
"129 226 CURVE SMOOTH",
"130 241 OFFCURVE",
"131 258 OFFCURVE",
"132 277 CURVE",
"100 277 LINE",
"97 258 OFFCURVE",
"93 241 OFFCURVE",
"90 226 CURVE SMOOTH",
"87 211 OFFCURVE",
"85 196 OFFCURVE",
"83 182 CURVE SMOOTH",
"81 168 OFFCURVE",
"78 154 OFFCURVE",
"76 141 CURVE SMOOTH",
"74 128 OFFCURVE",
"73 114 OFFCURVE",
"71 99 CURVE SMOOTH"
);
},
{
closed = 1;
nodes = (
"89 446 OFFCURVE",
"92 435 OFFCURVE",
"100 426 CURVE SMOOTH",
"108 417 OFFCURVE",
"118 412 OFFCURVE",
"131 412 CURVE SMOOTH",
"137 412 OFFCURVE",
"143 414 OFFCURVE",
"149 416 CURVE SMOOTH",
"155 418 OFFCURVE",
"160 422 OFFCURVE",
"165 426 CURVE SMOOTH",
"170 430 OFFCURVE",
"174 435 OFFCURVE",
"177 441 CURVE SMOOTH",
"180 447 OFFCURVE",
"182 453 OFFCURVE",
"183 460 CURVE SMOOTH",
"184 466 OFFCURVE",
"183 472 OFFCURVE",
"181 478 CURVE SMOOTH",
"179 484 OFFCURVE",
"177 488 OFFCURVE",
"173 492 CURVE SMOOTH",
"169 496 OFFCURVE",
"165 500 OFFCURVE",
"160 502 CURVE SMOOTH",
"155 504 OFFCURVE",
"148 506 OFFCURVE",
"142 506 CURVE SMOOTH",
"129 506 OFFCURVE",
"118 501 OFFCURVE",
"108 492 CURVE SMOOTH",
"98 483 OFFCURVE",
"93 472 OFFCURVE",
"91 459 CURVE SMOOTH"
);
}
);
width = 224;
}
);
note = exclamdown;
unicode = 00A1;
},
{
glyphname = cent;
layers = (
{
layerId = "18B4A443-2C69-4DCB-9619-77A7DD6AC8EC";
name = Light;
paths = (
{
closed = 1;
nodes = (
"387 80 LINE SMOOTH",
"385 83 OFFCURVE",
"382 85 OFFCURVE",
"378 85 CURVE SMOOTH",
"374 85 OFFCURVE",
"369 83 OFFCURVE",
"362 77 CURVE SMOOTH",
"355 71 OFFCURVE",
"346 65 OFFCURVE",
"335 58 CURVE SMOOTH",
"324 51 OFFCURVE",
"310 46 OFFCURVE",
"293 40 CURVE SMOOTH",
"276 34 OFFCURVE",
"255 31 OFFCURVE",
"231 31 CURVE SMOOTH",
"227 31 OFFCURVE",
"222 32 OFFCURVE",
"217 32 CURVE",
"236 139 LINE",
"292 467 LINE",
"293 468 LINE",
"317 468 OFFCURVE",
"344 462 OFFCURVE",
"374 451 CURVE",
"373 438 OFFCURVE",
"372 425 OFFCURVE",
"372 413 CURVE SMOOTH",
"372 401 OFFCURVE",
"371 392 OFFCURVE",
"371 385 CURVE SMOOTH",
"371 373 LINE",
"370 357 OFFCURVE",
"376 349 OFFCURVE",
"390 349 CURVE SMOOTH",
"414 349 LINE",
"429 474 LINE",
"406 481 LINE SMOOTH",
"391 486 OFFCURVE",
"372 491 OFFCURVE",
"350 496 CURVE SMOOTH",
"328 501 OFFCURVE",
"311 504 OFFCURVE",
"299 505 CURVE",
"308 556 LINE",
"308 558 LINE",
"320 624 LINE",
"302 624 LINE SMOOTH",
"297 624 OFFCURVE",
"293 622 OFFCURVE",
"290 619 CURVE SMOOTH",
"287 616 OFFCURVE",
"286 612 OFFCURVE",
"285 608 CURVE",
"273 539 LINE",
"267 505 LINE",
"267 504 LINE",
"241 502 OFFCURVE",
"218 496 OFFCURVE",
"196 487 CURVE SMOOTH",
"167 475 OFFCURVE",
"141 457 OFFCURVE",
"119 434 CURVE SMOOTH",
"97 411 OFFCURVE",
"79 384 OFFCURVE",
"65 353 CURVE SMOOTH",
"51 322 OFFCURVE",
"42 287 OFFCURVE",
"37 249 CURVE SMOOTH",
"32 209 OFFCURVE",
"33 173 OFFCURVE",
"40 141 CURVE SMOOTH",
"47 109 OFFCURVE",
"58 83 OFFCURVE",
"74 61 CURVE SMOOTH",
"90 39 OFFCURVE",
"110 22 OFFCURVE",
"135 11 CURVE SMOOTH",
"148 5 OFFCURVE",
"163 0 OFFCURVE",
"179 -3 CURVE",
"168 -68 LINE",
"158 -126 LINE",
"176 -126 LINE SMOOTH",
"181 -126 OFFCURVE",
"184 -125 OFFCURVE",
"187 -122 CURVE SMOOTH",
"190 -119 OFFCURVE",
"192 -115 OFFCURVE",
"193 -111 CURVE",
"211 -6 LINE",
"220 -6 LINE SMOOTH",
"239 -6 OFFCURVE",
"256 -5 OFFCURVE",
"274 -1 CURVE SMOOTH",
"292 3 OFFCURVE",
"309 7 OFFCURVE",
"324 13 CURVE SMOOTH",
"339 19 OFFCURVE",
"353 27 OFFCURVE",
"366 36 CURVE SMOOTH",
"379 45 OFFCURVE",
"389 54 OFFCURVE",
"398 64 CURVE"
);
},
{
closed = 1;
nodes = (
"100 106 OFFCURVE",
"92 129 OFFCURVE",
"87 156 CURVE SMOOTH",
"82 183 OFFCURVE",
"82 214 OFFCURVE",
"86 249 CURVE SMOOTH",
"90 283 OFFCURVE",
"98 313 OFFCURVE",
"109 340 CURVE SMOOTH",
"120 367 OFFCURVE",
"134 390 OFFCURVE",
"152 409 CURVE SMOOTH",
"169 428 OFFCURVE",
"190 443 OFFCURVE",
"213 453 CURVE SMOOTH",
"228 459 OFFCURVE",
"244 464 OFFCURVE",
"261 466 CURVE",
"186 37 LINE",
"178 39 OFFCURVE",
"170 41 OFFCURVE",
"162 45 CURVE SMOOTH",
"142 55 OFFCURVE",
"126 69 OFFCURVE",
"113 88 CURVE SMOOTH"
);
}
);
width = 458;
}
);
note = cent;
unicode = 00A2;
},
{
glyphname = sterling;
layers = (
{
layerId = "18B4A443-2C69-4DCB-9619-77A7DD6AC8EC";
name = Light;
paths = (
{
closed = 1;
nodes = (
"51 316 LINE",
"151 316 LINE",
"131 153 LINE SMOOTH",
"129 136 OFFCURVE",
"124 121 OFFCURVE",
"118 108 CURVE SMOOTH",
"112 95 OFFCURVE",
"105 84 OFFCURVE",
"95 74 CURVE SMOOTH",
"85 64 OFFCURVE",
"74 56 OFFCURVE",
"63 49 CURVE SMOOTH",
"52 42 OFFCURVE",
"40 36 OFFCURVE",
"28 32 CURVE",
"24 0 LINE",
"509 0 LINE SMOOTH",
"516 0 OFFCURVE",
"521 2 OFFCURVE",
"526 7 CURVE SMOOTH",
"531 12 OFFCURVE",
"533 17 OFFCURVE",
"534 22 CURVE",
"536 42 LINE",
"143 42 LINE SMOOTH",
"135 42 OFFCURVE",
"127 41 OFFCURVE",
"120 40 CURVE SMOOTH",
"113 39 OFFCURVE",
"105 39 OFFCURVE",
"98 38 CURVE",
"121 52 OFFCURVE",
"140 69 OFFCURVE",
"154 89 CURVE SMOOTH",
"168 109 OFFCURVE",
"177 134 OFFCURVE",
"181 164 CURVE SMOOTH",
"200 316 LINE",
"424 316 LINE SMOOTH",
"428 316 OFFCURVE",
"433 317 OFFCURVE",
"436 320 CURVE SMOOTH",
"439 323 OFFCURVE",
"441 326 OFFCURVE",
"441 330 CURVE",
"443 350 LINE",
"204 350 LINE",
"222 496 LINE SMOOTH",
"225 522 OFFCURVE",
"232 547 OFFCURVE",
"241 569 CURVE SMOOTH",
"250 591 OFFCURVE",
"263 609 OFFCURVE",
"278 625 CURVE SMOOTH",
"293 641 OFFCURVE",
"310 652 OFFCURVE",
"331 661 CURVE SMOOTH",
"352 670 OFFCURVE",
"375 674 OFFCURVE",
"401 674 CURVE SMOOTH",
"421 674 OFFCURVE",
"438 671 OFFCURVE",
"452 667 CURVE SMOOTH",
"466 663 OFFCURVE",
"478 657 OFFCURVE",
"487 649 CURVE SMOOTH",
"496 641 OFFCURVE",
"504 633 OFFCURVE",
"510 623 CURVE SMOOTH",
"516 613 OFFCURVE",
"523 602 OFFCURVE",
"528 592 CURVE",
"532 586 OFFCURVE",
"536 584 OFFCURVE",
"542 584 CURVE SMOOTH",
"546 584 OFFCURVE",
"550 584 OFFCURVE",
"553 586 CURVE",
"573 597 LINE",
"568 613 OFFCURVE",
"561 629 OFFCURVE",
"552 643 CURVE SMOOTH",
"543 657 OFFCURVE",
"533 669 OFFCURVE",
"520 680 CURVE SMOOTH",
"507 691 OFFCURVE",
"491 700 OFFCURVE",
"472 706 CURVE SMOOTH",
"453 712 OFFCURVE",
"431 715 OFFCURVE",
"406 715 CURVE SMOOTH",
"372 715 OFFCURVE",
"341 709 OFFCURVE",
"314 698 CURVE SMOOTH",
"287 687 OFFCURVE",
"264 672 OFFCURVE",
"244 652 CURVE SMOOTH",
"224 632 OFFCURVE",
"209 610 OFFCURVE",
"197 583 CURVE SMOOTH",
"185 556 OFFCURVE",
"177 527 OFFCURVE",
"173 496 CURVE SMOOTH",
"155 349 LINE",
"73 349 LINE SMOOTH",
"67 349 OFFCURVE",
"63 347 OFFCURVE",
"59 344 CURVE SMOOTH",
"55 341 OFFCURVE",
"54 337 OFFCURVE",
"53 332 CURVE"
);
}
);
width = 600;
}
);
note = sterling;
unicode = 00A3;
},
{
glyphname = currency;
layers = (
{
layerId = "18B4A443-2C69-4DCB-9619-77A7DD6AC8EC";
name = Light;
paths = (
{
closed = 1;
nodes = (
"93 315 OFFCURVE",
"94 294 OFFCURVE",
"99 276 CURVE SMOOTH",
"104 258 OFFCURVE",
"111 241 OFFCURVE",
"121 226 CURVE",
"35 150 LINE",
"56 125 LINE",
"143 202 LINE",
"157 190 OFFCURVE",
"173 181 OFFCURVE",
"190 174 CURVE SMOOTH",
"207 167 OFFCURVE",
"226 164 OFFCURVE",
"247 164 CURVE SMOOTH",
"268 164 OFFCURVE",
"287 167 OFFCURVE",
"306 174 CURVE SMOOTH",
"325 181 OFFCURVE",
"344 190 OFFCURVE",
"360 202 CURVE",
"427 125 LINE",
"456 150 LINE",
"388 227 LINE",
"402 242 OFFCURVE",
"413 259 OFFCURVE",
"422 277 CURVE SMOOTH",
"431 295 OFFCURVE",
"437 314 OFFCURVE",
"440 335 CURVE SMOOTH",
"443 356 OFFCURVE",
"442 376 OFFCURVE",
"437 394 CURVE SMOOTH",
"432 412 OFFCURVE",
"424 429 OFFCURVE",
"414 444 CURVE",
"500 521 LINE",
"479 546 LINE",
"392 469 LINE",
"378 481 OFFCURVE",
"363 490 OFFCURVE",
"346 497 CURVE SMOOTH",
"329 504 OFFCURVE",
"310 507 OFFCURVE",
"289 507 CURVE SMOOTH",
"268 507 OFFCURVE",
"248 504 OFFCURVE",
"229 497 CURVE SMOOTH",
"210 490 OFFCURVE",
"191 480 OFFCURVE",
"175 468 CURVE",
"108 545 LINE",
"80 520 LINE",
"148 443 LINE",
"134 428 OFFCURVE",
"122 412 OFFCURVE",
"113 394 CURVE SMOOTH",
"104 376 OFFCURVE",
"99 357 OFFCURVE",
"96 336 CURVE SMOOTH"
);
},
{
closed = 1;
nodes = (
"134 354 OFFCURVE",
"141 371 OFFCURVE",
"150 388 CURVE SMOOTH",
"159 404 OFFCURVE",
"170 419 OFFCURVE",
"184 431 CURVE SMOOTH",
"198 443 OFFCURVE",
"213 454 OFFCURVE",
"230 461 CURVE SMOOTH",
"247 468 OFFCURVE",
"265 472 OFFCURVE",
"284 472 CURVE SMOOTH",
"303 472 OFFCURVE",
"320 468 OFFCURVE",
"336 461 CURVE SMOOTH",
"352 454 OFFCURVE",
"365 444 OFFCURVE",
"376 432 CURVE SMOOTH",
"387 420 OFFCURVE",
"395 404 OFFCURVE",
"400 388 CURVE SMOOTH",
"405 372 OFFCURVE",
"406 355 OFFCURVE",
"404 336 CURVE SMOOTH",
"402 317 OFFCURVE",
"396 299 OFFCURVE",
"387 283 CURVE SMOOTH",
"378 267 OFFCURVE",
"366 252 OFFCURVE",
"352 240 CURVE SMOOTH",
"338 228 OFFCURVE",
"322 218 OFFCURVE",
"305 211 CURVE SMOOTH",
"288 204 OFFCURVE",
"270 200 OFFCURVE",
"251 200 CURVE SMOOTH",
"232 200 OFFCURVE",
"216 204 OFFCURVE",
"200 211 CURVE SMOOTH",
"184 218 OFFCURVE",
"171 228 OFFCURVE",
"160 240 CURVE SMOOTH",
"149 252 OFFCURVE",
"142 267 OFFCURVE",
"137 283 CURVE SMOOTH",
"132 299 OFFCURVE",
"130 316 OFFCURVE",
"132 335 CURVE SMOOTH"
);
}
);
width = 538;
}
);
note = currency;
unicode = 00A4;
},
{
glyphname = yen;
layers = (
{
layerId = "18B4A443-2C69-4DCB-9619-77A7DD6AC8EC";
name = Light;
paths = (
{
closed = 1;
nodes = (
"46 308 LINE",
"43 279 LINE",
"226 279 LINE",
"219 220 LINE",
"36 220 LINE",
"32 191 LINE",
"215 191 LINE",
"192 0 LINE",
"239 0 LINE",
"262 191 LINE",
"446 191 LINE",
"449 220 LINE",
"266 220 LINE",
"273 279 LINE",
"456 279 LINE",
"460 308 LINE",
"286 308 LINE",
"547 708 LINE",
"507 708 LINE SMOOTH",
"502 708 OFFCURVE",
"498 706 OFFCURVE",
"495 704 CURVE SMOOTH",
"492 702 OFFCURVE",
"488 699 OFFCURVE",
"486 695 CURVE",
"273 362 LINE",
"266 349 OFFCURVE",
"260 337 OFFCURVE",
"256 326 CURVE",
"255 332 OFFCURVE",
"253 338 OFFCURVE",
"252 344 CURVE SMOOTH",
"251 350 OFFCURVE",
"249 355 OFFCURVE",
"247 362 CURVE",
"115 695 LINE SMOOTH",
"112 703 OFFCURVE",
"106 708 OFFCURVE",
"97 708 CURVE SMOOTH",
"57 708 LINE",
"219 308 LINE"
);
}
);
width = 569;
}
);
note = yen;
unicode = 00A5;
},
{
glyphname = brokenbar;
layers = (
{
layerId = "18B4A443-2C69-4DCB-9619-77A7DD6AC8EC";
name = Light;
paths = (
{
closed = 1;
nodes = (
"140 758 LINE",
"92 370 LINE",
"130 370 LINE",
"178 758 LINE"
);
},
{
closed = 1;
nodes = (
"73 212 LINE",
"26 -176 LINE",
"63 -176 LINE",
"111 212 LINE"
);
}
);
width = 210;
}
);
note = brokenbar;
unicode = 00A6;
},
{
glyphname = section;
layers = (
{
layerId = "18B4A443-2C69-4DCB-9619-77A7DD6AC8EC";
name = Light;
paths = (
{
closed = 1;
nodes = (
"439 662 LINE",
"422 680 OFFCURVE",
"402 693 OFFCURVE",
"380 702 CURVE SMOOTH",
"358 711 OFFCURVE",
"330 716 OFFCURVE",
"300 716 CURVE SMOOTH",
"275 716 OFFCURVE",
"252 711 OFFCURVE",
"231 704 CURVE SMOOTH",
"210 697 OFFCURVE",
"191 687 OFFCURVE",
"175 675 CURVE SMOOTH",
"159 663 OFFCURVE",
"147 648 OFFCURVE",
"137 632 CURVE SMOOTH",
"127 616 OFFCURVE",
"121 598 OFFCURVE",
"119 580 CURVE SMOOTH",
"116 555 OFFCURVE",
"120 536 OFFCURVE",
"129 519 CURVE SMOOTH",
"138 503 OFFCURVE",
"151 487 OFFCURVE",
"168 475 CURVE",
"132 463 OFFCURVE",
"106 446 OFFCURVE",
"88 426 CURVE SMOOTH",
"70 406 OFFCURVE",
"60 383 OFFCURVE",
"57 357 CURVE SMOOTH",
"55 337 OFFCURVE",
"56 319 OFFCURVE",
"63 304 CURVE SMOOTH",
"70 289 OFFCURVE",
"80 277 OFFCURVE",
"93 265 CURVE SMOOTH",
"106 253 OFFCURVE",
"121 243 OFFCURVE",
"138 234 CURVE SMOOTH",
"155 225 OFFCURVE",
"173 217 OFFCURVE",
"191 209 CURVE SMOOTH",
"209 201 OFFCURVE",
"226 193 OFFCURVE",
"243 185 CURVE SMOOTH",
"260 177 OFFCURVE",
"276 169 OFFCURVE",
"289 159 CURVE SMOOTH",
"302 149 OFFCURVE",
"312 138 OFFCURVE",
"319 125 CURVE SMOOTH",
"326 112 OFFCURVE",
"328 97 OFFCURVE",
"326 80 CURVE SMOOTH",
"324 64 OFFCURVE",
"320 51 OFFCURVE",
"313 37 CURVE SMOOTH",
"306 23 OFFCURVE",
"295 11 OFFCURVE",
"283 1 CURVE SMOOTH",
"271 -9 OFFCURVE",
"257 -16 OFFCURVE",
"240 -22 CURVE SMOOTH",
"223 -28 OFFCURVE",
"205 -31 OFFCURVE",
"184 -31 CURVE SMOOTH",
"161 -31 OFFCURVE",
"143 -28 OFFCURVE",
"128 -23 CURVE SMOOTH",
"113 -18 OFFCURVE",
"101 -11 OFFCURVE",
"91 -5 CURVE SMOOTH",
"81 1 OFFCURVE",
"75 7 OFFCURVE",
"69 12 CURVE SMOOTH",
"63 17 OFFCURVE",
"58 20 OFFCURVE",
"54 20 CURVE SMOOTH",
"50 20 OFFCURVE",
"47 19 OFFCURVE",
"45 18 CURVE SMOOTH",
"43 17 OFFCURVE",
"41 15 OFFCURVE",
"39 12 CURVE",
"25 -5 LINE",
"43 -23 OFFCURVE",
"64 -38 OFFCURVE",
"88 -49 CURVE SMOOTH",
"112 -60 OFFCURVE",
"141 -66 OFFCURVE",
"176 -66 CURVE SMOOTH",
"204 -66 OFFCURVE",
"229 -62 OFFCURVE",
"252 -54 CURVE SMOOTH",
"275 -46 OFFCURVE",
"293 -35 OFFCURVE",
"310 -21 CURVE SMOOTH",
"327 -7 OFFCURVE",
"340 8 OFFCURVE",
"350 27 CURVE SMOOTH",
"360 46 OFFCURVE",
"366 66 OFFCURVE",
"369 88 CURVE SMOOTH",
"372 111 OFFCURVE",
"369 131 OFFCURVE",
"360 147 CURVE SMOOTH",
"351 163 OFFCURVE",
"338 177 OFFCURVE",
"322 190 CURVE",
"351 202 OFFCURVE",
"372 219 OFFCURVE",
"389 239 CURVE SMOOTH",
"406 259 OFFCURVE",
"416 283 OFFCURVE",
"419 311 CURVE",
"422 332 OFFCURVE",
"419 349 OFFCURVE",
"413 365 CURVE SMOOTH",
"407 380 OFFCURVE",
"397 394 OFFCURVE",
"385 406 CURVE SMOOTH",
"373 418 OFFCURVE",
"359 428 OFFCURVE",
"343 437 CURVE SMOOTH",
"327 446 OFFCURVE",
"310 455 OFFCURVE",
"293 463 CURVE SMOOTH",
"276 471 OFFCURVE",
"258 478 OFFCURVE",
"242 486 CURVE SMOOTH",
"226 494 OFFCURVE",
"212 503 OFFCURVE",
"199 512 CURVE SMOOTH",
"186 521 OFFCURVE",
"177 531 OFFCURVE",
"170 542 CURVE SMOOTH",
"163 553 OFFCURVE",
"160 567 OFFCURVE",
"162 582 CURVE SMOOTH",
"164 595 OFFCURVE",
"168 607 OFFCURVE",
"175 619 CURVE SMOOTH",
"182 631 OFFCURVE",
"192 641 OFFCURVE",
"204 650 CURVE SMOOTH",
"216 659 OFFCURVE",
"229 666 OFFCURVE",
"245 671 CURVE SMOOTH",
"261 676 OFFCURVE",
"278 679 OFFCURVE",
"297 679 CURVE SMOOTH",
"317 679 OFFCURVE",
"334 677 OFFCURVE",
"347 673 CURVE SMOOTH",
"360 669 OFFCURVE",
"371 664 OFFCURVE",
"380 659 CURVE SMOOTH",
"389 654 OFFCURVE",
"397 649 OFFCURVE",
"402 645 CURVE SMOOTH",
"407 641 OFFCURVE",
"411 639 OFFCURVE",
"415 639 CURVE SMOOTH",
"420 639 OFFCURVE",
"424 642 OFFCURVE",
"427 646 CURVE SMOOTH"
);
},
{
closed = 1;
nodes = (
"102 383 OFFCURVE",
"111 401 OFFCURVE",
"125 417 CURVE SMOOTH",
"139 433 OFFCURVE",
"163 446 OFFCURVE",
"194 459 CURVE",
"207 451 OFFCURVE",
"221 444 OFFCURVE",
"236 438 CURVE SMOOTH",
"251 432 OFFCURVE",
"265 425 OFFCURVE",
"279 418 CURVE SMOOTH",
"293 411 OFFCURVE",
"306 404 OFFCURVE",
"319 397 CURVE SMOOTH",
"332 390 OFFCURVE",
"343 381 OFFCURVE",
"352 372 CURVE SMOOTH",
"361 363 OFFCURVE",
"367 353 OFFCURVE",
"372 341 CURVE SMOOTH",
"377 329 OFFCURVE",
"378 316 OFFCURVE",
"376 301 CURVE SMOOTH",
"374 281 OFFCURVE",
"366 262 OFFCURVE",
"354 246 CURVE SMOOTH",
"342 230 OFFCURVE",
"323 217 OFFCURVE",
"298 206 CURVE",
"284 214 OFFCURVE",
"270 223 OFFCURVE",
"254 230 CURVE SMOOTH",
"238 237 OFFCURVE",
"222 244 OFFCURVE",
"207 251 CURVE SMOOTH",
"192 258 OFFCURVE",
"178 265 OFFCURVE",
"164 273 CURVE SMOOTH",
"150 281 OFFCURVE",
"138 288 OFFCURVE",
"128 297 CURVE SMOOTH",
"118 306 OFFCURVE",
"110 316 OFFCURVE",
"105 327 CURVE SMOOTH",
"100 338 OFFCURVE",
"98 349 OFFCURVE",
"100 363 CURVE"
);
}
);
width = 471;
}
);
note = section;
unicode = 00A7;
},
{
glyphname = dieresis;
layers = (
{
layerId = "18B4A443-2C69-4DCB-9619-77A7DD6AC8EC";
name = Light;
paths = (
{
closed = 1;
nodes = (
"152 648 OFFCURVE",
"152 653 OFFCURVE",
"150 658 CURVE SMOOTH",
"148 663 OFFCURVE",
"145 667 OFFCURVE",
"142 671 CURVE SMOOTH",
"139 675 OFFCURVE",
"135 678 OFFCURVE",
"130 680 CURVE SMOOTH",
"125 682 OFFCURVE",
"120 684 OFFCURVE",
"115 684 CURVE SMOOTH",
"110 684 OFFCURVE",
"104 682 OFFCURVE",
"99 680 CURVE SMOOTH",
"94 678 OFFCURVE",
"89 675 OFFCURVE",
"85 671 CURVE SMOOTH",
"81 667 OFFCURVE",
"78 663 OFFCURVE",
"75 658 CURVE SMOOTH",
"72 653 OFFCURVE",
"70 648 OFFCURVE",
"69 642 CURVE SMOOTH",
"68 637 OFFCURVE",
"69 632 OFFCURVE",
"71 627 CURVE SMOOTH",
"73 622 OFFCURVE",
"75 618 OFFCURVE",
"78 614 CURVE SMOOTH",
"81 610 OFFCURVE",
"85 607 OFFCURVE",
"90 605 CURVE SMOOTH",
"95 603 OFFCURVE",
"100 602 OFFCURVE",
"105 602 CURVE SMOOTH",
"110 602 OFFCURVE",
"116 603 OFFCURVE",
"121 605 CURVE SMOOTH",
"126 607 OFFCURVE",
"131 610 OFFCURVE",
"135 614 CURVE SMOOTH",
"139 618 OFFCURVE",
"143 622 OFFCURVE",
"146 627 CURVE SMOOTH",
"149 632 OFFCURVE",
"150 637 OFFCURVE",
"151 642 CURVE SMOOTH"
);
},
{
closed = 1;
nodes = (
"324 648 OFFCURVE",
"323 653 OFFCURVE",
"321 658 CURVE SMOOTH",
"319 663 OFFCURVE",
"317 667 OFFCURVE",
"314 671 CURVE SMOOTH",
"311 675 OFFCURVE",
"307 678 OFFCURVE",
"302 680 CURVE SMOOTH",
"297 682 OFFCURVE",
"291 683 OFFCURVE",
"286 683 CURVE SMOOTH",
"280 683 OFFCURVE",
"275 682 OFFCURVE",
"270 680 CURVE SMOOTH",
"265 678 OFFCURVE",
"260 675 OFFCURVE",
"256 671 CURVE SMOOTH",
"252 667 OFFCURVE",
"249 663 OFFCURVE",
"246 658 CURVE SMOOTH",
"243 653 OFFCURVE",
"241 648 OFFCURVE",
"240 642 CURVE SMOOTH",
"239 637 OFFCURVE",
"240 632 OFFCURVE",
"242 627 CURVE SMOOTH",
"244 622 OFFCURVE",
"246 618 OFFCURVE",
"249 614 CURVE SMOOTH",
"252 610 OFFCURVE",
"256 607 OFFCURVE",
"261 605 CURVE SMOOTH",
"266 603 OFFCURVE",
"270 602 OFFCURVE",
"276 602 CURVE SMOOTH",
"281 602 OFFCURVE",
"288 603 OFFCURVE",
"293 605 CURVE SMOOTH",
"298 607 OFFCURVE",
"303 610 OFFCURVE",
"307 614 CURVE SMOOTH",
"311 618 OFFCURVE",
"314 622 OFFCURVE",
"317 627 CURVE SMOOTH",
"320 632 OFFCURVE",
"322 637 OFFCURVE",
"323 642 CURVE SMOOTH"
);
}
);
width = 377;
}
);
note = dieresis;
unicode = 00A8;
},
